<svg width="102" height="102" viewBox="0 0 102 102" fill="none" xmlns="http://www.w3.org/2000/svg">
<path d="M51 0C22.8364 0 0 22.8319 0 50.9978C0 79.1636 22.8342 101.996 51 101.996C79.1681 101.996 102 79.1636 102 50.9978C102 22.8319 79.1681 0 51 0ZM51 15.2489C60.3192 15.2489 67.8708 22.8028 67.8708 32.1175C67.8708 41.4344 60.3192 48.9861 51 48.9861C41.6853 48.9861 34.1337 41.4344 34.1337 32.1175C34.1337 22.8028 41.6853 15.2489 51 15.2489ZM50.9888 88.662C41.6943 88.662 33.1816 85.277 26.6156 79.6743C25.0161 78.3101 24.0932 76.3096 24.0932 74.2105C24.0932 64.7637 31.7389 57.2031 41.188 57.2031H60.8165C70.2678 57.2031 77.8844 64.7637 77.8844 74.2105C77.8844 76.3118 76.966 78.3078 75.3642 79.6721C68.8005 85.277 60.2856 88.662 50.9888 88.662Z" fill="#146A5F"/>
</svg>
