<svg width="18" height="19" viewBox="0 0 18 19" fill="none" xmlns="http://www.w3.org/2000/svg">
<path fill-rule="evenodd" clip-rule="evenodd" d="M17.054 2.28571H13.15L12.767 0.865676C12.6298 0.356917 12.1367 5.10769e-06 11.571 0H6.09899C5.53328 5.10769e-06 5.04016 0.356917 4.90296 0.865676L4.52004 2.28571H0.616027C0.389066 2.28571 0.205078 2.45627 0.205078 2.66667C0.205078 2.87706 0.389066 3.04762 0.616027 3.04762H1.88997L2.6531 17.2005C2.68624 17.8085 3.22768 18.2857 3.88438 18.2857H13.8274C14.4843 18.2857 15.0259 17.808 15.0586 17.1998L15.8218 3.04762H17.054C17.2809 3.04762 17.4649 2.87706 17.4649 2.66667C17.4649 2.45627 17.2809 2.28571 17.054 2.28571ZM6.7785 13.3333C6.7785 13.5437 6.59451 13.7143 6.36755 13.7143C6.14059 13.7143 5.9566 13.5437 5.9566 13.3333V7.23807C5.9566 7.02767 6.14059 6.85712 6.36755 6.85712C6.59451 6.85712 6.7785 7.02767 6.7785 7.23807V13.3333ZM8.83475 14.4761C9.06171 14.4761 9.2457 14.3055 9.2457 14.0952V6.47611C9.2457 6.26571 9.06171 6.09515 8.83475 6.09515C8.60779 6.09515 8.4238 6.26571 8.4238 6.47611V14.0952C8.4238 14.3055 8.60779 14.4761 8.83475 14.4761ZM11.7118 13.3333C11.7118 13.5437 11.5278 13.7143 11.3009 13.7143C11.0739 13.7143 10.8899 13.5437 10.8899 13.3333V7.23807C10.8899 7.02767 11.0739 6.85712 11.3009 6.85712C11.5278 6.85712 11.7118 7.02767 11.7118 7.23807V13.3333ZM5.70075 1.05034L5.36772 2.28547H12.3032L11.9701 1.05034C11.9246 0.880587 11.7601 0.761471 11.5714 0.761658H6.09945C5.91076 0.761471 5.74625 0.880587 5.70075 1.05034Z" fill="#146A5F"/>
</svg>
