<?xml version="1.0" encoding="UTF-8" standalone="no"?>
<svg width="1028" height="437" viewBox="0 0 1028 437" fill="none" xmlns="http://www.w3.org/2000/svg">
<g filter="url(#filter0_d_1792:2702)">
<rect x="10" y="10" width="1008" height="417" rx="10" fill="white"/>
</g>
<path d="M297.651 403.36C296.111 403.36 294.751 403.1 293.571 402.58C292.391 402.04 291.461 401.28 290.781 400.3C290.101 399.3 289.751 398.09 289.731 396.67H293.781C293.821 397.65 294.171 398.48 294.831 399.16C295.511 399.82 296.441 400.15 297.621 400.15C298.641 400.15 299.451 399.91 300.051 399.43C300.651 398.93 300.951 398.27 300.951 397.45C300.951 396.59 300.681 395.92 300.141 395.44C299.621 394.96 298.921 394.57 298.041 394.27C297.161 393.97 296.221 393.65 295.221 393.31C293.601 392.75 292.361 392.03 291.501 391.15C290.661 390.27 290.241 389.1 290.241 387.64C290.221 386.4 290.511 385.34 291.111 384.46C291.731 383.56 292.571 382.87 293.631 382.39C294.691 381.89 295.911 381.64 297.291 381.64C298.691 381.64 299.921 381.89 300.981 382.39C302.061 382.89 302.901 383.59 303.501 384.49C304.121 385.39 304.451 386.46 304.491 387.7H300.381C300.361 386.96 300.071 386.31 299.511 385.75C298.971 385.17 298.211 384.88 297.231 384.88C296.391 384.86 295.681 385.07 295.101 385.51C294.541 385.93 294.261 386.55 294.261 387.37C294.261 388.07 294.481 388.63 294.921 389.05C295.361 389.45 295.961 389.79 296.721 390.07C297.481 390.35 298.351 390.65 299.331 390.97C300.371 391.33 301.321 391.75 302.181 392.23C303.041 392.71 303.731 393.35 304.251 394.15C304.771 394.93 305.031 395.94 305.031 397.18C305.031 398.28 304.751 399.3 304.191 400.24C303.631 401.18 302.801 401.94 301.701 402.52C300.601 403.08 299.251 403.36 297.651 403.36ZM314.922 403C313.362 403 312.112 402.62 311.172 401.86C310.232 401.1 309.762 399.75 309.762 397.81V391.33H307.212V388.12H309.762L310.212 384.13H313.602V388.12H317.622V391.33H313.602V397.84C313.602 398.56 313.752 399.06 314.052 399.34C314.372 399.6 314.912 399.73 315.672 399.73H317.532V403H314.922ZM326.049 403.36C324.769 403.36 323.719 403.16 322.899 402.76C322.079 402.34 321.469 401.79 321.069 401.11C320.669 400.43 320.469 399.68 320.469 398.86C320.469 397.48 321.009 396.36 322.089 395.5C323.169 394.64 324.789 394.21 326.949 394.21H330.729V393.85C330.729 392.83 330.439 392.08 329.859 391.6C329.279 391.12 328.559 390.88 327.699 390.88C326.919 390.88 326.239 391.07 325.659 391.45C325.079 391.81 324.719 392.35 324.579 393.07H320.829C320.929 391.99 321.289 391.05 321.909 390.25C322.549 389.45 323.369 388.84 324.369 388.42C325.369 387.98 326.489 387.76 327.729 387.76C329.849 387.76 331.519 388.29 332.739 389.35C333.959 390.41 334.569 391.91 334.569 393.85V403H331.299L330.939 400.6C330.499 401.4 329.879 402.06 329.079 402.58C328.299 403.1 327.289 403.36 326.049 403.36ZM326.919 400.36C328.019 400.36 328.869 400 329.469 399.28C330.089 398.56 330.479 397.67 330.639 396.61H327.369C326.349 396.61 325.619 396.8 325.179 397.18C324.739 397.54 324.519 397.99 324.519 398.53C324.519 399.11 324.739 399.56 325.179 399.88C325.619 400.2 326.199 400.36 326.919 400.36ZM344.658 403C343.098 403 341.848 402.62 340.908 401.86C339.968 401.1 339.498 399.75 339.498 397.81V391.33H336.948V388.12H339.498L339.948 384.13H343.338V388.12H347.358V391.33H343.338V397.84C343.338 398.56 343.488 399.06 343.788 399.34C344.108 399.6 344.648 399.73 345.408 399.73H347.268V403H344.658ZM356.235 403.36C354.375 403.36 352.935 402.78 351.915 401.62C350.915 400.46 350.415 398.76 350.415 396.52V388.12H354.225V396.16C354.225 397.44 354.485 398.42 355.005 399.1C355.525 399.78 356.345 400.12 357.465 400.12C358.525 400.12 359.395 399.74 360.075 398.98C360.775 398.22 361.125 397.16 361.125 395.8V388.12H364.965V403H361.575L361.275 400.48C360.815 401.36 360.145 402.06 359.265 402.58C358.405 403.1 357.395 403.36 356.235 403.36ZM375.057 403.36C373.737 403.36 372.577 403.15 371.577 402.73C370.577 402.29 369.777 401.69 369.177 400.93C368.577 400.17 368.217 399.29 368.097 398.29H371.967C372.087 398.87 372.407 399.37 372.927 399.79C373.467 400.19 374.157 400.39 374.997 400.39C375.837 400.39 376.447 400.22 376.827 399.88C377.227 399.54 377.427 399.15 377.427 398.71C377.427 398.07 377.147 397.64 376.587 397.42C376.027 397.18 375.247 396.95 374.247 396.73C373.607 396.59 372.957 396.42 372.297 396.22C371.637 396.02 371.027 395.77 370.467 395.47C369.927 395.15 369.487 394.75 369.147 394.27C368.807 393.77 368.637 393.16 368.637 392.44C368.637 391.12 369.157 390.01 370.197 389.11C371.257 388.21 372.737 387.76 374.637 387.76C376.397 387.76 377.797 388.17 378.837 388.99C379.897 389.81 380.527 390.94 380.727 392.38H377.097C376.877 391.28 376.047 390.73 374.607 390.73C373.887 390.73 373.327 390.87 372.927 391.15C372.547 391.43 372.357 391.78 372.357 392.2C372.357 392.64 372.647 392.99 373.227 393.25C373.807 393.51 374.577 393.75 375.537 393.97C376.577 394.21 377.527 394.48 378.387 394.78C379.267 395.06 379.967 395.49 380.487 396.07C381.007 396.63 381.267 397.44 381.267 398.5C381.287 399.42 381.047 400.25 380.547 400.99C380.047 401.73 379.327 402.31 378.387 402.73C377.447 403.15 376.337 403.36 375.057 403.36ZM386.319 403.21C385.619 403.21 385.039 402.99 384.579 402.55C384.139 402.11 383.919 401.58 383.919 400.96C383.919 400.32 384.139 399.78 384.579 399.34C385.039 398.9 385.619 398.68 386.319 398.68C387.019 398.68 387.589 398.9 388.029 399.34C388.489 399.78 388.719 400.32 388.719 400.96C388.719 401.58 388.489 402.11 388.029 402.55C387.589 402.99 387.019 403.21 386.319 403.21ZM386.319 392.29C385.619 392.29 385.039 392.07 384.579 391.63C384.139 391.19 383.919 390.66 383.919 390.04C383.919 389.4 384.139 388.86 384.579 388.42C385.039 387.98 385.619 387.76 386.319 387.76C387.019 387.76 387.589 387.98 388.029 388.42C388.489 388.86 388.719 389.4 388.719 390.04C388.719 390.66 388.489 391.19 388.029 391.63C387.589 392.07 387.019 392.29 386.319 392.29Z" fill="black"/>
<path d="M406.321 403V382H410.881L417.571 395.32L424.171 382H428.731V403H424.891V388.51L419.041 400H416.011L410.161 388.51V403H406.321ZM439.946 403.36C438.446 403.36 437.116 403.04 435.956 402.4C434.796 401.76 433.886 400.86 433.226 399.7C432.566 398.54 432.236 397.2 432.236 395.68C432.236 394.14 432.556 392.77 433.196 391.57C433.856 390.37 434.756 389.44 435.896 388.78C437.056 388.1 438.416 387.76 439.976 387.76C441.436 387.76 442.726 388.08 443.846 388.72C444.966 389.36 445.836 390.24 446.456 391.36C447.096 392.46 447.416 393.69 447.416 395.05C447.416 395.27 447.406 395.5 447.386 395.74C447.386 395.98 447.376 396.23 447.356 396.49H436.046C436.126 397.65 436.526 398.56 437.246 399.22C437.986 399.88 438.876 400.21 439.916 400.21C440.696 400.21 441.346 400.04 441.866 399.7C442.406 399.34 442.806 398.88 443.066 398.32H446.966C446.686 399.26 446.216 400.12 445.556 400.9C444.916 401.66 444.116 402.26 443.156 402.7C442.216 403.14 441.146 403.36 439.946 403.36ZM439.976 390.88C439.036 390.88 438.206 391.15 437.486 391.69C436.766 392.21 436.306 393.01 436.106 394.09H443.516C443.456 393.11 443.096 392.33 442.436 391.75C441.776 391.17 440.956 390.88 439.976 390.88ZM450.645 403V388.12H454.035L454.335 390.64C454.795 389.76 455.455 389.06 456.315 388.54C457.195 388.02 458.225 387.76 459.405 387.76C461.245 387.76 462.675 388.34 463.695 389.5C464.715 390.66 465.225 392.36 465.225 394.6V403H461.385V394.96C461.385 393.68 461.125 392.7 460.605 392.02C460.085 391.34 459.275 391 458.175 391C457.095 391 456.205 391.38 455.505 392.14C454.825 392.9 454.485 393.96 454.485 395.32V403H450.645ZM474.477 403.36C472.617 403.36 471.177 402.78 470.157 401.62C469.157 400.46 468.657 398.76 468.657 396.52V388.12H472.467V396.16C472.467 397.44 472.727 398.42 473.247 399.1C473.767 399.78 474.587 400.12 475.707 400.12C476.767 400.12 477.637 399.74 478.317 398.98C479.017 398.22 479.367 397.16 479.367 395.8V388.12H483.207V403H479.817L479.517 400.48C479.057 401.36 478.387 402.06 477.507 402.58C476.647 403.1 475.637 403.36 474.477 403.36ZM487.149 403V388.12H490.539L490.839 390.64C491.299 389.76 491.959 389.06 492.819 388.54C493.699 388.02 494.729 387.76 495.909 387.76C497.749 387.76 499.179 388.34 500.199 389.5C501.219 390.66 501.729 392.36 501.729 394.6V403H497.889V394.96C497.889 393.68 497.629 392.7 497.109 392.02C496.589 391.34 495.779 391 494.679 391C493.599 391 492.709 391.38 492.009 392.14C491.329 392.9 490.989 393.96 490.989 395.32V403H487.149ZM511.701 398.56C510.981 398.56 510.311 398.48 509.691 398.32L508.581 399.43C508.921 399.61 509.381 399.76 509.961 399.88C510.541 400 511.481 400.12 512.781 400.24C514.761 400.42 516.201 400.89 517.101 401.65C518.001 402.41 518.451 403.46 518.451 404.8C518.451 405.68 518.211 406.51 517.731 407.29C517.251 408.09 516.511 408.73 515.511 409.21C514.511 409.71 513.231 409.96 511.671 409.96C509.551 409.96 507.841 409.56 506.541 408.76C505.241 407.98 504.591 406.8 504.591 405.22C504.591 403.88 505.241 402.72 506.541 401.74C506.141 401.56 505.791 401.37 505.491 401.17C505.211 400.97 504.961 400.76 504.741 400.54V399.85L507.351 397.09C506.191 396.07 505.611 394.76 505.611 393.16C505.611 392.16 505.851 391.25 506.331 390.43C506.831 389.61 507.531 388.96 508.431 388.48C509.331 388 510.421 387.76 511.701 387.76C512.541 387.76 513.321 387.88 514.041 388.12H519.681V390.46L517.131 390.64C517.531 391.4 517.731 392.24 517.731 393.16C517.731 394.16 517.491 395.07 517.011 395.89C516.531 396.71 515.831 397.36 514.911 397.84C514.011 398.32 512.941 398.56 511.701 398.56ZM511.701 395.62C512.481 395.62 513.121 395.41 513.621 394.99C514.141 394.57 514.401 393.97 514.401 393.19C514.401 392.41 514.141 391.81 513.621 391.39C513.121 390.97 512.481 390.76 511.701 390.76C510.881 390.76 510.221 390.97 509.721 391.39C509.221 391.81 508.971 392.41 508.971 393.19C508.971 393.97 509.221 394.57 509.721 394.99C510.221 395.41 510.881 395.62 511.701 395.62ZM508.101 404.83C508.101 405.57 508.441 406.12 509.121 406.48C509.821 406.86 510.671 407.05 511.671 407.05C512.631 407.05 513.411 406.85 514.011 406.45C514.611 406.07 514.911 405.55 514.911 404.89C514.911 404.35 514.711 403.9 514.311 403.54C513.931 403.18 513.161 402.96 512.001 402.88C511.181 402.82 510.421 402.73 509.721 402.61C509.141 402.93 508.721 403.28 508.461 403.66C508.221 404.04 508.101 404.43 508.101 404.83ZM528.781 398.56C528.061 398.56 527.391 398.48 526.771 398.32L525.661 399.43C526.001 399.61 526.461 399.76 527.041 399.88C527.621 400 528.561 400.12 529.861 400.24C531.841 400.42 533.281 400.89 534.181 401.65C535.081 402.41 535.531 403.46 535.531 404.8C535.531 405.68 535.291 406.51 534.811 407.29C534.331 408.09 533.591 408.73 532.591 409.21C531.591 409.71 530.311 409.96 528.751 409.96C526.631 409.96 524.921 409.56 523.621 408.76C522.321 407.98 521.671 406.8 521.671 405.22C521.671 403.88 522.321 402.72 523.621 401.74C523.221 401.56 522.871 401.37 522.571 401.17C522.291 400.97 522.041 400.76 521.821 400.54V399.85L524.431 397.09C523.271 396.07 522.691 394.76 522.691 393.16C522.691 392.16 522.931 391.25 523.411 390.43C523.911 389.61 524.611 388.96 525.511 388.48C526.411 388 527.501 387.76 528.781 387.76C529.621 387.76 530.401 387.88 531.121 388.12H536.761V390.46L534.211 390.64C534.611 391.4 534.811 392.24 534.811 393.16C534.811 394.16 534.571 395.07 534.091 395.89C533.611 396.71 532.911 397.36 531.991 397.84C531.091 398.32 530.021 398.56 528.781 398.56ZM528.781 395.62C529.561 395.62 530.201 395.41 530.701 394.99C531.221 394.57 531.481 393.97 531.481 393.19C531.481 392.41 531.221 391.81 530.701 391.39C530.201 390.97 529.561 390.76 528.781 390.76C527.961 390.76 527.301 390.97 526.801 391.39C526.301 391.81 526.051 392.41 526.051 393.19C526.051 393.97 526.301 394.57 526.801 394.99C527.301 395.41 527.961 395.62 528.781 395.62ZM525.181 404.83C525.181 405.57 525.521 406.12 526.201 406.48C526.901 406.86 527.751 407.05 528.751 407.05C529.711 407.05 530.491 406.85 531.091 406.45C531.691 406.07 531.991 405.55 531.991 404.89C531.991 404.35 531.791 403.9 531.391 403.54C531.011 403.18 530.241 402.96 529.081 402.88C528.261 402.82 527.501 402.73 526.801 402.61C526.221 402.93 525.801 403.28 525.541 403.66C525.301 404.04 525.181 404.43 525.181 404.83ZM545.141 403.36C543.281 403.36 541.841 402.78 540.821 401.62C539.821 400.46 539.321 398.76 539.321 396.52V388.12H543.131V396.16C543.131 397.44 543.391 398.42 543.911 399.1C544.431 399.78 545.251 400.12 546.371 400.12C547.431 400.12 548.301 399.74 548.981 398.98C549.681 398.22 550.031 397.16 550.031 395.8V388.12H553.871V403H550.481L550.181 400.48C549.721 401.36 549.051 402.06 548.171 402.58C547.311 403.1 546.301 403.36 545.141 403.36ZM564.962 409.6V388.12H568.382L568.802 390.25C569.282 389.59 569.912 389.01 570.692 388.51C571.492 388.01 572.522 387.76 573.782 387.76C575.182 387.76 576.432 388.1 577.532 388.78C578.632 389.46 579.502 390.39 580.142 391.57C580.782 392.75 581.102 394.09 581.102 395.59C581.102 397.09 580.782 398.43 580.142 399.61C579.502 400.77 578.632 401.69 577.532 402.37C576.432 403.03 575.182 403.36 573.782 403.36C572.662 403.36 571.682 403.15 570.842 402.73C570.002 402.31 569.322 401.72 568.802 400.96V409.6H564.962ZM572.972 400C574.192 400 575.202 399.59 576.002 398.77C576.802 397.95 577.202 396.89 577.202 395.59C577.202 394.29 576.802 393.22 576.002 392.38C575.202 391.54 574.192 391.12 572.972 391.12C571.732 391.12 570.712 391.54 569.912 392.38C569.132 393.2 568.742 394.26 568.742 395.56C568.742 396.86 569.132 397.93 569.912 398.77C570.712 399.59 571.732 400 572.972 400ZM591.762 403.36C590.262 403.36 588.932 403.04 587.772 402.4C586.612 401.76 585.702 400.86 585.042 399.7C584.382 398.54 584.052 397.2 584.052 395.68C584.052 394.14 584.372 392.77 585.012 391.57C585.672 390.37 586.572 389.44 587.712 388.78C588.872 388.1 590.232 387.76 591.792 387.76C593.252 387.76 594.542 388.08 595.662 388.72C596.782 389.36 597.652 390.24 598.272 391.36C598.912 392.46 599.232 393.69 599.232 395.05C599.232 395.27 599.222 395.5 599.202 395.74C599.202 395.98 599.192 396.23 599.172 396.49H587.862C587.942 397.65 588.342 398.56 589.062 399.22C589.802 399.88 590.692 400.21 591.732 400.21C592.512 400.21 593.162 400.04 593.682 399.7C594.222 399.34 594.622 398.88 594.882 398.32H598.782C598.502 399.26 598.032 400.12 597.372 400.9C596.732 401.66 595.932 402.26 594.972 402.7C594.032 403.14 592.962 403.36 591.762 403.36ZM591.792 390.88C590.852 390.88 590.022 391.15 589.302 391.69C588.582 392.21 588.122 393.01 587.922 394.09H595.332C595.272 393.11 594.912 392.33 594.252 391.75C593.592 391.17 592.772 390.88 591.792 390.88ZM602.462 403V388.12H605.882L606.242 390.91C606.782 389.95 607.512 389.19 608.432 388.63C609.372 388.05 610.472 387.76 611.732 387.76V391.81H610.652C609.812 391.81 609.062 391.94 608.402 392.2C607.742 392.46 607.222 392.91 606.842 393.55C606.482 394.19 606.302 395.08 606.302 396.22V403H602.462ZM620.506 403.36C619.186 403.36 618.026 403.15 617.026 402.73C616.026 402.29 615.226 401.69 614.626 400.93C614.026 400.17 613.666 399.29 613.546 398.29H617.416C617.536 398.87 617.856 399.37 618.376 399.79C618.916 400.19 619.606 400.39 620.446 400.39C621.286 400.39 621.896 400.22 622.276 399.88C622.676 399.54 622.876 399.15 622.876 398.71C622.876 398.07 622.596 397.64 622.036 397.42C621.476 397.18 620.696 396.95 619.696 396.73C619.056 396.59 618.406 396.42 617.746 396.22C617.086 396.02 616.476 395.77 615.916 395.47C615.376 395.15 614.936 394.75 614.596 394.27C614.256 393.77 614.086 393.16 614.086 392.44C614.086 391.12 614.606 390.01 615.646 389.11C616.706 388.21 618.186 387.76 620.086 387.76C621.846 387.76 623.246 388.17 624.286 388.99C625.346 389.81 625.976 390.94 626.176 392.38H622.546C622.326 391.28 621.496 390.73 620.056 390.73C619.336 390.73 618.776 390.87 618.376 391.15C617.996 391.43 617.806 391.78 617.806 392.2C617.806 392.64 618.096 392.99 618.676 393.25C619.256 393.51 620.026 393.75 620.986 393.97C622.026 394.21 622.976 394.48 623.836 394.78C624.716 395.06 625.416 395.49 625.936 396.07C626.456 396.63 626.716 397.44 626.716 398.5C626.736 399.42 626.496 400.25 625.996 400.99C625.496 401.73 624.776 402.31 623.836 402.73C622.896 403.15 621.786 403.36 620.506 403.36ZM637.348 403.36C635.848 403.36 634.518 403.04 633.358 402.4C632.198 401.76 631.288 400.86 630.628 399.7C629.968 398.54 629.638 397.2 629.638 395.68C629.638 394.14 629.958 392.77 630.598 391.57C631.258 390.37 632.158 389.44 633.298 388.78C634.458 388.1 635.818 387.76 637.378 387.76C638.838 387.76 640.128 388.08 641.248 388.72C642.368 389.36 643.238 390.24 643.858 391.36C644.498 392.46 644.818 393.69 644.818 395.05C644.818 395.27 644.808 395.5 644.788 395.74C644.788 395.98 644.778 396.23 644.758 396.49H633.448C633.528 397.65 633.928 398.56 634.648 399.22C635.388 399.88 636.278 400.21 637.318 400.21C638.098 400.21 638.748 400.04 639.268 399.7C639.808 399.34 640.208 398.88 640.468 398.32H644.368C644.088 399.26 643.618 400.12 642.958 400.9C642.318 401.66 641.518 402.26 640.558 402.7C639.618 403.14 638.548 403.36 637.348 403.36ZM637.378 390.88C636.438 390.88 635.608 391.15 634.888 391.69C634.168 392.21 633.708 393.01 633.508 394.09H640.918C640.858 393.11 640.498 392.33 639.838 391.75C639.178 391.17 638.358 390.88 637.378 390.88ZM654.414 403C652.854 403 651.604 402.62 650.664 401.86C649.724 401.1 649.254 399.75 649.254 397.81V391.33H646.704V388.12H649.254L649.704 384.13H653.094V388.12H657.114V391.33H653.094V397.84C653.094 398.56 653.244 399.06 653.544 399.34C653.864 399.6 654.404 399.73 655.164 399.73H657.024V403H654.414ZM665.991 403.36C664.131 403.36 662.691 402.78 661.671 401.62C660.671 400.46 660.171 398.76 660.171 396.52V388.12H663.981V396.16C663.981 397.44 664.241 398.42 664.761 399.1C665.281 399.78 666.101 400.12 667.221 400.12C668.281 400.12 669.151 399.74 669.831 398.98C670.531 398.22 670.881 397.16 670.881 395.8V388.12H674.721V403H671.331L671.031 400.48C670.571 401.36 669.901 402.06 669.021 402.58C668.161 403.1 667.151 403.36 665.991 403.36ZM680.793 385.81C680.093 385.81 679.513 385.6 679.053 385.18C678.613 384.76 678.393 384.23 678.393 383.59C678.393 382.95 678.613 382.43 679.053 382.03C679.513 381.61 680.093 381.4 680.793 381.4C681.493 381.4 682.063 381.61 682.503 382.03C682.963 382.43 683.193 382.95 683.193 383.59C683.193 384.23 682.963 384.76 682.503 385.18C682.063 385.6 681.493 385.81 680.793 385.81ZM675.843 409.6V406.33H677.013C677.673 406.33 678.143 406.2 678.423 405.94C678.703 405.68 678.843 405.24 678.843 404.62V388.12H682.683V404.62C682.683 406.42 682.223 407.7 681.303 408.46C680.403 409.22 679.173 409.6 677.613 409.6H675.843ZM692.27 403.36C690.41 403.36 688.97 402.78 687.95 401.62C686.95 400.46 686.45 398.76 686.45 396.52V388.12H690.26V396.16C690.26 397.44 690.52 398.42 691.04 399.1C691.56 399.78 692.38 400.12 693.5 400.12C694.56 400.12 695.43 399.74 696.11 398.98C696.81 398.22 697.16 397.16 697.16 395.8V388.12H701V403H697.61L697.31 400.48C696.85 401.36 696.18 402.06 695.3 402.58C694.44 403.1 693.43 403.36 692.27 403.36ZM710.072 403.36C708.792 403.36 707.742 403.16 706.922 402.76C706.102 402.34 705.492 401.79 705.092 401.11C704.692 400.43 704.492 399.68 704.492 398.86C704.492 397.48 705.032 396.36 706.112 395.5C707.192 394.64 708.812 394.21 710.972 394.21H714.752V393.85C714.752 392.83 714.462 392.08 713.882 391.6C713.302 391.12 712.582 390.88 711.722 390.88C710.942 390.88 710.262 391.07 709.682 391.45C709.102 391.81 708.742 392.35 708.602 393.07H704.852C704.952 391.99 705.312 391.05 705.932 390.25C706.572 389.45 707.392 388.84 708.392 388.42C709.392 387.98 710.512 387.76 711.752 387.76C713.872 387.76 715.542 388.29 716.762 389.35C717.982 390.41 718.592 391.91 718.592 393.85V403H715.322L714.962 400.6C714.522 401.4 713.902 402.06 713.102 402.58C712.322 403.1 711.312 403.36 710.072 403.36ZM710.942 400.36C712.042 400.36 712.892 400 713.492 399.28C714.112 398.56 714.502 397.67 714.662 396.61H711.392C710.372 396.61 709.642 396.8 709.202 397.18C708.762 397.54 708.542 397.99 708.542 398.53C708.542 399.11 708.762 399.56 709.202 399.88C709.642 400.2 710.222 400.36 710.942 400.36ZM722.257 403V388.12H725.647L725.947 390.64C726.407 389.76 727.067 389.06 727.927 388.54C728.807 388.02 729.837 387.76 731.017 387.76C732.857 387.76 734.287 388.34 735.307 389.5C736.327 390.66 736.837 392.36 736.837 394.6V403H732.997V394.96C732.997 393.68 732.737 392.7 732.217 392.02C731.697 391.34 730.887 391 729.787 391C728.707 391 727.817 391.38 727.117 392.14C726.437 392.9 726.097 393.96 726.097 395.32V403H722.257Z" fill="#7A921A"/>
<path d="M509.71 128.374C500.621 123.112 488.129 123.824 474.32 131.79C446.559 147.843 424 187.156 424 219.612C424 235.943 429.721 247.374 438.931 252.721C441.067 253.928 449.42 258.756 449.42 258.756C449.028 262.429 447.759 265.954 445.72 269.034C443.68 272.114 440.929 274.657 437.7 276.451C437.169 276.753 437.494 277.272 437.965 277.537L450.723 284.912C450.895 285.014 451.09 285.073 451.291 285.081C463.856 285.081 478.4 276.632 482.456 259.082C483.977 258.358 485.509 257.573 487.066 256.668C514.828 240.627 537.387 201.302 537.387 168.858C537.387 152.515 531.678 141.096 522.468 135.713L509.71 128.374Z" fill="#37474F"/>
<path d="M487.067 139.153C459.305 155.194 436.746 194.519 436.746 226.963C436.746 248.991 447.114 262.172 462.468 263.379C461.888 270.38 459.848 278.249 450.397 283.814C449.649 284.26 450.627 285.093 451.254 285.093C463.819 285.093 478.364 276.644 482.42 259.094C483.94 258.37 485.473 257.585 487.03 256.68C514.792 240.639 537.351 201.314 537.351 168.87C537.351 136.425 514.852 123.112 487.067 139.153Z" fill="#455A64"/>
<path d="M450.434 283.814C449.976 284.103 450.181 284.526 450.567 284.815L437.966 277.573C437.495 277.284 437.169 276.789 437.7 276.475C440.937 274.678 443.692 272.127 445.732 269.038C447.772 265.949 449.038 262.414 449.421 258.732L450.809 259.553L452.088 260.301C455.285 262.059 458.828 263.097 462.468 263.343C461.901 270.38 459.849 278.249 450.434 283.814Z" fill="#263238"/>
<path d="M481.755 232.045C480.415 231.091 479.739 229.377 479.739 226.903C479.768 224.325 480.449 221.796 481.719 219.552C482.872 217.309 484.627 215.432 486.788 214.133C488.84 212.95 490.526 212.809 491.846 213.71C493.161 214.603 493.825 216.293 493.825 218.768C493.786 221.391 493.093 223.963 491.809 226.251C490.685 228.517 488.944 230.42 486.788 231.743C484.785 232.89 483.107 232.998 481.755 232.045ZM479.957 166.432L493.608 158.55L491.327 204.561L482.238 209.812L479.957 166.432Z" fill="#FAFAFA"/>
<path opacity="0.2" d="M493.778 252.274C508.6 241.411 521.383 224.187 529.204 205.695C514.382 216.571 501.6 233.783 493.778 252.274Z" fill="black"/>
<path d="M588.553 315.16C583.411 315.22 579.585 311.623 577.183 307.097C592.585 288.159 603.001 262.932 603.001 240.868C603.001 224.513 597.268 213.022 588.034 207.711L575.3 200.373C566.211 195.122 553.731 195.846 539.935 203.801C512.173 219.854 489.614 259.166 489.614 291.623C489.614 307.954 495.323 319.384 504.533 324.756C506.681 325.963 515.143 330.863 517.231 332.082C526.332 337.381 538.848 336.681 552.681 328.69C556.385 326.534 559.902 324.072 563.194 321.328C572.536 328.727 583.93 320.664 588.445 316.801C589.048 316.294 589.12 315.16 588.553 315.16Z" fill="#E0E0E0"/>
<path d="M530.411 334.774C513.585 334.774 503.145 321.074 503.145 299.034C503.145 266.879 525.547 227.82 553.067 211.9C560.767 207.458 568.13 205.201 574.95 205.201C591.763 205.201 602.216 218.888 602.216 240.941C602.216 262.027 592.391 287.218 576.579 306.663L576.253 307.073L576.495 307.532C579.331 312.879 583.447 315.872 588.106 315.981C588.073 316.082 588.015 316.174 587.937 316.246C584.727 318.998 578.354 323.597 571.751 323.597C568.811 323.61 565.957 322.603 563.676 320.748L563.181 320.362L562.687 320.76C559.425 323.458 555.945 325.88 552.282 328.003C544.593 332.456 537.231 334.774 530.411 334.774Z" fill="#FAFAFA"/>
<path d="M574.952 204.417V205.986C591.282 205.986 601.433 219.383 601.433 240.929C601.433 261.858 591.681 286.856 575.978 306.168L575.314 306.976L575.809 307.894C578.416 312.818 582.085 315.848 586.298 316.608C582.954 319.276 577.414 322.837 571.753 322.837C568.988 322.85 566.305 321.903 564.161 320.157L563.171 319.373L562.193 320.181C558.966 322.874 555.523 325.296 551.898 327.423C544.318 331.793 537.088 334.014 530.413 334.014C514.082 334.014 503.931 320.616 503.931 299.01C503.931 267.109 526.152 228.327 553.418 212.552C560.999 208.182 568.229 205.961 574.903 205.961V204.417H574.952ZM574.903 204.417C568.192 204.417 560.636 206.601 552.634 211.224C524.873 227.265 502.313 266.578 502.313 299.034C502.313 322.149 513.744 335.559 530.364 335.559C537.075 335.559 544.631 333.374 552.634 328.751C556.338 326.595 559.855 324.132 563.147 321.388C565.561 323.36 568.588 324.427 571.705 324.406C578.609 324.406 585.211 319.578 588.398 316.862C589.001 316.355 589.074 315.22 588.506 315.22H588.386C583.316 315.22 579.526 311.66 577.136 307.158C592.538 288.219 602.954 262.993 602.954 240.929C602.954 217.814 591.524 204.417 574.903 204.417Z" fill="#146A5F"/>
<path d="M550.098 275.449C551.562 271.937 553.243 268.518 555.131 265.214C556.431 262.946 557.616 260.613 558.679 258.225C559.412 256.587 559.802 254.817 559.826 253.023C559.826 250.609 559.102 249.124 557.653 248.545C556.205 247.966 554.298 248.388 551.896 249.752C549.521 251.146 547.442 252.991 545.776 255.184C543.916 257.612 542.397 260.285 541.262 263.126L532.391 261.303C534.375 256.061 537.187 251.171 540.719 246.819C544.175 242.548 548.39 238.951 553.151 236.209C558.784 232.991 563.294 231.985 566.682 233.192C570.07 234.399 571.767 237.851 571.776 243.548C571.791 246.12 571.458 248.682 570.786 251.164C570.191 253.413 569.382 255.599 568.372 257.694C567.418 259.649 566.175 261.979 564.666 264.683C563.203 267.178 561.882 269.753 560.707 272.396C559.898 274.304 559.487 276.358 559.5 278.431L548.432 284.828C548.387 281.624 548.953 278.442 550.098 275.449ZM548.891 306.506C547.551 305.552 546.875 303.838 546.875 301.352C546.904 298.774 547.585 296.245 548.854 294.001C550.006 291.762 551.757 289.886 553.912 288.582C555.976 287.375 557.653 287.254 558.981 288.159C560.309 289.064 560.961 290.754 560.961 293.229C560.92 295.848 560.227 298.416 558.945 300.7C557.82 302.969 556.074 304.873 553.912 306.192C551.968 307.351 550.303 307.447 548.951 306.506H548.891Z" fill="#455A64"/>
<path d="M52.04 70V49H56.6L63.29 62.32L69.89 49H74.45V70H70.61V55.51L64.76 67H61.73L55.88 55.51V70H52.04ZM85.6644 70.36C84.1644 70.36 82.8344 70.04 81.6744 69.4C80.5144 68.76 79.6044 67.86 78.9444 66.7C78.2844 65.54 77.9544 64.2 77.9544 62.68C77.9544 61.14 78.2744 59.77 78.9144 58.57C79.5744 57.37 80.4744 56.44 81.6144 55.78C82.7744 55.1 84.1344 54.76 85.6944 54.76C87.1544 54.76 88.4444 55.08 89.5644 55.72C90.6844 56.36 91.5544 57.24 92.1744 58.36C92.8144 59.46 93.1344 60.69 93.1344 62.05C93.1344 62.27 93.1244 62.5 93.1044 62.74C93.1044 62.98 93.0944 63.23 93.0744 63.49H81.7644C81.8444 64.65 82.2444 65.56 82.9644 66.22C83.7044 66.88 84.5944 67.21 85.6344 67.21C86.4144 67.21 87.0644 67.04 87.5844 66.7C88.1244 66.34 88.5244 65.88 88.7844 65.32H92.6844C92.4044 66.26 91.9344 67.12 91.2744 67.9C90.6344 68.66 89.8344 69.26 88.8744 69.7C87.9344 70.14 86.8644 70.36 85.6644 70.36ZM85.6944 57.88C84.7544 57.88 83.9244 58.15 83.2044 58.69C82.4844 59.21 82.0244 60.01 81.8244 61.09H89.2344C89.1744 60.11 88.8144 59.33 88.1544 58.75C87.4944 58.17 86.6744 57.88 85.6944 57.88ZM96.3641 70V55.12H99.7541L100.054 57.64C100.514 56.76 101.174 56.06 102.034 55.54C102.914 55.02 103.944 54.76 105.124 54.76C106.964 54.76 108.394 55.34 109.414 56.5C110.434 57.66 110.944 59.36 110.944 61.6V70H107.104V61.96C107.104 60.68 106.844 59.7 106.324 59.02C105.804 58.34 104.994 58 103.894 58C102.814 58 101.924 58.38 101.224 59.14C100.544 59.9 100.204 60.96 100.204 62.32V70H96.3641ZM120.196 70.36C118.336 70.36 116.896 69.78 115.876 68.62C114.876 67.46 114.376 65.76 114.376 63.52V55.12H118.186V63.16C118.186 64.44 118.446 65.42 118.966 66.1C119.486 66.78 120.306 67.12 121.426 67.12C122.486 67.12 123.356 66.74 124.036 65.98C124.736 65.22 125.086 64.16 125.086 62.8V55.12H128.926V70H125.536L125.236 67.48C124.776 68.36 124.106 69.06 123.226 69.58C122.366 70.1 121.356 70.36 120.196 70.36ZM132.868 70V55.12H136.258L136.558 57.64C137.018 56.76 137.678 56.06 138.538 55.54C139.418 55.02 140.448 54.76 141.628 54.76C143.468 54.76 144.898 55.34 145.918 56.5C146.938 57.66 147.448 59.36 147.448 61.6V70H143.608V61.96C143.608 60.68 143.348 59.7 142.828 59.02C142.308 58.34 141.498 58 140.398 58C139.318 58 138.428 58.38 137.728 59.14C137.048 59.9 136.708 60.96 136.708 62.32V70H132.868ZM157.42 65.56C156.7 65.56 156.03 65.48 155.41 65.32L154.3 66.43C154.64 66.61 155.1 66.76 155.68 66.88C156.26 67 157.2 67.12 158.5 67.24C160.48 67.42 161.92 67.89 162.82 68.65C163.72 69.41 164.17 70.46 164.17 71.8C164.17 72.68 163.93 73.51 163.45 74.29C162.97 75.09 162.23 75.73 161.23 76.21C160.23 76.71 158.95 76.96 157.39 76.96C155.27 76.96 153.56 76.56 152.26 75.76C150.96 74.98 150.31 73.8 150.31 72.22C150.31 70.88 150.96 69.72 152.26 68.74C151.86 68.56 151.51 68.37 151.21 68.17C150.93 67.97 150.68 67.76 150.46 67.54V66.85L153.07 64.09C151.91 63.07 151.33 61.76 151.33 60.16C151.33 59.16 151.57 58.25 152.05 57.43C152.55 56.61 153.25 55.96 154.15 55.48C155.05 55 156.14 54.76 157.42 54.76C158.26 54.76 159.04 54.88 159.76 55.12H165.4V57.46L162.85 57.64C163.25 58.4 163.45 59.24 163.45 60.16C163.45 61.16 163.21 62.07 162.73 62.89C162.25 63.71 161.55 64.36 160.63 64.84C159.73 65.32 158.66 65.56 157.42 65.56ZM157.42 62.62C158.2 62.62 158.84 62.41 159.34 61.99C159.86 61.57 160.12 60.97 160.12 60.19C160.12 59.41 159.86 58.81 159.34 58.39C158.84 57.97 158.2 57.76 157.42 57.76C156.6 57.76 155.94 57.97 155.44 58.39C154.94 58.81 154.69 59.41 154.69 60.19C154.69 60.97 154.94 61.57 155.44 61.99C155.94 62.41 156.6 62.62 157.42 62.62ZM153.82 71.83C153.82 72.57 154.16 73.12 154.84 73.48C155.54 73.86 156.39 74.05 157.39 74.05C158.35 74.05 159.13 73.85 159.73 73.45C160.33 73.07 160.63 72.55 160.63 71.89C160.63 71.35 160.43 70.9 160.03 70.54C159.65 70.18 158.88 69.96 157.72 69.88C156.9 69.82 156.14 69.73 155.44 69.61C154.86 69.93 154.44 70.28 154.18 70.66C153.94 71.04 153.82 71.43 153.82 71.83ZM174.5 65.56C173.78 65.56 173.11 65.48 172.49 65.32L171.38 66.43C171.72 66.61 172.18 66.76 172.76 66.88C173.34 67 174.28 67.12 175.58 67.24C177.56 67.42 179 67.89 179.9 68.65C180.8 69.41 181.25 70.46 181.25 71.8C181.25 72.68 181.01 73.51 180.53 74.29C180.05 75.09 179.31 75.73 178.31 76.21C177.31 76.71 176.03 76.96 174.47 76.96C172.35 76.96 170.64 76.56 169.34 75.76C168.04 74.98 167.39 73.8 167.39 72.22C167.39 70.88 168.04 69.72 169.34 68.74C168.94 68.56 168.59 68.37 168.29 68.17C168.01 67.97 167.76 67.76 167.54 67.54V66.85L170.15 64.09C168.99 63.07 168.41 61.76 168.41 60.16C168.41 59.16 168.65 58.25 169.13 57.43C169.63 56.61 170.33 55.96 171.23 55.48C172.13 55 173.22 54.76 174.5 54.76C175.34 54.76 176.12 54.88 176.84 55.12H182.48V57.46L179.93 57.64C180.33 58.4 180.53 59.24 180.53 60.16C180.53 61.16 180.29 62.07 179.81 62.89C179.33 63.71 178.63 64.36 177.71 64.84C176.81 65.32 175.74 65.56 174.5 65.56ZM174.5 62.62C175.28 62.62 175.92 62.41 176.42 61.99C176.94 61.57 177.2 60.97 177.2 60.19C177.2 59.41 176.94 58.81 176.42 58.39C175.92 57.97 175.28 57.76 174.5 57.76C173.68 57.76 173.02 57.97 172.52 58.39C172.02 58.81 171.77 59.41 171.77 60.19C171.77 60.97 172.02 61.57 172.52 61.99C173.02 62.41 173.68 62.62 174.5 62.62ZM170.9 71.83C170.9 72.57 171.24 73.12 171.92 73.48C172.62 73.86 173.47 74.05 174.47 74.05C175.43 74.05 176.21 73.85 176.81 73.45C177.41 73.07 177.71 72.55 177.71 71.89C177.71 71.35 177.51 70.9 177.11 70.54C176.73 70.18 175.96 69.96 174.8 69.88C173.98 69.82 173.22 69.73 172.52 69.61C171.94 69.93 171.52 70.28 171.26 70.66C171.02 71.04 170.9 71.43 170.9 71.83ZM190.86 70.36C189 70.36 187.56 69.78 186.54 68.62C185.54 67.46 185.04 65.76 185.04 63.52V55.12H188.85V63.16C188.85 64.44 189.11 65.42 189.63 66.1C190.15 66.78 190.97 67.12 192.09 67.12C193.15 67.12 194.02 66.74 194.7 65.98C195.4 65.22 195.75 64.16 195.75 62.8V55.12H199.59V70H196.2L195.9 67.48C195.44 68.36 194.77 69.06 193.89 69.58C193.03 70.1 192.02 70.36 190.86 70.36ZM216.86 70L209.18 49H213.29L219.23 66.07L225.2 49H229.25L221.57 70H216.86ZM237.1 70.36C235.6 70.36 234.27 70.04 233.11 69.4C231.95 68.76 231.04 67.86 230.38 66.7C229.72 65.54 229.39 64.2 229.39 62.68C229.39 61.14 229.71 59.77 230.35 58.57C231.01 57.37 231.91 56.44 233.05 55.78C234.21 55.1 235.57 54.76 237.13 54.76C238.59 54.76 239.88 55.08 241 55.72C242.12 56.36 242.99 57.24 243.61 58.36C244.25 59.46 244.57 60.69 244.57 62.05C244.57 62.27 244.56 62.5 244.54 62.74C244.54 62.98 244.53 63.23 244.51 63.49H233.2C233.28 64.65 233.68 65.56 234.4 66.22C235.14 66.88 236.03 67.21 237.07 67.21C237.85 67.21 238.5 67.04 239.02 66.7C239.56 66.34 239.96 65.88 240.22 65.32H244.12C243.84 66.26 243.37 67.12 242.71 67.9C242.07 68.66 241.27 69.26 240.31 69.7C239.37 70.14 238.3 70.36 237.1 70.36ZM237.13 57.88C236.19 57.88 235.36 58.15 234.64 58.69C233.92 59.21 233.46 60.01 233.26 61.09H240.67C240.61 60.11 240.25 59.33 239.59 58.75C238.93 58.17 238.11 57.88 237.13 57.88ZM247.8 70V55.12H251.22L251.58 57.91C252.12 56.95 252.85 56.19 253.77 55.63C254.71 55.05 255.81 54.76 257.07 54.76V58.81H255.99C255.15 58.81 254.4 58.94 253.74 59.2C253.08 59.46 252.56 59.91 252.18 60.55C251.82 61.19 251.64 62.08 251.64 63.22V70H247.8ZM261.764 52.81C261.064 52.81 260.484 52.6 260.024 52.18C259.584 51.76 259.364 51.23 259.364 50.59C259.364 49.95 259.584 49.43 260.024 49.03C260.484 48.61 261.064 48.4 261.764 48.4C262.464 48.4 263.034 48.61 263.474 49.03C263.934 49.43 264.164 49.95 264.164 50.59C264.164 51.23 263.934 51.76 263.474 52.18C263.034 52.6 262.464 52.81 261.764 52.81ZM259.844 70V55.12H263.684V70H259.844ZM268.382 70V58.33H266.342V55.12H268.382V53.38C268.382 51.58 268.832 50.3 269.732 49.54C270.652 48.78 271.892 48.4 273.452 48.4H275.102V51.67H274.052C273.392 51.67 272.922 51.8 272.642 52.06C272.362 52.32 272.222 52.76 272.222 53.38V55.12H281.822V70H277.982V58.33H272.222V70H268.382ZM279.932 52.99C279.232 52.99 278.652 52.78 278.192 52.36C277.752 51.94 277.532 51.41 277.532 50.77C277.532 50.13 277.752 49.61 278.192 49.21C278.652 48.79 279.232 48.58 279.932 48.58C280.632 48.58 281.202 48.79 281.642 49.21C282.102 49.61 282.332 50.13 282.332 50.77C282.332 51.41 282.102 51.94 281.642 52.36C281.202 52.78 280.632 52.99 279.932 52.99ZM285.886 70V48.4H289.726V61.15L295.006 55.12H299.566L293.476 61.9L300.556 70H295.756L289.726 62.53V70H285.886ZM307.568 70.36C306.288 70.36 305.238 70.16 304.418 69.76C303.598 69.34 302.988 68.79 302.588 68.11C302.188 67.43 301.988 66.68 301.988 65.86C301.988 64.48 302.528 63.36 303.608 62.5C304.688 61.64 306.308 61.21 308.468 61.21H312.248V60.85C312.248 59.83 311.958 59.08 311.378 58.6C310.798 58.12 310.078 57.88 309.218 57.88C308.438 57.88 307.758 58.07 307.178 58.45C306.598 58.81 306.238 59.35 306.098 60.07H302.348C302.448 58.99 302.808 58.05 303.428 57.25C304.068 56.45 304.888 55.84 305.888 55.42C306.888 54.98 308.008 54.76 309.248 54.76C311.368 54.76 313.038 55.29 314.258 56.35C315.478 57.41 316.088 58.91 316.088 60.85V70H312.818L312.458 67.6C312.018 68.4 311.398 69.06 310.598 69.58C309.818 70.1 308.808 70.36 307.568 70.36ZM308.438 67.36C309.538 67.36 310.388 67 310.988 66.28C311.608 65.56 311.998 64.67 312.158 63.61H308.888C307.868 63.61 307.138 63.8 306.698 64.18C306.258 64.54 306.038 64.99 306.038 65.53C306.038 66.11 306.258 66.56 306.698 66.88C307.138 67.2 307.718 67.36 308.438 67.36ZM325.903 70.36C324.583 70.36 323.423 70.15 322.423 69.73C321.423 69.29 320.623 68.69 320.023 67.93C319.423 67.17 319.063 66.29 318.943 65.29H322.813C322.933 65.87 323.253 66.37 323.773 66.79C324.313 67.19 325.003 67.39 325.843 67.39C326.683 67.39 327.293 67.22 327.673 66.88C328.073 66.54 328.273 66.15 328.273 65.71C328.273 65.07 327.993 64.64 327.433 64.42C326.873 64.18 326.093 63.95 325.093 63.73C324.453 63.59 323.803 63.42 323.143 63.22C322.483 63.02 321.873 62.77 321.313 62.47C320.773 62.15 320.333 61.75 319.993 61.27C319.653 60.77 319.483 60.16 319.483 59.44C319.483 58.12 320.003 57.01 321.043 56.11C322.103 55.21 323.583 54.76 325.483 54.76C327.243 54.76 328.643 55.17 329.683 55.99C330.743 56.81 331.373 57.94 331.573 59.38H327.943C327.723 58.28 326.893 57.73 325.453 57.73C324.733 57.73 324.173 57.87 323.773 58.15C323.393 58.43 323.203 58.78 323.203 59.2C323.203 59.64 323.493 59.99 324.073 60.25C324.653 60.51 325.423 60.75 326.383 60.97C327.423 61.21 328.373 61.48 329.233 61.78C330.113 62.06 330.813 62.49 331.333 63.07C331.853 63.63 332.113 64.44 332.113 65.5C332.133 66.42 331.893 67.25 331.393 67.99C330.893 68.73 330.173 69.31 329.233 69.73C328.293 70.15 327.183 70.36 325.903 70.36ZM337.584 52.81C336.884 52.81 336.304 52.6 335.844 52.18C335.404 51.76 335.184 51.23 335.184 50.59C335.184 49.95 335.404 49.43 335.844 49.03C336.304 48.61 336.884 48.4 337.584 48.4C338.284 48.4 338.854 48.61 339.294 49.03C339.754 49.43 339.984 49.95 339.984 50.59C339.984 51.23 339.754 51.76 339.294 52.18C338.854 52.6 338.284 52.81 337.584 52.81ZM335.664 70V55.12H339.504V70H335.664Z" fill="black"/>
<path opacity="0.6" d="M51.036 90V80.2H54.48C55.1707 80.2 55.74 80.312 56.188 80.536C56.6453 80.7507 56.986 81.0493 57.21 81.432C57.434 81.8053 57.546 82.2253 57.546 82.692C57.546 83.3267 57.3733 83.826 57.028 84.19C56.692 84.554 56.286 84.806 55.81 84.946C56.174 85.0113 56.5053 85.156 56.804 85.38C57.1027 85.604 57.336 85.884 57.504 86.22C57.6813 86.556 57.77 86.9247 57.77 87.326C57.77 87.8207 57.6487 88.2733 57.406 88.684C57.1633 89.0853 56.804 89.4073 56.328 89.65C55.852 89.8833 55.2733 90 54.592 90H51.036ZM52.212 84.484H54.396C55.0213 84.484 55.502 84.3393 55.838 84.05C56.174 83.7513 56.342 83.3407 56.342 82.818C56.342 82.3233 56.174 81.9267 55.838 81.628C55.5113 81.3293 55.0167 81.18 54.354 81.18H52.212V84.484ZM52.212 89.02H54.466C55.138 89.02 55.656 88.866 56.02 88.558C56.384 88.2407 56.566 87.802 56.566 87.242C56.566 86.6913 56.3747 86.2527 55.992 85.926C55.6093 85.59 55.0913 85.422 54.438 85.422H52.212V89.02ZM61.9219 90.168C61.1005 90.168 60.4472 89.9207 59.9619 89.426C59.4765 88.922 59.2339 88.152 59.2339 87.116V83.056H60.4099V86.99C60.4099 88.4367 61.0025 89.16 62.1879 89.16C62.7945 89.16 63.2939 88.9453 63.6859 88.516C64.0872 88.0773 64.2879 87.4567 64.2879 86.654V83.056H65.4639V90H64.3999L64.3159 88.754C64.1012 89.1927 63.7792 89.538 63.3499 89.79C62.9299 90.042 62.4539 90.168 61.9219 90.168ZM69.7096 90.168C69.1309 90.168 68.6503 90.07 68.2676 89.874C67.8849 89.678 67.6003 89.4167 67.4136 89.09C67.2269 88.7633 67.1336 88.4087 67.1336 88.026C67.1336 87.3167 67.4043 86.7707 67.9456 86.388C68.4869 86.0053 69.2243 85.814 70.1576 85.814H72.0336V85.73C72.0336 85.1233 71.8749 84.666 71.5576 84.358C71.2403 84.0407 70.8156 83.882 70.2836 83.882C69.8263 83.882 69.4296 83.9987 69.0936 84.232C68.7669 84.456 68.5616 84.7873 68.4776 85.226H67.2736C67.3203 84.722 67.4883 84.2973 67.7776 83.952C68.0763 83.6067 68.4449 83.3453 68.8836 83.168C69.3223 82.9813 69.7889 82.888 70.2836 82.888C71.2543 82.888 71.9823 83.1493 72.4676 83.672C72.9623 84.1853 73.2096 84.8713 73.2096 85.73V90H72.1596L72.0896 88.754C71.8936 89.146 71.6043 89.482 71.2216 89.762C70.8483 90.0327 70.3443 90.168 69.7096 90.168ZM69.8916 89.174C70.3396 89.174 70.7223 89.0573 71.0396 88.824C71.3663 88.5907 71.6136 88.2873 71.7816 87.914C71.9496 87.5407 72.0336 87.1487 72.0336 86.738V86.724H70.2556C69.5649 86.724 69.0749 86.8453 68.7856 87.088C68.5056 87.3213 68.3656 87.6153 68.3656 87.97C68.3656 88.334 68.4963 88.628 68.7576 88.852C69.0283 89.0667 69.4063 89.174 69.8916 89.174ZM77.5264 90C76.8917 90 76.3924 89.846 76.0284 89.538C75.6644 89.23 75.4824 88.6747 75.4824 87.872V84.05H74.2784V83.056H75.4824L75.6364 81.39H76.6584V83.056H78.7024V84.05H76.6584V87.872C76.6584 88.3107 76.7471 88.6093 76.9244 88.768C77.1017 88.9173 77.4144 88.992 77.8624 88.992H78.5904V90H77.5264ZM83.9015 93.08V83.056H84.9655L85.0775 84.204C85.3015 83.868 85.6189 83.5647 86.0295 83.294C86.4495 83.0233 86.9815 82.888 87.6255 82.888C88.3162 82.888 88.9182 83.0467 89.4315 83.364C89.9449 83.6813 90.3415 84.1153 90.6215 84.666C90.9109 85.2167 91.0555 85.842 91.0555 86.542C91.0555 87.242 90.9109 87.8673 90.6215 88.418C90.3415 88.9593 89.9402 89.3887 89.4175 89.706C88.9042 90.014 88.3022 90.168 87.6115 90.168C87.0422 90.168 86.5335 90.0513 86.0855 89.818C85.6469 89.5847 85.3109 89.258 85.0775 88.838V93.08H83.9015ZM87.4855 89.146C87.9522 89.146 88.3629 89.0387 88.7175 88.824C89.0722 88.6 89.3522 88.292 89.5575 87.9C89.7629 87.508 89.8655 87.0507 89.8655 86.528C89.8655 86.0053 89.7629 85.548 89.5575 85.156C89.3522 84.764 89.0722 84.4607 88.7175 84.246C88.3629 84.022 87.9522 83.91 87.4855 83.91C87.0189 83.91 86.6082 84.022 86.2535 84.246C85.8989 84.4607 85.6189 84.764 85.4135 85.156C85.2082 85.548 85.1055 86.0053 85.1055 86.528C85.1055 87.0507 85.2082 87.508 85.4135 87.9C85.6189 88.292 85.8989 88.6 86.2535 88.824C86.6082 89.0387 87.0189 89.146 87.4855 89.146ZM95.8146 90.168C95.1519 90.168 94.5639 90.0187 94.0506 89.72C93.5372 89.412 93.1312 88.9873 92.8326 88.446C92.5432 87.9047 92.3986 87.2653 92.3986 86.528C92.3986 85.8 92.5432 85.1653 92.8326 84.624C93.1219 84.0733 93.5232 83.6487 94.0366 83.35C94.5592 83.042 95.1612 82.888 95.8426 82.888C96.5146 82.888 97.0932 83.042 97.5786 83.35C98.0732 83.6487 98.4512 84.0453 98.7126 84.54C98.9739 85.0347 99.1046 85.5667 99.1046 86.136C99.1046 86.2387 99.0999 86.3413 99.0906 86.444C99.0906 86.5467 99.0906 86.6633 99.0906 86.794H93.5606C93.5886 87.326 93.7099 87.7693 93.9246 88.124C94.1486 88.4693 94.4239 88.7307 94.7506 88.908C95.0866 89.0853 95.4412 89.174 95.8146 89.174C96.2999 89.174 96.7059 89.062 97.0326 88.838C97.3592 88.614 97.5972 88.3107 97.7466 87.928H98.9086C98.7219 88.572 98.3626 89.1087 97.8306 89.538C97.3079 89.958 96.6359 90.168 95.8146 90.168ZM95.8146 83.882C95.2546 83.882 94.7552 84.0547 94.3166 84.4C93.8872 84.736 93.6399 85.2307 93.5746 85.884H97.9426C97.9146 85.2587 97.6999 84.7687 97.2986 84.414C96.8972 84.0593 96.4026 83.882 95.8146 83.882ZM100.663 90V83.056H101.727L101.797 84.302C102.021 83.8633 102.343 83.518 102.763 83.266C103.183 83.014 103.659 82.888 104.191 82.888C105.013 82.888 105.666 83.14 106.151 83.644C106.646 84.1387 106.893 84.904 106.893 85.94V90H105.717V86.066C105.717 84.6193 105.12 83.896 103.925 83.896C103.328 83.896 102.829 84.1153 102.427 84.554C102.035 84.9833 101.839 85.5993 101.839 86.402V90H100.663ZM111.419 87.816C111.027 87.816 110.668 87.7647 110.341 87.662L109.641 88.32C109.744 88.3947 109.87 88.46 110.019 88.516C110.178 88.5627 110.402 88.6093 110.691 88.656C110.98 88.6933 111.386 88.7353 111.909 88.782C112.842 88.8473 113.51 89.062 113.911 89.426C114.312 89.79 114.513 90.266 114.513 90.854C114.513 91.2553 114.401 91.638 114.177 92.002C113.962 92.366 113.626 92.6647 113.169 92.898C112.721 93.1313 112.142 93.248 111.433 93.248C110.808 93.248 110.252 93.164 109.767 92.996C109.282 92.8373 108.904 92.59 108.633 92.254C108.362 91.9273 108.227 91.512 108.227 91.008C108.227 90.7467 108.297 90.462 108.437 90.154C108.577 89.8553 108.838 89.5707 109.221 89.3C109.016 89.216 108.838 89.1273 108.689 89.034C108.549 88.9313 108.418 88.8193 108.297 88.698V88.376L109.487 87.2C108.936 86.7333 108.661 86.1173 108.661 85.352C108.661 84.8947 108.768 84.4793 108.983 84.106C109.198 83.7327 109.51 83.4387 109.921 83.224C110.332 83 110.831 82.888 111.419 82.888C111.82 82.888 112.184 82.944 112.511 83.056H115.073V83.938L113.771 83.994C114.042 84.386 114.177 84.8387 114.177 85.352C114.177 85.8093 114.065 86.2247 113.841 86.598C113.626 86.9713 113.314 87.27 112.903 87.494C112.502 87.7087 112.007 87.816 111.419 87.816ZM111.419 86.85C111.914 86.85 112.306 86.724 112.595 86.472C112.894 86.2107 113.043 85.8373 113.043 85.352C113.043 84.876 112.894 84.512 112.595 84.26C112.306 83.9987 111.914 83.868 111.419 83.868C110.915 83.868 110.514 83.9987 110.215 84.26C109.926 84.512 109.781 84.876 109.781 85.352C109.781 85.8373 109.926 86.2107 110.215 86.472C110.514 86.724 110.915 86.85 111.419 86.85ZM109.375 90.896C109.375 91.3627 109.571 91.708 109.963 91.932C110.355 92.1653 110.845 92.282 111.433 92.282C112.012 92.282 112.474 92.156 112.819 91.904C113.174 91.652 113.351 91.316 113.351 90.896C113.351 90.5973 113.23 90.336 112.987 90.112C112.744 89.8973 112.296 89.7713 111.643 89.734C111.13 89.6967 110.686 89.65 110.313 89.594C109.93 89.7993 109.678 90.0187 109.557 90.252C109.436 90.4947 109.375 90.7093 109.375 90.896ZM118.71 90.168C118.131 90.168 117.65 90.07 117.268 89.874C116.885 89.678 116.6 89.4167 116.414 89.09C116.227 88.7633 116.134 88.4087 116.134 88.026C116.134 87.3167 116.404 86.7707 116.946 86.388C117.487 86.0053 118.224 85.814 119.158 85.814H121.034V85.73C121.034 85.1233 120.875 84.666 120.558 84.358C120.24 84.0407 119.816 83.882 119.284 83.882C118.826 83.882 118.43 83.9987 118.094 84.232C117.767 84.456 117.562 84.7873 117.478 85.226H116.274C116.32 84.722 116.488 84.2973 116.778 83.952C117.076 83.6067 117.445 83.3453 117.884 83.168C118.322 82.9813 118.789 82.888 119.284 82.888C120.254 82.888 120.982 83.1493 121.468 83.672C121.962 84.1853 122.21 84.8713 122.21 85.73V90H121.16L121.09 88.754C120.894 89.146 120.604 89.482 120.222 89.762C119.848 90.0327 119.344 90.168 118.71 90.168ZM118.892 89.174C119.34 89.174 119.722 89.0573 120.04 88.824C120.366 88.5907 120.614 88.2873 120.782 87.914C120.95 87.5407 121.034 87.1487 121.034 86.738V86.724H119.256C118.565 86.724 118.075 86.8453 117.786 87.088C117.506 87.3213 117.366 87.6153 117.366 87.97C117.366 88.334 117.496 88.628 117.758 88.852C118.028 89.0667 118.406 89.174 118.892 89.174ZM127.124 90.168C126.433 90.168 125.826 90.0093 125.304 89.692C124.79 89.3747 124.389 88.9407 124.1 88.39C123.82 87.8393 123.68 87.214 123.68 86.514C123.68 85.814 123.824 85.1933 124.114 84.652C124.403 84.1013 124.804 83.672 125.318 83.364C125.831 83.0467 126.438 82.888 127.138 82.888C127.707 82.888 128.211 83.0047 128.65 83.238C129.088 83.4713 129.429 83.798 129.672 84.218V79.92H130.848V90H129.784L129.672 88.852C129.448 89.188 129.126 89.4913 128.706 89.762C128.286 90.0327 127.758 90.168 127.124 90.168ZM127.25 89.146C127.716 89.146 128.127 89.0387 128.482 88.824C128.846 88.6 129.126 88.292 129.322 87.9C129.527 87.508 129.63 87.0507 129.63 86.528C129.63 86.0053 129.527 85.548 129.322 85.156C129.126 84.764 128.846 84.4607 128.482 84.246C128.127 84.022 127.716 83.91 127.25 83.91C126.792 83.91 126.382 84.022 126.018 84.246C125.663 84.4607 125.383 84.764 125.178 85.156C124.982 85.548 124.884 86.0053 124.884 86.528C124.884 87.0507 124.982 87.508 125.178 87.9C125.383 88.292 125.663 88.6 126.018 88.824C126.382 89.0387 126.792 89.146 127.25 89.146ZM135.075 90.168C134.496 90.168 134.015 90.07 133.633 89.874C133.25 89.678 132.965 89.4167 132.779 89.09C132.592 88.7633 132.499 88.4087 132.499 88.026C132.499 87.3167 132.769 86.7707 133.311 86.388C133.852 86.0053 134.589 85.814 135.523 85.814H137.399V85.73C137.399 85.1233 137.24 84.666 136.923 84.358C136.605 84.0407 136.181 83.882 135.649 83.882C135.191 83.882 134.795 83.9987 134.459 84.232C134.132 84.456 133.927 84.7873 133.843 85.226H132.639C132.685 84.722 132.853 84.2973 133.143 83.952C133.441 83.6067 133.81 83.3453 134.249 83.168C134.687 82.9813 135.154 82.888 135.649 82.888C136.619 82.888 137.347 83.1493 137.833 83.672C138.327 84.1853 138.575 84.8713 138.575 85.73V90H137.525L137.455 88.754C137.259 89.146 136.969 89.482 136.587 89.762C136.213 90.0327 135.709 90.168 135.075 90.168ZM135.257 89.174C135.705 89.174 136.087 89.0573 136.405 88.824C136.731 88.5907 136.979 88.2873 137.147 87.914C137.315 87.5407 137.399 87.1487 137.399 86.738V86.724H135.621C134.93 86.724 134.44 86.8453 134.151 87.088C133.871 87.3213 133.731 87.6153 133.731 87.97C133.731 88.334 133.861 88.628 134.123 88.852C134.393 89.0667 134.771 89.174 135.257 89.174ZM142.649 90.168C142.07 90.168 141.59 90.07 141.207 89.874C140.824 89.678 140.54 89.4167 140.353 89.09C140.166 88.7633 140.073 88.4087 140.073 88.026C140.073 87.3167 140.344 86.7707 140.885 86.388C141.426 86.0053 142.164 85.814 143.097 85.814H144.973V85.73C144.973 85.1233 144.814 84.666 144.497 84.358C144.18 84.0407 143.755 83.882 143.223 83.882C142.766 83.882 142.369 83.9987 142.033 84.232C141.706 84.456 141.501 84.7873 141.417 85.226H140.213C140.26 84.722 140.428 84.2973 140.717 83.952C141.016 83.6067 141.384 83.3453 141.823 83.168C142.262 82.9813 142.728 82.888 143.223 82.888C144.194 82.888 144.922 83.1493 145.407 83.672C145.902 84.1853 146.149 84.8713 146.149 85.73V90H145.099L145.029 88.754C144.833 89.146 144.544 89.482 144.161 89.762C143.788 90.0327 143.284 90.168 142.649 90.168ZM142.831 89.174C143.279 89.174 143.662 89.0573 143.979 88.824C144.306 88.5907 144.553 88.2873 144.721 87.914C144.889 87.5407 144.973 87.1487 144.973 86.738V86.724H143.195C142.504 86.724 142.014 86.8453 141.725 87.088C141.445 87.3213 141.305 87.6153 141.305 87.97C141.305 88.334 141.436 88.628 141.697 88.852C141.968 89.0667 142.346 89.174 142.831 89.174ZM147.913 90V83.056H148.977L149.047 84.302C149.271 83.8633 149.593 83.518 150.013 83.266C150.433 83.014 150.909 82.888 151.441 82.888C152.263 82.888 152.916 83.14 153.401 83.644C153.896 84.1387 154.143 84.904 154.143 85.94V90H152.967V86.066C152.967 84.6193 152.37 83.896 151.175 83.896C150.578 83.896 150.079 84.1153 149.677 84.554C149.285 84.9833 149.089 85.5993 149.089 86.402V90H147.913ZM162.78 90.168C162.089 90.168 161.483 90.0093 160.96 89.692C160.447 89.3747 160.045 88.9407 159.756 88.39C159.476 87.8393 159.336 87.214 159.336 86.514C159.336 85.814 159.481 85.1933 159.77 84.652C160.059 84.1013 160.461 83.672 160.974 83.364C161.487 83.0467 162.094 82.888 162.794 82.888C163.363 82.888 163.867 83.0047 164.306 83.238C164.745 83.4713 165.085 83.798 165.328 84.218V79.92H166.504V90H165.44L165.328 88.852C165.104 89.188 164.782 89.4913 164.362 89.762C163.942 90.0327 163.415 90.168 162.78 90.168ZM162.906 89.146C163.373 89.146 163.783 89.0387 164.138 88.824C164.502 88.6 164.782 88.292 164.978 87.9C165.183 87.508 165.286 87.0507 165.286 86.528C165.286 86.0053 165.183 85.548 164.978 85.156C164.782 84.764 164.502 84.4607 164.138 84.246C163.783 84.022 163.373 83.91 162.906 83.91C162.449 83.91 162.038 84.022 161.674 84.246C161.319 84.4607 161.039 84.764 160.834 85.156C160.638 85.548 160.54 86.0053 160.54 86.528C160.54 87.0507 160.638 87.508 160.834 87.9C161.039 88.292 161.319 88.6 161.674 88.824C162.038 89.0387 162.449 89.146 162.906 89.146ZM170.731 90.168C170.152 90.168 169.672 90.07 169.289 89.874C168.906 89.678 168.622 89.4167 168.435 89.09C168.248 88.7633 168.155 88.4087 168.155 88.026C168.155 87.3167 168.426 86.7707 168.967 86.388C169.508 86.0053 170.246 85.814 171.179 85.814H173.055V85.73C173.055 85.1233 172.896 84.666 172.579 84.358C172.262 84.0407 171.837 83.882 171.305 83.882C170.848 83.882 170.451 83.9987 170.115 84.232C169.788 84.456 169.583 84.7873 169.499 85.226H168.295C168.342 84.722 168.51 84.2973 168.799 83.952C169.098 83.6067 169.466 83.3453 169.905 83.168C170.344 82.9813 170.81 82.888 171.305 82.888C172.276 82.888 173.004 83.1493 173.489 83.672C173.984 84.1853 174.231 84.8713 174.231 85.73V90H173.181L173.111 88.754C172.915 89.146 172.626 89.482 172.243 89.762C171.87 90.0327 171.366 90.168 170.731 90.168ZM170.913 89.174C171.361 89.174 171.744 89.0573 172.061 88.824C172.388 88.5907 172.635 88.2873 172.803 87.914C172.971 87.5407 173.055 87.1487 173.055 86.738V86.724H171.277C170.586 86.724 170.096 86.8453 169.807 87.088C169.527 87.3213 169.387 87.6153 169.387 87.97C169.387 88.334 169.518 88.628 169.779 88.852C170.05 89.0667 170.428 89.174 170.913 89.174ZM175.995 90V83.056H177.059L177.129 84.302C177.353 83.8633 177.675 83.518 178.095 83.266C178.515 83.014 178.991 82.888 179.523 82.888C180.345 82.888 180.998 83.14 181.483 83.644C181.978 84.1387 182.225 84.904 182.225 85.94V90H181.049V86.066C181.049 84.6193 180.452 83.896 179.257 83.896C178.66 83.896 178.161 84.1153 177.759 84.554C177.367 84.9833 177.171 85.5993 177.171 86.402V90H175.995ZM187.712 90V83.056H188.776L188.874 84.386C189.089 83.9287 189.415 83.5647 189.854 83.294C190.293 83.0233 190.834 82.888 191.478 82.888V84.12H191.156C190.745 84.12 190.367 84.1947 190.022 84.344C189.677 84.484 189.401 84.7267 189.196 85.072C188.991 85.4173 188.888 85.8933 188.888 86.5V90H187.712ZM195.108 90.168C194.529 90.168 194.049 90.07 193.666 89.874C193.283 89.678 192.999 89.4167 192.812 89.09C192.625 88.7633 192.532 88.4087 192.532 88.026C192.532 87.3167 192.803 86.7707 193.344 86.388C193.885 86.0053 194.623 85.814 195.556 85.814H197.432V85.73C197.432 85.1233 197.273 84.666 196.956 84.358C196.639 84.0407 196.214 83.882 195.682 83.882C195.225 83.882 194.828 83.9987 194.492 84.232C194.165 84.456 193.96 84.7873 193.876 85.226H192.672C192.719 84.722 192.887 84.2973 193.176 83.952C193.475 83.6067 193.843 83.3453 194.282 83.168C194.721 82.9813 195.187 82.888 195.682 82.888C196.653 82.888 197.381 83.1493 197.866 83.672C198.361 84.1853 198.608 84.8713 198.608 85.73V90H197.558L197.488 88.754C197.292 89.146 197.003 89.482 196.62 89.762C196.247 90.0327 195.743 90.168 195.108 90.168ZM195.29 89.174C195.738 89.174 196.121 89.0573 196.438 88.824C196.765 88.5907 197.012 88.2873 197.18 87.914C197.348 87.5407 197.432 87.1487 197.432 86.738V86.724H195.654C194.963 86.724 194.473 86.8453 194.184 87.088C193.904 87.3213 193.764 87.6153 193.764 87.97C193.764 88.334 193.895 88.628 194.156 88.852C194.427 89.0667 194.805 89.174 195.29 89.174ZM201.086 81.516C200.853 81.516 200.657 81.4413 200.498 81.292C200.349 81.1333 200.274 80.9373 200.274 80.704C200.274 80.48 200.349 80.2933 200.498 80.144C200.657 79.9947 200.853 79.92 201.086 79.92C201.31 79.92 201.502 79.9947 201.66 80.144C201.819 80.2933 201.898 80.48 201.898 80.704C201.898 80.9373 201.819 81.1333 201.66 81.292C201.502 81.4413 201.31 81.516 201.086 81.516ZM200.498 90V83.056H201.674V90H200.498ZM203.722 90V79.92H204.898V84.246C205.131 83.8167 205.463 83.4853 205.892 83.252C206.321 83.0093 206.788 82.888 207.292 82.888C208.095 82.888 208.739 83.14 209.224 83.644C209.709 84.1387 209.952 84.904 209.952 85.94V90H208.79V86.066C208.79 84.6193 208.207 83.896 207.04 83.896C206.433 83.896 205.925 84.1153 205.514 84.554C205.103 84.9833 204.898 85.5993 204.898 86.402V90H203.722ZM215.439 90V79.92H216.615V85.982L219.457 83.056H220.899L217.819 86.192L221.291 90H219.793L216.615 86.402V90H215.439ZM225.109 90.168C224.447 90.168 223.859 90.0187 223.345 89.72C222.832 89.412 222.426 88.9873 222.127 88.446C221.838 87.9047 221.693 87.2653 221.693 86.528C221.693 85.8 221.838 85.1653 222.127 84.624C222.417 84.0733 222.818 83.6487 223.331 83.35C223.854 83.042 224.456 82.888 225.137 82.888C225.809 82.888 226.388 83.042 226.873 83.35C227.368 83.6487 227.746 84.0453 228.007 84.54C228.269 85.0347 228.399 85.5667 228.399 86.136C228.399 86.2387 228.395 86.3413 228.385 86.444C228.385 86.5467 228.385 86.6633 228.385 86.794H222.855C222.883 87.326 223.005 87.7693 223.219 88.124C223.443 88.4693 223.719 88.7307 224.045 88.908C224.381 89.0853 224.736 89.174 225.109 89.174C225.595 89.174 226.001 89.062 226.327 88.838C226.654 88.614 226.892 88.3107 227.041 87.928H228.203C228.017 88.572 227.657 89.1087 227.125 89.538C226.603 89.958 225.931 90.168 225.109 90.168ZM225.109 83.882C224.549 83.882 224.05 84.0547 223.611 84.4C223.182 84.736 222.935 85.2307 222.869 85.884H227.237C227.209 85.2587 226.995 84.7687 226.593 84.414C226.192 84.0593 225.697 83.882 225.109 83.882ZM232.492 90.168C231.671 90.168 231.018 89.9207 230.532 89.426C230.047 88.922 229.804 88.152 229.804 87.116V83.056H230.98V86.99C230.98 88.4367 231.573 89.16 232.758 89.16C233.365 89.16 233.864 88.9453 234.256 88.516C234.658 88.0773 234.858 87.4567 234.858 86.654V83.056H236.034V90H234.97L234.886 88.754C234.672 89.1927 234.35 89.538 233.92 89.79C233.5 90.042 233.024 90.168 232.492 90.168ZM237.97 90V83.056H239.034L239.104 84.302C239.328 83.8633 239.65 83.518 240.07 83.266C240.49 83.014 240.966 82.888 241.498 82.888C242.319 82.888 242.973 83.14 243.458 83.644C243.953 84.1387 244.2 84.904 244.2 85.94V90H243.024V86.066C243.024 84.6193 242.427 83.896 241.232 83.896C240.635 83.896 240.135 84.1153 239.734 84.554C239.342 84.9833 239.146 85.5993 239.146 86.402V90H237.97ZM248.726 90C248.091 90 247.592 89.846 247.228 89.538C246.864 89.23 246.682 88.6747 246.682 87.872V84.05H245.478V83.056H246.682L246.836 81.39H247.858V83.056H249.902V84.05H247.858V87.872C247.858 88.3107 247.946 88.6093 248.124 88.768C248.301 88.9173 248.614 88.992 249.062 88.992H249.79V90H248.726ZM253.93 90.168C253.108 90.168 252.455 89.9207 251.97 89.426C251.484 88.922 251.242 88.152 251.242 87.116V83.056H252.418V86.99C252.418 88.4367 253.01 89.16 254.196 89.16C254.802 89.16 255.302 88.9453 255.694 88.516C256.095 88.0773 256.296 87.4567 256.296 86.654V83.056H257.472V90H256.408L256.324 88.754C256.109 89.1927 255.787 89.538 255.358 89.79C254.938 90.042 254.462 90.168 253.93 90.168ZM259.407 90V83.056H260.471L260.541 84.302C260.765 83.8633 261.087 83.518 261.507 83.266C261.927 83.014 262.403 82.888 262.935 82.888C263.757 82.888 264.41 83.14 264.895 83.644C265.39 84.1387 265.637 84.904 265.637 85.94V90H264.461V86.066C264.461 84.6193 263.864 83.896 262.669 83.896C262.072 83.896 261.573 84.1153 261.171 84.554C260.779 84.9833 260.583 85.5993 260.583 86.402V90H259.407ZM270.163 87.816C269.771 87.816 269.412 87.7647 269.085 87.662L268.385 88.32C268.488 88.3947 268.614 88.46 268.763 88.516C268.922 88.5627 269.146 88.6093 269.435 88.656C269.724 88.6933 270.13 88.7353 270.653 88.782C271.586 88.8473 272.254 89.062 272.655 89.426C273.056 89.79 273.257 90.266 273.257 90.854C273.257 91.2553 273.145 91.638 272.921 92.002C272.706 92.366 272.37 92.6647 271.913 92.898C271.465 93.1313 270.886 93.248 270.177 93.248C269.552 93.248 268.996 93.164 268.511 92.996C268.026 92.8373 267.648 92.59 267.377 92.254C267.106 91.9273 266.971 91.512 266.971 91.008C266.971 90.7467 267.041 90.462 267.181 90.154C267.321 89.8553 267.582 89.5707 267.965 89.3C267.76 89.216 267.582 89.1273 267.433 89.034C267.293 88.9313 267.162 88.8193 267.041 88.698V88.376L268.231 87.2C267.68 86.7333 267.405 86.1173 267.405 85.352C267.405 84.8947 267.512 84.4793 267.727 84.106C267.942 83.7327 268.254 83.4387 268.665 83.224C269.076 83 269.575 82.888 270.163 82.888C270.564 82.888 270.928 82.944 271.255 83.056H273.817V83.938L272.515 83.994C272.786 84.386 272.921 84.8387 272.921 85.352C272.921 85.8093 272.809 86.2247 272.585 86.598C272.37 86.9713 272.058 87.27 271.647 87.494C271.246 87.7087 270.751 87.816 270.163 87.816ZM270.163 86.85C270.658 86.85 271.05 86.724 271.339 86.472C271.638 86.2107 271.787 85.8373 271.787 85.352C271.787 84.876 271.638 84.512 271.339 84.26C271.05 83.9987 270.658 83.868 270.163 83.868C269.659 83.868 269.258 83.9987 268.959 84.26C268.67 84.512 268.525 84.876 268.525 85.352C268.525 85.8373 268.67 86.2107 268.959 86.472C269.258 86.724 269.659 86.85 270.163 86.85ZM268.119 90.896C268.119 91.3627 268.315 91.708 268.707 91.932C269.099 92.1653 269.589 92.282 270.177 92.282C270.756 92.282 271.218 92.156 271.563 91.904C271.918 91.652 272.095 91.316 272.095 90.896C272.095 90.5973 271.974 90.336 271.731 90.112C271.488 89.8973 271.04 89.7713 270.387 89.734C269.874 89.6967 269.43 89.65 269.057 89.594C268.674 89.7993 268.422 90.0187 268.301 90.252C268.18 90.4947 268.119 90.7093 268.119 90.896ZM277.454 90.168C276.875 90.168 276.394 90.07 276.012 89.874C275.629 89.678 275.344 89.4167 275.158 89.09C274.971 88.7633 274.878 88.4087 274.878 88.026C274.878 87.3167 275.148 86.7707 275.69 86.388C276.231 86.0053 276.968 85.814 277.902 85.814H279.778V85.73C279.778 85.1233 279.619 84.666 279.302 84.358C278.984 84.0407 278.56 83.882 278.028 83.882C277.57 83.882 277.174 83.9987 276.838 84.232C276.511 84.456 276.306 84.7873 276.222 85.226H275.018C275.064 84.722 275.232 84.2973 275.522 83.952C275.82 83.6067 276.189 83.3453 276.628 83.168C277.066 82.9813 277.533 82.888 278.028 82.888C278.998 82.888 279.726 83.1493 280.212 83.672C280.706 84.1853 280.954 84.8713 280.954 85.73V90H279.904L279.834 88.754C279.638 89.146 279.348 89.482 278.966 89.762C278.592 90.0327 278.088 90.168 277.454 90.168ZM277.636 89.174C278.084 89.174 278.466 89.0573 278.784 88.824C279.11 88.5907 279.358 88.2873 279.526 87.914C279.694 87.5407 279.778 87.1487 279.778 86.738V86.724H278C277.309 86.724 276.819 86.8453 276.53 87.088C276.25 87.3213 276.11 87.6153 276.11 87.97C276.11 88.334 276.24 88.628 276.502 88.852C276.772 89.0667 277.15 89.174 277.636 89.174ZM282.718 90V83.056H283.782L283.852 84.302C284.076 83.8633 284.398 83.518 284.818 83.266C285.238 83.014 285.714 82.888 286.246 82.888C287.067 82.888 287.721 83.14 288.206 83.644C288.701 84.1387 288.948 84.904 288.948 85.94V90H287.772V86.066C287.772 84.6193 287.175 83.896 285.98 83.896C285.383 83.896 284.883 84.1153 284.482 84.554C284.09 84.9833 283.894 85.5993 283.894 86.402V90H282.718ZM290.73 90V83.056H291.794L291.864 84.302C292.088 83.8633 292.41 83.518 292.83 83.266C293.25 83.014 293.726 82.888 294.258 82.888C295.079 82.888 295.732 83.14 296.218 83.644C296.712 84.1387 296.96 84.904 296.96 85.94V90H295.784V86.066C295.784 84.6193 295.186 83.896 293.992 83.896C293.394 83.896 292.895 84.1153 292.494 84.554C292.102 84.9833 291.906 85.5993 291.906 86.402V90H290.73ZM299.292 93.08L301.014 89.328H300.608L297.85 83.056H299.124L301.42 88.46L303.856 83.056H305.074L300.524 93.08H299.292ZM308.188 90.168C307.609 90.168 307.129 90.07 306.746 89.874C306.363 89.678 306.079 89.4167 305.892 89.09C305.705 88.7633 305.612 88.4087 305.612 88.026C305.612 87.3167 305.883 86.7707 306.424 86.388C306.965 86.0053 307.703 85.814 308.636 85.814H310.512V85.73C310.512 85.1233 310.353 84.666 310.036 84.358C309.719 84.0407 309.294 83.882 308.762 83.882C308.305 83.882 307.908 83.9987 307.572 84.232C307.245 84.456 307.04 84.7873 306.956 85.226H305.752C305.799 84.722 305.967 84.2973 306.256 83.952C306.555 83.6067 306.923 83.3453 307.362 83.168C307.801 82.9813 308.267 82.888 308.762 82.888C309.733 82.888 310.461 83.1493 310.946 83.672C311.441 84.1853 311.688 84.8713 311.688 85.73V90H310.638L310.568 88.754C310.372 89.146 310.083 89.482 309.7 89.762C309.327 90.0327 308.823 90.168 308.188 90.168ZM308.37 89.174C308.818 89.174 309.201 89.0573 309.518 88.824C309.845 88.5907 310.092 88.2873 310.26 87.914C310.428 87.5407 310.512 87.1487 310.512 86.738V86.724H308.734C308.043 86.724 307.553 86.8453 307.264 87.088C306.984 87.3213 306.844 87.6153 306.844 87.97C306.844 88.334 306.975 88.628 307.236 88.852C307.507 89.0667 307.885 89.174 308.37 89.174ZM313.858 90.07C313.625 90.07 313.429 89.9953 313.27 89.846C313.121 89.6873 313.046 89.496 313.046 89.272C313.046 89.048 313.121 88.8613 313.27 88.712C313.429 88.5533 313.625 88.474 313.858 88.474C314.082 88.474 314.269 88.5533 314.418 88.712C314.577 88.8613 314.656 89.048 314.656 89.272C314.656 89.496 314.577 89.6873 314.418 89.846C314.269 89.9953 314.082 90.07 313.858 90.07Z" fill="black"/>
<defs>
<filter id="filter0_d_1792:2702" x="0" y="0" width="1028" height="437" filterUnits="userSpaceOnUse" color-interpolation-filters="sRGB">
<feFlood flood-opacity="0" result="BackgroundImageFix"/>
<feColorMatrix in="SourceAlpha" type="matrix" values="0 0 0 0 0 0 0 0 0 0 0 0 0 0 0 0 0 0 127 0" result="hardAlpha"/>
<feOffset/>
<feGaussianBlur stdDeviation="5"/>
<feColorMatrix type="matrix" values="0 0 0 0 0 0 0 0 0 0 0 0 0 0 0 0 0 0 0.25 0"/>
<feBlend mode="normal" in2="BackgroundImageFix" result="effect1_dropShadow_1792:2702"/>
<feBlend mode="normal" in="SourceGraphic" in2="effect1_dropShadow_1792:2702" result="shape"/>
</filter>
</defs>
</svg>
