<?xml version="1.0" encoding="utf-8"?>
<!-- Generator: Adobe Illustrator 23.0.5, SVG Export Plug-In . SVG Version: 6.00 Build 0)  -->
<svg version="1.1" id="Layer_1" xmlns="http://www.w3.org/2000/svg" xmlns:xlink="http://www.w3.org/1999/xlink" x="0px" y="0px"
	 viewBox="0 0 500 500" style="enable-background:new 0 0 500 500;" xml:space="preserve">
<style type="text/css">
	.st0{clip-path:url(#SVGID_2_);}
	.st1{fill:#08D8C2;}
	.st2{opacity:0.45;enable-background:new    ;}
	.st3{opacity:0.4;}
	.st4{opacity:0.25;enable-background:new    ;}
	.st5{fill:#263238;}
	.st6{opacity:0.2;enable-background:new    ;}
	.st7{opacity:0.7;fill:#FFFFFF;enable-background:new    ;}
	.st8{opacity:0.3;enable-background:new    ;}
	.st9{fill:#455A64;}
	.st10{fill:#37474F;}
	.st11{fill:#E0E0E0;}
	.st12{fill:#F5F5F5;}
	.st13{opacity:0.1;enable-background:new    ;}
	.st14{opacity:0.8;fill:#08D8C2;enable-background:new    ;}
	.st15{opacity:0.4;fill:#08D8C2;enable-background:new    ;}
	.st16{opacity:0.15;fill:#08D8C2;enable-background:new    ;}
	.st17{opacity:0.5;enable-background:new    ;}
	.st18{opacity:0.4;fill:#FFFFFF;enable-background:new    ;}
	.st19{fill:#E6E6E6;}
	.st20{fill:#FFA8A7;}
	.st21{opacity:0.65;fill:#FFFFFF;enable-background:new    ;}
	.st22{opacity:0.2;}
	.st23{fill:#FAFAFA;}
	.st24{opacity:0.4;enable-background:new    ;}
	.st25{opacity:0.18;enable-background:new    ;}
	.st26{opacity:0.15;}
	.st27{opacity:0.3;}
	.st28{fill:#F28F8F;}
	.st29{fill:#B16668;}
</style>
<g>
	<g>
		<g>
			<g>
				<defs>
					<ellipse id="SVGID_1_" cx="250" cy="359.4" rx="235.6" ry="125.9"/>
				</defs>
				<clipPath id="SVGID_2_">
					<use xlink:href="#SVGID_1_"  style="overflow:visible;"/>
				</clipPath>
				<g class="st0">
					<ellipse id="freepik--floor--inject-31" class="st1" cx="250" cy="359.4" rx="235.6" ry="125.9"/>
					<ellipse class="st2" cx="250" cy="359.4" rx="235.6" ry="125.9"/>
					<g id="freepik--Lines--inject-31" class="st3">
						<path class="st1" d="M-169.8,436.8v-1.1c89.3,0,180.1-0.3,268-0.5c188.7-0.5,383.8-1,575.6,0.5v1.1
							c-191.9-1.4-387-0.9-575.6-0.5C10.4,436.5-80.5,436.8-169.8,436.8z"/>
						<path class="st1" d="M-133.5,390.3v-1.1c81.3,0,164-0.2,244-0.4c172.7-0.4,351.3-0.9,526.9,0.4v1.1
							c-175.6-1.3-354.2-0.8-526.9-0.4C30.6,390-52.1,390.2-133.5,390.3z"/>
						<path class="st1" d="M-103.5,351.8v-1.1c74.7,0,150.6-0.2,224.1-0.4c159.6-0.4,324.6-0.8,486.9,0.4v1.1
							c-162.3-1.1-327.3-0.7-486.9-0.4C47.2,351.6-28.8,351.8-103.5,351.8z"/>
						<path class="st1" d="M-78.7,320v-1.1c69.2,0,139.4-0.2,207.4-0.3c148.8-0.3,302.6-0.7,453.9,0.3v1.1
							c-151.3-1-305.1-0.6-453.9-0.3C60.8,319.8-9.5,320-78.7,320z"/>
						<path class="st1" d="M-57.8,293.3v-1.1c64.4,0,129.9-0.1,193.3-0.3c139.7-0.3,284.2-0.6,426.3,0.3v1.1
							c-142.1-0.8-286.6-0.5-426.3-0.3C72.1,293.1,6.6,293.2-57.8,293.3z"/>
						<path class="st1" d="M-39.7,271.9v-1.1c60.5,0,122-0.1,181.4-0.2c131.8-0.2,268-0.5,402,0.2v1.1c-134-0.7-270.2-0.5-402-0.2
							C82.3,271.8,20.8,271.9-39.7,271.9z"/>
						<path class="st1" d="M-23.2,254.5v-1.1c56.8,0,114.6-0.1,170.5-0.2c124.5-0.2,253.3-0.4,379.9,0.2v1.1
							c-126.6-0.5-255.4-0.4-379.9-0.2C91.4,254.4,33.7,254.4-23.2,254.5z"/>
						<path class="st1" d="M-7.1,240.3v-1.1c53.3,0,107.5-0.1,160-0.1c117.4-0.1,238.8-0.3,358.2,0.1v1.1
							c-119.4-0.4-240.8-0.3-358.2-0.1C100.5,240.2,46.3,240.3-7.1,240.3z"/>
						<path class="st1" d="M634.8,492.2c-12.7-19.8-25.5-39.6-38.2-59.4c-20.1-31.1-41.7-64.6-68-105.4
							c-18.2-28.2-36.5-56.3-54.7-84.4L460,221.6l1-0.6l13.8,21.4l54.7,84.5c26.3,40.7,48,74.2,68,105.4
							c12.8,19.8,25.5,39.6,38.2,59.4L634.8,492.2z"/>
						<path class="st1" d="M545.1,491.8c-24.5-49.1-49.6-98.7-73.9-146.6c-20.6-40.6-41.8-82.6-62.5-123.9l1-0.5
							c20.7,41.3,42,83.3,62.5,123.9c24.3,47.9,49.4,97.5,73.9,146.6L545.1,491.8z"/>
						<path class="st1" d="M463.9,491.6c-10.2-28.7-20.5-57.4-30.7-86.2c-21.5-60.4-43.7-122.8-65.9-184l1.1-0.4
							c22.2,61.2,44.4,123.6,65.9,184c10.3,28.8,20.5,57.5,30.7,86.2L463.9,491.6z"/>
						<path class="st1" d="M376.6,491.5c-4.1-19.8-8.3-39.6-12.4-59.3c-6.5-31.3-13.5-64.9-22-105.7l-17.9-86.3l-3.9-19.1l1.1-0.2
							l4,19.1l17.9,86.3c8.5,40.8,15.5,74.4,22,105.7c4.1,19.8,8.3,39.6,12.4,59.3L376.6,491.5z"/>
						<path class="st1" d="M288.8,491.5c-1.7-30.9-3.7-62.5-5.7-93c-3.7-58.1-7.5-118.3-9.7-177h1.1c2.2,58.7,6,118.8,9.7,177
							c1.9,30.5,3.9,62.1,5.7,93H288.8z"/>
						<path class="st1" d="M202.3,491.7l-1.1-0.1c7.2-86,15.3-178.2,25.4-270.4l1.1,0.1C217.6,313.5,209.6,405.7,202.3,491.7z"/>
						<path class="st1" d="M115.4,492l-1.1-0.3c1.8-6.3,3.2-12.8,4.3-19.2c0.9-5,1.8-10.1,3.2-15.3c11.4-43.8,21.8-87,31.8-128.9
							c8.4-34.9,17.1-71.1,26.2-106.9l1.1,0.3c-9.1,35.8-17.8,72-26.2,106.9c-10,41.9-20.4,85.1-31.8,128.9
							c-1.3,5.2-2.2,10.3-3.1,15.2C118.7,479.2,117.2,485.6,115.4,492z"/>
						<path class="st1" d="M29.9,492.2l-1.1-0.4c5.4-16.5,11.7-32.7,17.7-48.5c4.1-10.6,8.3-21.5,12.3-32.6
							c7-17.9,14.1-36,20.9-53.6c17.4-44.7,35.3-90.8,53.8-136.2l1.1,0.4c-18.5,45.3-36.4,91.5-53.8,136.2
							c-6.8,17.5-13.8,35.6-20.9,53.5c-4,11.1-8.2,22-12.3,32.6C41.5,459.5,35.3,475.8,29.9,492.2z"/>
						<path class="st1" d="M-48.8,492.5l-1-0.5C-1.7,398.6,49,303.1,92.7,220.8l1,0.5C50,303.6-0.7,399.2-48.8,492.5z"/>
						<path class="st1" d="M-135,492.7l-0.9-0.6c33.2-51.3,67.5-103.1,100.6-153.2c25.5-38.6,51.8-78.5,77.6-117.9l1,0.6
							C17.4,261-8.9,300.9-34.4,339.4C-67.5,389.6-101.8,441.4-135,492.7z"/>
					</g>
				</g>
			</g>
		</g>
	</g>
	<g id="freepik--Shadows--inject-31">
		<path id="freepik--Shadow--inject-31" class="st4" d="M355.5,400.8c6.9-3.7,18-3.7,24.6,0s6.7,9.6,0,13.3s-17.7,3.7-24.6,0
			S348.5,404.5,355.5,400.8z"/>
		<ellipse id="freepik--shadow--inject-31" class="st4" cx="142.6" cy="401.8" rx="72" ry="41.6"/>
		<path class="st4" d="M413.8,366l25.4-14.7c2.7-1.6,2.7-4.1,0-5.7l-101.3-58.5c-3.1-1.6-6.8-1.6-9.9,0l-92,53.1
			c-2.7,1.6-2.7,4.1,0,5.7l101.3,58.5c3.1,1.6,6.8,1.6,9.9,0l30.1-17.4l0,0l37.4,21.7l36.2-20.9L413.8,366z"/>
	</g>
	<g id="freepik--Arcade--inject-31">
		<g id="freepik--arcade--inject-31">
			<path class="st5" d="M424.2,74.9c0.1-1.5-0.6-2.9-1.9-3.8c0,0-88.4-45.8-89.4-46.4s-2.5-0.5-4.1,0.4L258,66.1
				c-1.7,1.1-3.2,2.5-4.3,4.3l-0.1,0.1c-0.3,0.4-0.5,0.9-0.8,1.3c0,0,0,0,0,0.1c-0.5,0.9-0.8,1.9-1.1,2.9c-0.1,0.5-0.2,0.9-0.3,1.4
				l-4.1,40.5c-0.2,1.9,0.3,3.2,1.3,3.8l1.5,0.9c0.1,0.1,0.2,0.1,0.3,0.2c0.6,0.3,1.3,0.7,2,1.2c0.2,0.1,0.4,0.2,0.6,0.3l0.5,0.3
				l2.4,1.4c0,0,0,0,0.1,0l0,0l0.2,0.1l0.3,0.2l0,0l0,0c0.5,0.2,1,0.2,1.6,0.1c0.3-0.1,0.6-0.2,0.8-0.3l3.9-2.3l13.2,7.6l-0.8,5.8
				l-1.3,9.7l-4.6,34.6c-0.8,4.2-3.1,8-6.4,10.6l-35.7,25.4c-3.3,2.6-5.5,6.5-6,10.7l-1.8,31.7c-0.2,2,0.7,3.9,2.4,5l27,15.6
				l-2.1,59.5c-0.1,1.9,0.6,3.2,1.6,3.8l93.3,53.9c1.4,0.6,3,0.5,4.2-0.4l76.2-44c3.4-2.2,5.5-6,5.7-10L424.2,74.9z"/>
			<path class="st1" d="M289.8,191.4c6.3,4.9,12.9,9.4,19.8,13.4c8.9,5,18.1,9.5,27.5,13.6c3.4,1.5,6.5-0.4,6.9-4.1
				c0.5-5.4,1.2-12.2,1.7-19.3c0.5-7,0.9-14.4,1.1-19.6c0.2-3.7-2.1-8.6-5.1-10.8c-6.8-4.8-13.9-9.3-21.2-13.3
				c-9.9-5.6-18.4-9.7-23.8-12.2c-2.7-1.4-6.1-0.4-7.5,2.3c-0.2,0.4-0.4,0.9-0.5,1.4c-1.8,7.2-3,14.6-3.5,22
				c-0.4,6.5-0.5,11.3-0.5,15.6C284.7,184.6,286.6,188.5,289.8,191.4z"/>
			<path class="st6" d="M346.7,175.3c0.2-3.7-2.1-8.6-5.1-10.8c-6.8-4.8-13.9-9.3-21.2-13.3c-9.9-5.6-18.4-9.7-23.8-12.2
				c-2.7-1.4-6.1-0.4-7.5,2.3c-0.2,0.4-0.4,0.9-0.5,1.4c-0.7,2.8-1.5,6.3-2.1,10.1l59.6,34.4C346.3,182.8,346.5,178.6,346.7,175.3z"
				/>
			<path class="st1" d="M255.3,343.7l2.1-72.1c0-0.9-0.1-1.8-0.4-2.6c-0.9-2.4-3.4-3.7-5.9-3.2l-1.4,0.2l-0.4,0.1
				c0.1,0.4,0.1,0.8,0.1,1.3l-2.5,71.5c-0.1,1.9,0.5,3.2,1.6,3.8s7.6,4.4,8.4,4.9C255.9,346.9,255.3,345.5,255.3,343.7z"/>
			<path class="st7" d="M255.3,343.7l2.1-72.1c0-0.9-0.1-1.8-0.4-2.6c-0.9-2.4-3.4-3.7-5.9-3.2l-1.4,0.2l-0.4,0.1
				c0.1,0.4,0.1,0.8,0.1,1.3l-2.5,71.5c-0.1,1.9,0.5,3.2,1.6,3.8s7.6,4.4,8.4,4.9C255.9,346.9,255.3,345.5,255.3,343.7z"/>
			<path class="st8" d="M257,269c-0.9-2.4-3.4-3.7-5.9-3.2l-1.4,0.2l-0.4,0.1c0.1,0.4,0.1,0.8,0.1,1.3l-0.9,27.8l8.2,4.7l0.8-28.2
				C257.5,270.7,257.3,269.8,257,269z"/>
			<path class="st9" d="M309.4,277.7l-1.9,32.5c-0.2,1.5,0.4,3,1.6,3.8c-1.2-0.7-86.8-50.1-87.1-50.3c-1.7-1.1-2.6-3-2.4-5l1.8-31.7
				c0.2-2.1,0.9-4.1,1.9-5.9l88,50.8C310.3,273.7,309.6,275.7,309.4,277.7z"/>
			<path class="st10" d="M355.1,236.8c-1,1.8-2.4,3.5-4,4.8L315.4,267c-1.7,1.3-3.1,2.9-4,4.8l-88-50.8c1-1.9,2.3-3.5,4-4.8
				l35.7-25.4c1.7-1.3,3.1-2.9,4.1-4.7L355.1,236.8z"/>
			<path class="st1" d="M285.9,115.6c0-0.4,0-0.8-0.1-1.2c-0.3-2.4-2.6-3-5.2-1.5l-2.3,1.2l-8.8,66.2c-0.8,4.2-3.1,8-6.4,10.6
				l-35.7,25.4c-3.3,2.6-5.5,6.5-6,10.7l-1.8,31.7c-0.2,2,0.7,4,2.5,5.1c0.9,0.5,6.5,3.7,7.5,4.4c-0.4-0.2-0.7-0.5-1-0.9
				c-0.9-1.1-1.2-2.5-1.1-3.9l1.8-31.8c0.5-4.2,2.7-8,6-10.7l34.8-24.8c0,0,1-0.7,1-0.7c2.8-2.4,4.8-5.5,5.9-9
				c0.2-0.6,0.3-1.1,0.4-1.7l7.9-62C285.4,122.3,286.1,115.5,285.9,115.6z"/>
			<path class="st7" d="M285.9,115.6c0-0.4,0-0.8-0.1-1.2c-0.3-2.4-2.6-3-5.2-1.5l-2.3,1.2l-8.8,66.2c-0.8,4.2-3.1,8-6.4,10.6
				l-35.7,25.4c-3.3,2.6-5.5,6.5-6,10.7l-1.8,31.7c-0.2,2,0.7,4,2.5,5.1c0.9,0.5,6.5,3.7,7.5,4.4c-0.4-0.2-0.7-0.5-1-0.9
				c-0.9-1.1-1.2-2.5-1.1-3.9l1.8-31.8c0.5-4.2,2.7-8,6-10.7l34.8-24.8c0,0,1-0.7,1-0.7c2.8-2.4,4.8-5.5,5.9-9
				c0.2-0.6,0.3-1.1,0.4-1.7l7.9-62C285.4,122.3,286.1,115.5,285.9,115.6z"/>
			<path class="st6" d="M285.4,122.6l-1.5,12l-2,15.5l-7.8-4.5l1.3-9.7l0.8-5.8l2.2-16.2l2.3-1.2c2.5-1.5,4.9-0.9,5.2,1.5
				c0.1,0.4,0.1,0.8,0.1,1.2C286.1,115.5,285.4,122.3,285.4,122.6z"/>
			<path class="st9" d="M334.1,123.8l-3.3,42.5c-0.1,0.9,0.4,1.8,1.1,2.3l-6.1-3.6l-0.9-6.7l-41-23.7l-7.7-4.4l-13.2-7.6l-6.2-3.6
				l-1.8,1.6l-2.4,2.1c-0.8-0.5-1.5-0.9-2-1.2c-0.1-0.1-0.2-0.1-0.3-0.2l-1.5-0.9c-1-0.6-1.5-1.9-1.3-3.8l4.1-40.5
				c0.1-0.5,0.1-1,0.3-1.4c0.3-1,0.7-2,1.1-2.9c0,0,0,0,0-0.1c0.2-0.4,0.5-0.9,0.8-1.3l0.1-0.1l82.5,47.6
				C335,119.7,334.3,121.7,334.1,123.8z"/>
			<path class="st1" d="M355.7,160.6l-1.8,0.7l-4.7,63.4c0,0-0.1,1.7-0.1,1.8c-0.7,3.7-2.5,7.1-5.1,9.8c-0.3,0.3-0.7,0.6-1,0.8
				l-35.6,25.4c-3.3,2.6-5.5,6.5-6,10.7l-1.9,32.4c-0.2,1.5,0.4,3,1.6,3.9c0,0,7.2,4.1,8,4.6c-1.2-0.9-1.8-2.3-1.6-3.8l1.9-32.5
				c0.5-4.2,2.7-8,6-10.7l35.7-25.5c3.3-2.6,5.5-6.5,6-10.7l4.6-65.8C361.9,161.4,359.2,159.4,355.7,160.6z"/>
			<path class="st7" d="M355.7,160.6l-1.8,0.7l-4.7,63.4c0,0-0.1,1.7-0.1,1.8c-0.7,3.7-2.5,7.1-5.1,9.8c-0.3,0.3-0.7,0.6-1,0.8
				l-35.6,25.4c-3.3,2.6-5.5,6.5-6,10.7l-1.9,32.4c-0.2,1.5,0.4,3,1.6,3.9c0,0,7.2,4.1,8,4.6c-1.2-0.9-1.8-2.3-1.6-3.8l1.9-32.5
				c0.5-4.2,2.7-8,6-10.7l35.7-25.5c3.3-2.6,5.5-6.5,6-10.7l4.6-65.8C361.9,161.4,359.2,159.4,355.7,160.6z"/>
			<path class="st1" d="M339.9,392.8l-2.1-81c-0.1-3.7-3-5.7-6.5-4.4l-1.5,0.6c0,0.8,0.1,2.4,0.1,2.4l1.6,77.6
				c0,1.9,0.7,3.2,1.8,3.8l8.4,4.9C340.5,395.7,339.8,394.2,339.9,392.8z"/>
			<path class="st7" d="M339.9,392.8l-2.1-81c-0.1-3.7-3-5.7-6.5-4.4l-1.5,0.6c0,0.8,0.1,2.4,0.1,2.4l1.6,77.6
				c0,1.9,0.7,3.2,1.8,3.8l8.4,4.9C340.5,395.7,339.8,394.2,339.9,392.8z"/>
			<path class="st8" d="M337.8,311.7c-0.1-3.7-3-5.7-6.5-4.4l-1.5,0.6c0,0.8,0.1,2.4,0.1,2.4l0.6,32.1l8.2,4.7L337.8,311.7z"/>
			<path class="st6" d="M355.7,160.6l-1.8,0.7l-2.2,29.1l7.8,4.5l2.1-29.9C361.9,161.4,359.2,159.4,355.7,160.6z"/>
			<path class="st10" d="M424.1,75.1c0.1-1.5-0.6-2.9-1.8-3.8c-1.4-0.7-3-0.5-4.3,0.4l-77.6,42.1c-3.5,2.3-5.8,6-6.4,10.1l-3.3,42.5
				c-0.1,1,0.4,1.9,1.3,2.4c0.6,0.4,1.4,0.4,2.1,0.2l21.6-8.2c3.5-1.3,6.1,0.7,5.9,4.4L357,231c-0.5,4.2-2.7,8-6,10.7l-35.7,25.5
				c-3.3,2.6-5.5,6.5-6,10.7l-1.9,32.5c-0.2,1.5,0.4,3,1.7,3.8c1.1,0.6,2.4,0.6,3.5,0.1l18.5-6.8c3.5-1.3,6.4,0.7,6.5,4.4l2.1,81
				c-0.3,2,1.1,3.9,3.1,4.2c1,0.2,2.1-0.1,2.9-0.8l76.2-44c3.4-2.2,5.5-6,5.6-10.1L424.1,75.1z"/>
			<path class="st9" d="M422.3,71.2c-1.1-0.6-2.6-0.6-4.3,0.4l-77.6,42.1c-1.7,1.1-3.2,2.6-4.3,4.3l-82.5-47.6
				c1.1-1.7,2.6-3.2,4.3-4.3l70.7-40.8c1.6-0.9,3.1-1,4.1-0.4S421,70.4,422.3,71.2z"/>
			<path class="st1" d="M336.2,118l-7.2-4.2l-67.5-39l0,0l-7.8-4.5c-1.2,1.7-2,3.7-2.3,5.8l-4.1,40.5c-0.2,1.9,0.3,3.2,1.2,3.8
				s7.5,4.3,7.5,4.3l0,0c-0.9-0.5-1.3-2.1-1.1-4.2l4.2-37.6l67.2,38.8l-2.4,40.1c-0.1,1,0.3,2.1,1.1,2.8c0.5,0.3,6.3,3.7,6.7,3.9
				c-0.7-0.6-1-1.4-1.1-2.2l3.3-42.5C334.3,121.7,335.1,119.7,336.2,118z"/>
			<path class="st7" d="M259.2,83l67.2,38.8l-2.4,40.1c-0.1,1,0.3,2.1,1.1,2.8c0.5,0.3,6.3,3.7,6.7,3.9c-0.7-0.6-1-1.4-1.1-2.2
				l3.3-42.5c0.2-2.1,1-4.1,2.1-5.8l-7.2-4.2l-67.5-39l0,0l-7.8-4.5c-1.2,1.7-2,3.7-2.3,5.8l-4.1,40.5c-0.2,1.9,0.3,3.2,1.2,3.8
				s7.5,4.3,7.5,4.3l0,0c-0.9-0.5-1.3-2.1-1.1-4.2L259.2,83z"/>
			<path class="st11" d="M289,293.8c-1.1,0-2.1-0.3-3-0.9l-43.3-25c-3.6-2.4-5.8-6.4-5.7-10.7l0.7-11c-0.2-2.5,1.7-4.7,4.1-4.9
				c1.1-0.1,2.3,0.2,3.1,0.9l43.2,25c3.6,2.4,5.8,6.4,5.8,10.8l-0.7,11c0,1.8-0.9,3.4-2.4,4.3C290.3,293.6,289.7,293.8,289,293.8z
				 M242,242.7c-0.4,0-0.9,0.1-1.3,0.3c-1.1,0.7-1.7,1.9-1.7,3.2l-0.7,11c0,3.8,1.9,7.4,5.1,9.5l43.3,25c1.3,1.2,3.4,1,4.5-0.3
				c0.6-0.7,0.9-1.6,0.8-2.5l0.7-11c0-3.8-1.9-7.4-5.1-9.5l-43.3-25C243.6,243,242.8,242.7,242,242.7z"/>
			<path class="st1" d="M273.6,123.1v0.3c0,0.4-0.1,0.5-0.5,0.3l-1.5-0.8c-0.3-0.2-0.6-0.5-0.7-0.9c-0.2-0.4-0.4-0.9-0.4-1.4
				l-0.1-2.8l-1.2-0.7l-0.1,2.7c0,0.9-0.6,1.3-1.1,1l-1.5-0.8c-0.3-0.1-0.5-0.5-0.5-0.8c0-0.1,0-0.2,0-0.3l1.7-25.5
				c0-0.6,0.2-0.8,0.7-0.5l2.9,1.7c0.4,0.3,0.6,0.6,0.6,1.3L273.6,123.1z M269.8,98.3l-0.5,15.1l1,0.6L269.8,98.3z"/>
			<path class="st1" d="M283.1,128.6c0,0.7-0.1,0.8-0.5,0.5l-1.4-0.8c-0.3-0.2-0.6-0.5-0.7-0.9c-0.2-0.4-0.3-0.8-0.3-1.3v-8.3
				c0-0.5-0.3-1.1-0.7-1.4l-0.7-0.4v9.2c0,0.3-0.1,0.7-0.3,0.9c-0.2,0.2-0.5,0.2-0.7,0.1l-1.4-0.8c-0.4-0.3-0.5-0.5-0.5-1.2V97.9
				c0-0.7,0.1-0.8,0.5-0.5l3.2,1.9c1.2,0.7,2.1,1.8,2.7,3c0.6,1.2,1,2.6,1,4v7.7c0,1.4-0.4,2.2-1.3,2.4c0.9,0.9,1.3,2.1,1.3,3.4
				L283.1,128.6z M278.7,102.6v9.6l0.8,0.4c0.4,0.2,0.7-0.2,0.7-0.7v-7.6c0-0.5-0.3-1.1-0.7-1.4L278.7,102.6z"/>
			<path class="st1" d="M292.2,107.5c0.6,1.2,1,2.5,1,3.9v7.2c0,0.5-0.2,0.7-0.5,0.5l-1.5-0.9c-0.6-0.4-1-1-1-1.7v-6.6
				c0-0.6-0.3-1.1-0.7-1.4c-0.4-0.2-0.7,0.1-0.7,0.6v19.2c0,0.5,0.3,1,0.7,1.4c0.4,0.3,0.7-0.1,0.7-0.6v-6.6c0-0.7,0.5-0.9,1-0.6
				l1.5,0.9c0.4,0.2,0.6,0.6,0.5,1.1v7.2c0.1,1-0.3,2.1-1,2.8c-0.9,0.5-2,0.4-2.7-0.2c-1.2-0.7-2.1-1.7-2.7-2.9c-0.7-1.2-1-2.6-1-4
				v-19.6c-0.1-1,0.3-2.1,1-2.8c0.9-0.5,2-0.4,2.8,0.2C290.7,105.2,291.6,106.3,292.2,107.5z"/>
			<path class="st1" d="M302.9,140.1v0.3c0,0.4-0.1,0.5-0.5,0.3l-1.5-0.9c-0.3-0.2-0.6-0.5-0.7-0.9c-0.2-0.4-0.4-0.9-0.4-1.4
				l-0.1-2.8l-1.2-0.7l-0.1,2.7c0,0.9-0.6,1.3-1.1,1l-1.5-0.9c-0.3-0.1-0.5-0.5-0.5-0.8c0-0.1,0-0.2,0-0.3l1.7-25.5
				c0-0.6,0.2-0.8,0.7-0.5l2.9,1.7c0.4,0.3,0.6,0.6,0.6,1.3L302.9,140.1z M299.1,115.3l-0.5,15.1l1,0.6L299.1,115.3z"/>
			<path class="st1" d="M305.6,142.4c-0.5-0.3-0.6-0.5-0.6-1.2v-26.4c0-0.7,0.1-0.8,0.5-0.6l3.2,1.9c1.2,0.7,2.1,1.7,2.7,2.9
				c0.6,1.2,1,2.6,1,4v18.5c0.1,1-0.2,2.1-1,2.8c-0.9,0.5-2,0.4-2.7-0.2L305.6,142.4z M308,140l0.8,0.4c0.4,0.2,0.7-0.1,0.7-0.6
				v-18.5c0-0.5-0.3-1.1-0.7-1.4l-0.7-0.4V140z"/>
			<path class="st1" d="M320.2,122.8c0.4,0.3,0.6,0.7,0.6,1.2v0.7c0,1.4-0.5,2-1.3,1.6l-1.5-0.9v8.4l1.8,1c0.4,0.3,0.6,0.7,0.6,1.2
				v0.7c0,1.4-0.5,2.1-1.3,1.6l-1-0.6v8.1l1.5,0.9c0.9,0.7,1.4,1.9,1.3,3.1v0.7c0,0.6-0.2,0.7-0.6,0.5l-4.7-2.7
				c-0.4-0.3-0.6-0.5-0.6-1.2v-26.4c0-0.7,0.1-0.8,0.5-0.6L320.2,122.8z"/>
			<path d="M263,122.6l-4.2-2.4l0.4-3.9l3.5-31.2l-3.5-2l-3.3,29.7l-0.7,6.1l0,0l-0.4,3.2c-0.2,1.6,0.9,3,2.5,3.1
				c0.6,0.1,1.2-0.1,1.7-0.4l0,0L263,122.6z"/>
			<path class="st11" d="M274.1,307.7v25c0.1,2.1,1.2,3.9,2.9,5.1l32.6,18.8c1.6,0.9,2.9,0.2,2.9-1.7v-25c-0.1-2.1-1.2-4-2.9-5.1
				L277.1,306C275.4,305.1,274.1,305.8,274.1,307.7z"/>
			<path class="st8" d="M312.6,332.1v-2.2c-0.1-2.1-1.2-4-2.9-5.1L277.1,306c-1.6-0.9-2.9-0.2-2.9,1.7v2.2L312.6,332.1z"/>
			<path class="st9" d="M309.2,327.2c0.7,0.4,1.1,1.2,1.1,2c0,0.7-0.5,1-1.1,0.6c-0.7-0.4-1.1-1.2-1.1-2
				C308.1,327.1,308.6,326.8,309.2,327.2z"/>
			<path class="st9" d="M309.2,351c0.7,0.4,1.1,1.2,1.1,2c0,0.7-0.5,1-1.1,0.6c-0.7-0.4-1.1-1.2-1.1-2
				C308.1,351,308.6,350.7,309.2,351z"/>
			<path class="st9" d="M277.2,308.5c0.7,0.4,1.1,1.2,1.1,2c0,0.7-0.5,1-1.1,0.7c-0.7-0.4-1.1-1.2-1.2-2
				C276.1,308.4,276.6,308.1,277.2,308.5z"/>
			<path class="st9" d="M277.2,332.4c0.7,0.4,1.1,1.2,1.1,2c0,0.7-0.5,1-1.1,0.6c-0.7-0.4-1.1-1.2-1.2-2
				C276.1,332.3,276.6,332,277.2,332.4z"/>
			<path class="st9" d="M288.9,325.6l2,1.1c1,0.7,1.7,1.8,1.8,3v2.3c0,1.1-0.8,1.6-1.8,1l-2-1.1c-1-0.7-1.7-1.8-1.8-3v-2.3
				C287.2,325.5,288,325,288.9,325.6z"/>
			<path class="st9" d="M298.2,331.6v5c0,0.4,0.2,0.8,0.6,1l0.2,0.1c0.3,0.2,0.6,0,0.6-0.3v-5c0-0.4-0.2-0.8-0.6-1l-0.2-0.1
				C298.4,331.1,298.2,331.2,298.2,331.6z"/>
			<path class="st9" d="M295.3,330v5c0,0.4,0.2,0.8,0.6,1l0.2,0.1c0.3,0.2,0.6,0,0.6-0.3v-5c0-0.4-0.2-0.8-0.6-1l-0.2-0.1
				C295.6,329.4,295.3,329.6,295.3,330z"/>
			<path class="st1" d="M264.6,221.3c-1-0.2-2-0.2-3,0h-3.5v2.7l0,0c0.1,0.9,0.6,1.6,1.5,2c2.2,1.1,4.8,1.1,7,0
				c0.8-0.4,1.4-1.1,1.5-2l0,0v-2.7H264.6z"/>
			<path class="st6" d="M264.6,221.3c-1-0.2-2-0.2-3,0h-3.5v2.7l0,0c0.1,0.9,0.6,1.6,1.5,2c2.2,1.1,4.8,1.1,7,0
				c0.8-0.4,1.4-1.1,1.5-2l0,0v-2.7H264.6z"/>
			<path class="st1" d="M259.6,223.3c2.2,1.1,4.8,1.1,7,0c1.9-1.1,1.9-3,0-4.1c-2.2-1.1-4.8-1.1-7,0
				C257.7,220.4,257.7,222.2,259.6,223.3z"/>
			<path class="st1" d="M281.1,211.9c-1-0.2-2-0.2-3,0h-3.5v2.7l0,0c0.1,0.9,0.6,1.6,1.5,2c2.2,1.1,4.8,1.1,7,0
				c0.8-0.4,1.4-1.1,1.5-2l0,0v-2.7H281.1z"/>
			<path class="st6" d="M281.1,211.9c-1-0.2-2-0.2-3,0h-3.5v2.7l0,0c0.1,0.9,0.6,1.6,1.5,2c2.2,1.1,4.8,1.1,7,0
				c0.8-0.4,1.4-1.1,1.5-2l0,0v-2.7H281.1z"/>
			<path class="st1" d="M276.1,213.9c2.2,1.1,4.8,1.1,7,0c1.9-1.1,1.9-2.9,0-4.1c-2.2-1.1-4.8-1.1-7,0
				C274.2,211,274.2,212.8,276.1,213.9z"/>
			<path class="st1" d="M315.2,239.1l-10.6-6.1c-1.8-0.9-4-0.9-5.9,0l-10.6,6.1c-0.7,0.3-1.1,0.9-1.2,1.7v1.6
				c0.1,0.7,0.5,1.4,1.2,1.6l10.6,6.1c1.8,0.9,4,0.9,5.9,0l10.6-6.2c0.7-0.3,1.1-0.9,1.2-1.6c0-0.3,0-1.3,0-1.6
				C316.3,240.1,315.9,239.4,315.2,239.1z"/>
			<path class="st1" d="M288,242.5l10.6,6.1c1.8,0.9,4,0.9,5.9,0l10.6-6.1c1.6-0.9,1.6-2.4,0-3.4l-10.6-6.1c-1.8-0.9-4-0.9-5.9,0
				l-10.6,6.1C286.4,240.1,286.4,241.6,288,242.5z"/>
			<path class="st7" d="M288,242.5l10.6,6.1c1.8,0.9,4,0.9,5.9,0l10.6-6.1c1.6-0.9,1.6-2.4,0-3.4l-10.6-6.1c-1.8-0.9-4-0.9-5.9,0
				l-10.6,6.1C286.4,240.1,286.4,241.6,288,242.5z"/>
			<path class="st12" d="M302.3,225c-0.4-0.1-0.8-0.1-1.2,0h-1.4v14.6l0,0c0,0.4,0.3,0.7,0.6,0.8c0.9,0.5,1.9,0.5,2.8,0
				c0.3-0.1,0.6-0.5,0.6-0.8l0,0V225H302.3z"/>
			<path class="st13" d="M301.1,225h-1.4v2.7c1.3,0.5,2.7,0.5,4-0.1V225h-1.4C301.9,224.9,301.5,224.9,301.1,225z"/>
			<path class="st1" d="M306.7,221.4c0,2.8-2.3,5.1-5.1,5.1c-2.8,0-5.1-2.3-5.1-5.1c0-2.8,2.3-5.1,5.1-5.1l0,0
				C304.4,216.3,306.7,218.6,306.7,221.4C306.7,221.4,306.7,221.4,306.7,221.4z"/>
			<path class="st13" d="M301.7,223.4c-3.1-0.8-4.4-3.9-3.3-6c-2.2,1.8-2.5,5-0.8,7.1s5,2.5,7.1,0.8c1.2-1,1.9-2.4,1.9-4
				C306.8,222.3,304.9,224.2,301.7,223.4z"/>
			<polygon class="st14" points="426.6,250.6 426,210.3 338.6,343.8 339.7,383.4 			"/>
			<path class="st15" d="M426.6,250.6l-86.9,132.8l0.3,9.4c-0.3,2,1.1,3.9,3.1,4.2c1,0.2,2.1-0.1,2.9-0.8l7.8-4.5L427,279.8
				L426.6,250.6z"/>
			<polygon class="st16" points="427.2,296.9 427,279.8 353.7,391.6 372.1,381 			"/>
			<path id="freepik--skate-shadow--inject-31" class="st6" d="M427.8,342l-0.8-57l-8,3l-38.1,14v74l41.3-23.8
				C425.6,349.9,427.7,346.1,427.8,342z"/>
		</g>
	</g>
	<g id="freepik--Skateboard--inject-31">
		<g id="freepik--skateboard--inject-31">
			<path class="st10" d="M418.5,381.2l-2.7-10.1c-0.1-0.5,0.1-1,0.6-1.3l9.4-3.8c0.5-0.2,1.1-0.1,1.6,0.1l0.1,0.1l0,0
				c0.2,0.1,0.4,0.3,0.5,0.5c0.2,0.3,0.3,0.5,0.4,0.8l3,11l-10.3,4.1c-0.3,0.1-0.6,0.1-0.9,0.1c-0.2,0-0.5-0.1-0.7-0.2l-0.1-0.1
				C419,382.2,418.6,381.7,418.5,381.2z"/>
			<path class="st9" d="M420.3,382.8l-2.9-10.6c-0.2-0.6,0.1-1.2,0.7-1.4l9.1-3.6c0.5-0.2,1,0,1.2,0.5c0,0.1,0,0.1,0.1,0.2l2.9,10.9
				l-10.3,4.1C420.9,382.9,420.6,382.9,420.3,382.8z"/>
			<path class="st10" d="M443,378.7c1.5,0.5,4.2-0.7,5.2-2s1-3.1,0.2-6.2s-1.7-4.5-3.2-4.8c-1.9-0.1-3.8,0.7-5.1,2.1
				c-0.5,2-0.5,4,0,6C440.6,375.7,441.6,377.3,443,378.7z"/>
			<path class="st9" d="M440.1,373.8c-0.8-3-0.7-5.8,0.2-6.2s2.4,1.8,3.2,4.8s0.7,5.8-0.2,6.2S441,376.9,440.1,373.8z"/>
			<path class="st1" d="M425.9,380.9l16.3-6.5c0.5-0.2-0.2-2.7-0.7-2.5l-8.3,3.3c-4.8,1.9-5.4-3.2-9.4-1.7s-1.9,6.2-6.8,8.1
				l-8.2,3.3l0.7,2.5L425.9,380.9z"/>
			<path class="st10" d="M423,378c-0.3-1.1,0.3-2.3,1.3-2.7c0.9-0.4,1.9,0.1,2.3,1c0,0.1,0.1,0.2,0.1,0.3c0.3,1.1-0.3,2.3-1.3,2.7
				c-0.9,0.4-1.9-0.1-2.3-1C423.1,378.2,423,378.1,423,378z"/>
			<path class="st5" d="M406.8,393.1c1.5,0.5,4.2-0.7,5.2-2s1-3.1,0.2-6.2s-1.6-4.5-3.2-4.8c-1.9-0.1-3.8,0.7-5.1,2.1
				c-0.5,2-0.5,4,0,6C404.4,390.1,405.4,391.8,406.8,393.1z"/>
			<path class="st9" d="M403.9,388.3c-0.8-3-0.7-5.8,0.2-6.2s2.4,1.8,3.2,4.8s0.7,5.8-0.2,6.2S404.7,391.3,403.9,388.3z"/>
			<path class="st10" d="M399,308.3l-2.7-10.1c-0.1-0.5,0.1-1,0.6-1.3l9.3-3.7c0.5-0.2,1.1-0.2,1.6,0.1l0.1,0.1l0,0
				c0.2,0.1,0.4,0.3,0.5,0.5c0.2,0.3,0.3,0.5,0.4,0.8l2.7,10c0.2,0.6-0.1,1.2-0.7,1.4l-9.3,3.7c-0.3,0.1-0.6,0.1-0.9,0.1
				c-0.2,0-0.5-0.1-0.7-0.2l-0.1-0.1C399.5,309.4,399.2,308.9,399,308.3z"/>
			<path class="st9" d="M400.5,309.2l-2.6-9.8c-0.2-0.6,0.1-1.2,0.7-1.4l9.1-3.6c0.5-0.2,1,0,1.2,0.5c0,0,0,0.1,0,0.2l2.6,9.8
				c0.2,0.6-0.1,1.2-0.7,1.4l-9.1,3.6c-0.5,0.2-1,0-1.2-0.5C400.6,309.3,400.5,309.2,400.5,309.2z"/>
			<path class="st10" d="M417.6,284c1.2-1.5,3.2-2.4,5.1-2.2c1.4,0.4,2.4,1.8,3.2,4.8s0.9,4.8-0.2,6.2c-1.4,1.4-3.2,2.1-5.2,2
				c-1.4-1.3-2.3-3-2.9-4.8C417.2,288,417.2,286,417.6,284z"/>
			<path class="st9" d="M417.7,289.9c0.8,3,2.2,5.2,3.2,4.8s1-3.1,0.2-6.2s-2.2-5.2-3.2-4.8S416.9,286.9,417.7,289.9z"/>
			<path class="st1" d="M402.7,294.5L419,288c0.5-0.2,1.2,2.3,0.7,2.5l-8.2,3.3c-4.8,1.9-2.8,6.5-6.8,8.1s-4.5-3.6-9.4-1.7l-8.3,3.3
				l-0.7-2.5L402.7,294.5z"/>
			<path class="st10" d="M401.9,299c0.2,0.9,1.1,1.6,2.1,1.3c0.1,0,0.2-0.1,0.3-0.1c1.1-0.5,1.6-1.6,1.3-2.7
				c-0.2-0.9-1.1-1.6-2.1-1.3c-0.1,0-0.2,0.1-0.3,0.1C402.1,296.7,401.6,297.9,401.9,299z"/>
			<path class="st10" d="M381.4,298.5c1.2-1.5,3.2-2.4,5.1-2.2c1.4,0.4,2.4,1.8,3.2,4.8s0.9,4.8-0.2,6.2c-1.4,1.4-3.2,2.1-5.2,2
				c-1.4-1.3-2.3-3-2.9-4.8C381,302.5,380.9,300.4,381.4,298.5z"/>
			<path class="st9" d="M381.4,304.4c0.8,3,2.2,5.2,3.2,4.8s1-3.1,0.2-6.2s-2.2-5.2-3.2-4.8S380.6,301.4,381.4,304.4z"/>
			<path class="st1" d="M450.8,385.9l-4.8-8.3c-2.1-3.5-2.6-7.8-3.2-11.8c-2.4-15.8-9-57.3-14-69.1c-4.5-10.6-11.7-22.5-19.2-26.8
				c-3.7-3-7.5-4.3-11.2-2.8l0,0c-10.2,4.1-10.3,33.6-9,42.5c3.2,22.7,15.9,54.7,21.2,67.4c1.5,3.7,2.3,7.6,2.2,11.6l-1.2,16.7
				c-0.1,0.6,0.1,1.2,0.6,1.6c0.4,0.3,2.2,1.5,2.6,1.8c0.6,0.3,1.2,0.3,1.7-0.1l33.3-19.1c1.3-0.7,1.8-2.3,1.2-3.7
				C450.8,386,450.8,386,450.8,385.9z"/>
			<path class="st17" d="M450.8,385.9l-4.8-8.3c-2.1-3.5-2.6-7.8-3.2-11.8c-2.4-15.8-9-57.3-14-69.1c-4.5-10.6-11.7-22.5-19.2-26.8
				c-3.7-3-7.5-4.3-11.2-2.8l0,0c-10.2,4.1-10.3,33.6-9,42.5c3.2,22.7,15.9,54.7,21.2,67.4c1.5,3.7,2.3,7.6,2.2,11.6l-1.2,16.7
				c-0.1,0.6,0.1,1.2,0.6,1.6c0.4,0.3,2.2,1.5,2.6,1.8c0.6,0.3,1.2,0.3,1.7-0.1l33.3-19.1c1.3-0.7,1.8-2.3,1.2-3.7
				C450.8,386,450.8,386,450.8,385.9z"/>
			<path class="st1" d="M400.9,268.9c10.2-4.1,21.6,13.1,27.9,27.8c5,11.8,11.6,53.3,14,69.1c0.6,4.1,1.1,8.3,3.2,11.8l4.8,8.3
				c0.8,1.3,0.3,3-1,3.7c0,0-0.1,0.1-0.1,0.1l-33.3,19.1c-1.4,0.7-2.5,0-2.4-1.5l1.2-16.7c0.1-4-0.6-8-2.2-11.6
				c-5.3-12.7-18-44.7-21.2-67.4C390.6,302.5,390.7,273,400.9,268.9L400.9,268.9z"/>
			<path class="st4" d="M400.9,268.9c10.2-4.1,21.6,13.1,27.9,27.8c5,11.8,11.6,53.3,14,69.1c0.6,4.1,1.1,8.3,3.2,11.8l4.8,8.3
				c0.8,1.3,0.3,3-1,3.7c0,0-0.1,0.1-0.1,0.1l-33.3,19.1c-1.4,0.7-2.5,0-2.4-1.5l1.2-16.7c0.1-4-0.6-8-2.2-11.6
				c-5.3-12.7-18-44.7-21.2-67.4C390.6,302.5,390.7,273,400.9,268.9L400.9,268.9z"/>
			<path class="st1" d="M451.1,387.5c-3.4-2.9-13.9-12.4-18.3-21.9c-3.9-8.6-11.9-49.2-14.7-87.5c-0.3-0.3-0.5-0.7-0.8-1.1
				c-5.2-6.3-11-10.2-16.4-8l0,0c-5.4,2.1-7.9,11.3-9,20.9c14.4,27.1,27.7,69.9,29.3,78.1s-5.2,34.2-7,40.6c0.4,0.6,1.2,0.8,2.1,0.3
				l33.3-19.1C450.5,389.3,451.1,388.5,451.1,387.5z"/>
			<path class="st18" d="M451.1,387.5c-3.4-2.9-13.9-12.4-18.3-21.9c-3.9-8.6-11.9-49.2-14.7-87.5c-0.3-0.3-0.5-0.7-0.8-1.1
				c-5.2-6.3-11-10.2-16.4-8l0,0c-5.4,2.1-7.9,11.3-9,20.9c14.4,27.1,27.7,69.9,29.3,78.1s-5.2,34.2-7,40.6c0.4,0.6,1.2,0.8,2.1,0.3
				l33.3-19.1C450.5,389.3,451.1,388.5,451.1,387.5z"/>
		</g>
	</g>
	<g id="freepik--Soda--inject-31">
		<g id="freepik--soda--inject-31">
			<g id="freepik--Coffe--inject-31">
				<path class="st1" d="M352.3,364.6h30.9l-3.1,40.6l0,0c-0.1,1.5-1.3,2.9-3.5,4.1c-4.7,2.4-12.5,2.4-17.4,0
					c-2.3-1.1-3.5-2.6-3.6-4.1l0,0L352.3,364.6z"/>
				<path class="st19" d="M350.8,364.6v-6.4h3.5c0.5-0.3,1-0.6,1.5-0.8c6.7-3.2,17.4-3.2,23.9,0c0.5,0.3,1,0.5,1.5,0.8h3.4v6.4l0,0
					c0,2.1-1.6,4.2-4.9,5.8c-6.5,3.2-17.2,3.2-23.9,0C352.5,368.8,350.8,366.7,350.8,364.6z"/>
				<path class="st12" d="M355.9,352.5c6.7-3.2,17.4-3.2,23.9,0s6.5,8.4,0,11.5s-17.2,3.2-23.9,0S349.2,355.6,355.9,352.5z"/>
			</g>
			<path class="st8" d="M354.6,395.2c10.5,0.9,22.6-6,27.3-15.5l0.5-5.8c-4.4,10.1-17.2,17.5-28.1,16.4L354.6,395.2z"/>
			<path class="st6" d="M354.9,398.5c10.2,0.7,21.9-5.8,26.8-14.9l0.3-3.9c-4.7,9.5-16.8,16.4-27.3,15.5L354.9,398.5z"/>
			<path class="st13" d="M355.1,401.1c10,0.6,21.3-5.6,26.3-14.5l0.2-3c-4.9,9.1-16.5,15.6-26.8,14.9L355.1,401.1z"/>
			<path class="st10" d="M366.1,357.4c1.1-0.5,2.2-0.5,3.3,0c0.9,0.4,0.9,1.1,0,1.6c-1.1,0.4-2.2,0.4-3.3,0
				C365.1,358.6,365.1,357.9,366.1,357.4z"/>
			<path class="st10" d="M364.3,334.4l-4.6,3.5l1.3,2.3l4.4-3.3c0.5-0.4,1.2,0,1.2,0.8l0.1,20.7h2.1v-21
				C368.7,334.6,366.2,332.9,364.3,334.4z"/>
			<path class="st5" d="M360.8,338.6c0.3,0.6,0.4,1.3,0.1,1.5s-0.8-0.1-1.1-0.7s-0.4-1.3-0.1-1.5S360.5,337.9,360.8,338.6z"/>
		</g>
	</g>
	<g id="freepik--Lightnings--inject-31">
		<g id="freepik--lightnings--inject-31">
			<polygon class="st1" points="50.3,70.8 77.2,86.8 67.4,94.7 85.7,107.6 73.1,115 97.7,135.6 60.8,114.9 71.3,106 49.3,95.4 
				63.5,85.7 			"/>
			<polygon class="st1" points="96.7,107.6 85,94 91.7,83.9 73.5,66.9 101.4,81.8 90.8,94 			"/>
		</g>
	</g>
	<g id="freepik--Character--inject-31">
		<g id="freepik--character--inject-31">
			<path class="st20" d="M111.3,152.4c-4.4,1.5-9.4,1.1-14.7,12.3s-11.9,23.3-13.3,28.1s1.3,9.5,8,9.4s17.7,0.3,17.7,0.3
				L111.3,152.4z"/>
			<path class="st10" d="M117.5,152.1c-3-0.9-7.7-0.5-11.4,1.1s-7.5,4-11.6,13.1c-4,8.9-8.7,18.9-8.7,18.9
				c0.7,6.3,14.2,15.1,23.6,12.3l8.9-43.3L117.5,152.1z"/>
			<path class="st5" d="M156.2,173.8l-0.9-0.5c3.5-6.3,3.9-11.7,1.1-15c-2.5-3.1-7.6-3.9-12.9-2.2l-0.3-0.9c5.7-1.8,11.2-0.8,14,2.6
				C159,159.8,161.2,164.7,156.2,173.8z"/>
			<path class="st5" d="M126.3,374.4c0.4,2,1.3,3.6-1.1,8.3c-1.9,3.7-4.8,5.3-6.6,6.6c-2.1,1.6-3.9,3.5-5.5,5.5
				c-1.6,2.3-3.5,4.3-5.7,6c-1.7,1.3-6.3,1-8.4-0.1s-2.8-3-2.3-6.5s11.1-3.7,11.1-3.7L126.3,374.4z"/>
			<path class="st20" d="M97,354.5l1.8,32.4c0.1,1.9,10.6,3.9,12.7-0.6c0.2-3.4,0.6-6.7,1.2-10c0.7-3.3,1.8-9,1.8-9
				c0.9-6.8,1.3-11.8,1.3-11.8L97,354.5z"/>
			<path class="st20" d="M145.7,367.5c0,0,6.1,29.8,6.3,31.4s4.9,2.5,8.3,2.3s5.4-1.9,5.3-2.6l-0.4-32L145.7,367.5z"/>
			<path class="st1" d="M139.7,327.8c0,0-0.6-5.8-4.7-23c-2.8-12-5.3-24.9-5.3-24.9s-3.7,15.8-5.6,28.2c-1.4,9-2.9,17.5-5.7,34.7
				c-1.1,7.6-2.7,15-4.6,22.4c-6.5,3.8-16.4,0.1-16.4,0.1s-0.8-10.4-1.2-23.3c-0.5-16.7,2.9-23.4,2.9-23.4s0.5-22.5,0.6-39.2
				c0-23.6-1.5-45.5,3.3-64.1c0.8-0.3,48.6-25.7,51.1,5.4c0.6,7.7,4.1,28,5.3,44.4c2,27.8,3.9,49.4,4.3,58.9
				c0.5,9.1,1,17.7,1.4,34.7c0.2,7.4,0,13.8,0,13.8c-6.1,4.4-19.6-0.2-19.6-0.2s-0.9-7.3-3.1-17.6
				C138.5,336.9,139.7,327.8,139.7,327.8z"/>
			<path class="st21" d="M139.7,327.8c0,0-0.6-5.8-4.7-23c-2.8-12-5.3-24.9-5.3-24.9s-3.7,15.8-5.6,28.2c-1.4,9-2.9,17.5-5.7,34.7
				c-1.1,7.6-2.7,15-4.6,22.4c-6.5,3.8-16.4,0.1-16.4,0.1s-0.8-10.4-1.2-23.3c-0.5-16.7,2.9-23.4,2.9-23.4s0.5-22.5,0.6-39.2
				c0-23.6-1.5-45.5,3.3-64.1c0.8-0.3,48.6-25.7,51.1,5.4c0.6,7.7,4.1,28,5.3,44.4c2,27.8,3.9,49.4,4.3,58.9
				c0.5,9.1,1,17.7,1.4,34.7c0.2,7.4,0,13.8,0,13.8c-6.1,4.4-19.6-0.2-19.6-0.2s-0.9-7.3-3.1-17.6
				C138.5,336.9,139.7,327.8,139.7,327.8z"/>
			<g class="st22">
				<path d="M135.8,259c-0.2,0-0.5-0.1-0.7-0.2c-0.9-0.5-9.6-6.6-9.6-8.8v-0.7c0-4.9,0.2-9.8,0.7-14.7v-0.5l21.5,0.7v0.5
					c0,0.6,0.2,13.9-0.9,16.4c-1,2.2-6.8,5.9-9.7,6.9C136.7,258.9,136.3,259,135.8,259z M127.2,235.2c-0.5,4.7-0.7,9.4-0.6,14.1v0.7
					c0,1.2,7.2,6.9,9.1,7.9c0,0,0.3,0.1,1.3-0.2c2.9-1,8.2-4.5,9.1-6.4s0.9-11.4,0.8-15.5L127.2,235.2z"/>
			</g>
			<g class="st22">
				<path d="M99.5,254.4l-0.2-1c3.6-1.9,8.7-5,9.1-6c0.4-1.2,1.1-9.7,1.3-13.4c-1.1-0.2-4.4-0.9-9.4-1.8l0.2-1
					c6.2,1.1,9.8,1.9,9.9,1.9l0.4,0.1v0.4c-0.1,1.3-0.8,12.5-1.4,14.1S101,253.6,99.5,254.4z"/>
			</g>
			<path class="st1" d="M165.3,364.2v2.4c0,0-1.8,2.6-10,3.1s-10.5-1.6-10.5-1.6l-0.3-2c-1.3,0.4-1,1.9,0,5.8s1.9,7.2,2.7,8
				s5.4,2,10.2,1.6s7.9-2.5,8.7-3.7s0.9-5.9,1-8.4S166.7,364.2,165.3,364.2z"/>
			<path class="st1" d="M116.5,353.3l-0.5,2.4c0,0-1.8,2.2-10,1.8s-9.3-2.6-9.3-2.6l-0.1-1.9c-1.7,0.3-2.1,1.7-1.5,5.7
				s1.1,7.3,1.9,8.1s5.1,2.5,10,2.6s7.1-1.5,8-2.6s1.6-6.2,2-8.7S117.9,353.5,116.5,353.3z"/>
			<path class="st6" d="M129.7,279.9l-4.4-18.3c-4.9-2.1-8.6-6.4-10.1-11.6c0,0-0.3,8.5,7.2,12.5l5.3,17.4l-1.3,15.3L129.7,279.9z"
				/>
			<path class="st5" d="M194.2,416.7c0.5,2.9-0.6,5.4-4.3,7.5s-9.6,2.7-15.8,0.8s-9-4.7-11.6-5.4s-8.9-0.9-11.4-1.7
				s-2.4-3.1-2.4-6.1L194.2,416.7z"/>
			<path class="st1" d="M148.9,397.6c0.2,0.9,0.4,1.8,0.5,2.8c0.2,1,0.2,2,0,3c-0.3,1-0.5,2-0.7,3.1c-0.2,1.2-0.3,2.4-0.3,3.7
				c0,1.1,0.3,2.1,0.9,3c1.1,1.2,2.5,2,4.1,2.3c1.7,0.3,3.4,0.5,5.1,0.5c3.5,0,8.8,2.5,12.5,4.6s7.9,2.3,12,1.9
				c4.8-0.5,9.8-3.1,10.6-5.1s1-3.4-10.1-8.5c-2.6-1.2-5.3-2.3-7.9-3.7c-1.6-0.9-3.2-1.7-4.7-2.7c-0.9-0.5-1.8-1.1-2.5-1.8
				c-0.6-0.8-1-1.8-1-2.8c0-1.1,0.1-2.1,0.4-3.1c0.2-1.4,0.4-2.8,0.5-4.2c0.1-0.5,0-1-0.1-1.5c-0.4-1-1.8-1.1-2.7-1v1.9
				c-0.6,1-1.9,1-3,1.2c-1.1,0.1-2.2,0.5-3.1,1.2c-0.9,0.9-0.9,2.2-1,3.5c0,0.9-0.3,4-1.9,2.3c-0.3-0.4-0.5-0.8-0.6-1.2
				c-0.5-1.9-0.9-4-2.6-5c-0.7-0.4-2.5-0.6-3.1-1.2l-0.6-2.9c-0.8,0.2-1.5,0.8-1.9,1.5c-0.3,0.9-0.4,1.9-0.3,2.9
				c0.2,1.2,0.4,2.4,0.8,3.5C148.6,396.2,148.8,396.9,148.9,397.6z"/>
			<g class="st3">
				<path d="M148.9,397.6c0.2,0.9,0.4,1.8,0.5,2.8c0.2,1,0.2,2,0,3c-0.3,1-0.5,2-0.7,3.1c-0.2,1.2-0.3,2.4-0.3,3.7
					c0,1.1,0.3,2.1,0.9,3c1.1,1.2,2.5,2,4.1,2.3c1.7,0.3,3.4,0.5,5.1,0.5c3.5,0,8.8,2.5,12.5,4.6s7.9,2.3,12,1.9
					c4.8-0.5,9.8-3.1,10.6-5.1s1-3.4-10.1-8.5c-2.6-1.2-5.3-2.3-7.9-3.7c-1.6-0.9-3.2-1.7-4.7-2.7c-0.9-0.5-1.8-1.1-2.5-1.8
					c-0.6-0.8-1-1.8-1-2.8c0-1.1,0.1-2.1,0.4-3.1c0.2-1.4,0.4-2.8,0.5-4.2c0.1-0.5,0-1-0.1-1.5c-0.4-1-1.8-1.1-2.7-1v1.9
					c-0.6,1-1.9,1-3,1.2c-1.1,0.1-2.2,0.5-3.1,1.2c-0.9,0.9-0.9,2.2-1,3.5c0,0.9-0.3,4-1.9,2.3c-0.3-0.4-0.5-0.8-0.6-1.2
					c-0.5-1.9-0.9-4-2.6-5c-0.7-0.4-2.5-0.6-3.1-1.2l-0.6-2.9c-0.8,0.2-1.5,0.8-1.9,1.5c-0.3,0.9-0.4,1.9-0.3,2.9
					c0.2,1.2,0.4,2.4,0.8,3.5C148.6,396.2,148.8,396.9,148.9,397.6z"/>
			</g>
			<path class="st23" d="M172.7,421.4c0,0,1.2-9.6,9.1-12.2c7.1-2.4,13.2,3,12.4,7.6C193.7,419.8,184.9,426.6,172.7,421.4z"/>
			<path class="st23" d="M179.8,407.3c-2,0.1-3.9,0.9-5.4,2.3c-2.3,1.9-2.4,3.1-2.4,3.1c-0.5,0.5-1.2,0.4-1.7,0
				c-0.2-0.3-0.4-0.6-0.3-1c0,0,0.6-4.9,7.1-5.7C178.2,405.8,179.3,406.3,179.8,407.3z"/>
			<path class="st23" d="M175.4,405c-2,0-3.9,0.7-5.4,2c-2.3,1.9-2.4,3.4-2.4,3.4c-0.5,0.5-1.2,0.4-1.7,0c-0.2-0.3-0.4-0.6-0.3-1
				c0,0,0.6-4.9,7.1-5.7C173.7,403.5,174.9,404,175.4,405z"/>
			<path class="st23" d="M171,402.4c-2-0.2-4,0.4-5.6,1.7c-2.4,1.7-2.6,3.2-2.6,3.2c-0.5,0.5-1.2,0.5-1.7,0
				c-0.3-0.3-0.4-0.8-0.3-1.2c0,0,1-4.8,7.4-5.2C169.4,400.7,170.5,401.4,171,402.4z"/>
			<path class="st1" d="M123.3,370.3c-2.6-1.4-9.8,2.3-9.8,2.3l-0.4,1.7l-0.4,1.9c-0.3,1.4-2.1,1.9-3.3,2.1c-3.3,0.4-6.7,0-9.8-1.3
				c-1.4-0.7-1.5-1.5-1.5-1.5c0-0.5-0.1-1.8-0.1-1.8c-0.8,0-1.8,0.4-1.6,2.2c0.4,3.1,0.8,8.5,0.5,11.4c-0.2,1.4-0.5,3.1-0.7,4.5
				c-0.1,1,0,3.7,1.3,4.8l0,0c0.4,0.4,0.8,0.8,1.3,1.1c2.8,1.6,7.4,1.1,9.6-1.2c2.7-2.8,4.6-5.4,8.3-8.8c2.2-2,4.4-3,6.2-5.5l0,0
				c1-1.4,1.7-3,2.2-4.6C126.5,373.5,126,371.7,123.3,370.3z"/>
			<path class="st24" d="M123.3,370.3c-2.6-1.4-9.8,2.3-9.8,2.3l-0.4,1.7l-0.4,1.9c-0.3,1.4-2.1,1.9-3.3,2.1c-3.3,0.4-6.7,0-9.8-1.3
				c-1.4-0.7-1.5-1.5-1.5-1.5c0-0.5-0.1-1.8-0.1-1.8c-0.8,0-1.8,0.4-1.6,2.2c0.4,3.1,0.8,8.5,0.5,11.4c-0.2,1.4-0.5,3.1-0.7,4.5
				c-0.1,1,0,3.7,1.3,4.8l0,0c0.4,0.4,0.8,0.8,1.3,1.1c2.8,1.6,7.4,1.1,9.6-1.2c2.7-2.8,4.6-5.4,8.3-8.8c2.2-2,4.4-3,6.2-5.5l0,0
				c1-1.4,1.7-3,2.2-4.6C126.5,373.5,126,371.7,123.3,370.3z"/>
			<path class="st23" d="M116.3,380.7c-0.7-1.8-2-3.4-3.6-4.4c0.1-0.6,0.3-1.3,0.4-2c2.4,1,4.3,3,5.3,5.4
				C118.8,380.9,117.2,381.6,116.3,380.7z"/>
			<path class="st23" d="M112.5,382.4c-0.2-0.6-0.5-1.1-0.8-1.6c0.2-0.9,0.4-1.8,0.6-2.9c1,1,1.8,2.2,2.3,3.5
				C115.1,382.6,113.4,383.4,112.5,382.4z"/>
			<path class="st23" d="M123.1,382.1L123.1,382.1c0-0.3,0.2-7.6-9.6-9.6c0-0.1,0.2-0.7,0.2-1l0,0c1.2-1.2,2.7-2,4.4-2.3
				c3.5-0.6,6.2,0.5,7.8,3S125,380.8,123.1,382.1z"/>
			<path class="st1" d="M105.5,164.2c1.1-3.2,2.8-6.1,5.1-8.6c1.5-1.6,5.6-4.8,8-3.1c0,0,7.2,5,15.9,4.2c2.9,0.7-1.9-0.5,1,0.3
				c2.3,0.6,4.5,1.4,6.6,2.4c0.9,0.4,1.8,0.9,2.7,1.4c1,0.7,2,1.5,3,2.3c4.8,4.2,4.2,13.2,6.1,24.8s5.1,31.1,0.2,33.1
				c-4.5,2.6-19.8,5-28.6,3.9c-6.3-0.8-13-1.9-18.9-4.4c-2.3-0.9-5.5-2.4-7-4.5c-1.3-1.9-1.2-4.6-0.9-6.8c0.8-7,1.8-17.9,2.8-24.9
				c1-6.6,1.6-13.4,3.8-19.7C105.4,164.4,105.5,164.3,105.5,164.2z"/>
			<g class="st22">
				<path d="M105.5,164.2c1.1-3.2,2.8-6.1,5.1-8.6c1.5-1.6,5.6-4.8,8-3.1c0,0,7.2,5,15.9,4.2c2.9,0.7-1.9-0.5,1,0.3
					c2.3,0.6,4.5,1.4,6.6,2.4c0.9,0.4,1.8,0.9,2.7,1.4c1,0.7,2,1.5,3,2.3c4.8,4.2,4.2,13.2,6.1,24.8s5.1,31.1,0.2,33.1
					c-4.5,2.6-19.8,5-28.6,3.9c-6.3-0.8-13-1.9-18.9-4.4c-2.3-0.9-5.5-2.4-7-4.5c-1.3-1.9-1.2-4.6-0.9-6.8c0.8-7,1.8-17.9,2.8-24.9
					c1-6.6,1.6-13.4,3.8-19.7C105.4,164.4,105.5,164.3,105.5,164.2z"/>
			</g>
			<g id="freepik--Walkman--inject-31">
				<path class="st1" d="M144.6,244.5c-0.5,0.2-1.1,0.2-1.7-0.1l-2.5-1.4c-0.6-0.4-0.9-1-0.9-1.6v-15.7c0-0.3,0.1-0.7,0.3-0.9
					l4.4,2.6c-0.2,0.3-0.3,0.6-0.3,0.9v15.7C143.9,244.4,144.2,244.6,144.6,244.5z"/>
				<path class="st25" d="M144.6,244.5c-0.5,0.2-1.1,0.2-1.7-0.1l-2.5-1.4c-0.6-0.4-0.9-1-0.9-1.6v-15.7c0-0.3,0.1-0.7,0.3-0.9
					l4.4,2.6c-0.2,0.3-0.3,0.6-0.3,0.9v15.7C143.9,244.4,144.2,244.6,144.6,244.5z"/>
				<path class="st9" d="M166,215.1c-0.1-0.4-0.5-0.5-0.9-0.3l-20.2,11.7c-0.3,0.2-0.5,0.4-0.7,0.7l-4.4-2.6
					c0.2-0.3,0.4-0.5,0.7-0.7l20.2-11.7c0.6-0.3,1.3-0.3,1.9,0l2.5,1.5C165.6,214.1,165.9,214.6,166,215.1z"/>
				<path class="st1" d="M165.1,214.9l-20.2,11.7c-0.6,0.4-1,1-1,1.6v15.7c0,0.6,0.4,0.9,1,0.6l20.2-11.7c0.6-0.4,0.9-1,0.9-1.6
					v-15.7C166,214.8,165.6,214.6,165.1,214.9z"/>
				<path class="st10" d="M166,215.4c0-0.6-0.4-0.9-0.9-0.6l-20.2,11.7c-0.3,0.2-0.5,0.4-0.7,0.7l-4.4-2.6c-0.2,0.3-0.3,0.6-0.3,0.9
					v1.5l4.4,2.6l22.1-12.8V215.4z"/>
				<path class="st5" d="M143.9,228.2c0-0.3,0.1-0.7,0.3-0.9l-4.4-2.6c-0.2,0.3-0.3,0.6-0.3,0.9v1.5l4.4,2.6V228.2z"/>
				<path class="st9" d="M153.8,228l6.7-3.8c1.8-1.1,3.3-0.2,3.3,1.9l0,0c-0.1,2.3-1.4,4.4-3.3,5.7l-6.7,3.9c-1.8,1-3.3,0.2-3.3-1.9
					l0,0C150.7,231.4,151.9,229.3,153.8,228z"/>
				<path class="st9" d="M147.3,231.7c0.4-0.3,0.8,0,0.8,0.5v5.3c0,0.6-0.3,1.1-0.8,1.4c-0.4,0.3-0.8,0-0.8-0.5v-5.3
					C146.5,232.6,146.8,232,147.3,231.7z"/>
				<path class="st5" d="M153.9,230.1c0.9-0.5,1.6-0.1,1.6,0.9c-0.1,1.1-0.6,2.1-1.6,2.8c-0.9,0.5-1.6,0.1-1.6-0.9
					C152.4,231.7,153,230.7,153.9,230.1z"/>
				<path class="st5" d="M160.4,226.4c0.9-0.5,1.6-0.1,1.6,0.9c-0.1,1.1-0.7,2.1-1.6,2.8c-0.9,0.5-1.6,0.1-1.6-0.9
					C158.9,228.1,159.5,227,160.4,226.4z"/>
				<path class="st1" d="M147.7,222.9L147.7,222.9v0.8c0,0,0,0.1-0.1,0.1l-2.4,1.4c-0.1,0-0.2,0-0.3,0l-1.8-1c0,0,0,0-0.1-0.1v-0.8
					l0,0c0,0,0-0.1,0.1-0.1l2.1-1.2l0.3-0.2c0.1,0,0.2,0,0.3,0l0,0L147.7,222.9L147.7,222.9C147.7,222.8,147.7,222.9,147.7,222.9z"
					/>
				<g class="st26">
					<path d="M147.7,222.9L147.7,222.9v0.8c0,0,0,0.1-0.1,0.1l-2.4,1.4c-0.1,0-0.2,0-0.3,0l-1.8-1c0,0,0,0-0.1-0.1v-0.8l0,0
						c0,0,0-0.1,0.1-0.1l2.1-1.2l0.3-0.2c0.1,0,0.2,0,0.3,0l0,0L147.7,222.9L147.7,222.9C147.7,222.8,147.7,222.9,147.7,222.9z"/>
				</g>
				<path class="st1" d="M143.1,223.3L143.1,223.3v0.8c0,0,0,0.1,0.1,0.1l1.8,1c0,0,0.1,0,0.1,0v-0.8c0,0-0.1,0-0.1,0L143.1,223.3
					C143.1,223.3,143.1,223.3,143.1,223.3z"/>
				<g class="st27">
					<path d="M143.1,223.3L143.1,223.3v0.8c0,0,0,0.1,0.1,0.1l1.8,1c0,0,0.1,0,0.1,0v-0.8c0,0-0.1,0-0.1,0L143.1,223.3
						C143.1,223.3,143.1,223.3,143.1,223.3z"/>
				</g>
				<path class="st1" d="M145.2,224.4l2.4-1.4c0.1,0,0.1-0.1,0-0.2l-1.8-1c-0.1,0-0.2,0-0.3,0l-2.4,1.4c-0.1,0-0.1,0.1,0,0.2l1.8,1
					C145,224.4,145.1,224.4,145.2,224.4z"/>
				<path class="st1" d="M151.7,220.6L151.7,220.6v0.8c0,0,0,0.1-0.1,0.1l-2.4,1.4c-0.1,0-0.2,0-0.3,0l-1.8-1c0,0-0.1,0-0.1-0.1V221
					l0,0c0,0,0-0.1,0.1-0.1l2-1.2l0.3-0.2c0.1,0,0.2,0,0.3,0l0,0l1.8,1l0,0C151.6,220.5,151.7,220.5,151.7,220.6
					C151.7,220.6,151.7,220.6,151.7,220.6z"/>
				<g class="st26">
					<path d="M151.7,220.6L151.7,220.6v0.8c0,0,0,0.1-0.1,0.1l-2.4,1.4c-0.1,0-0.2,0-0.3,0l-1.8-1c0,0-0.1,0-0.1-0.1V221l0,0
						c0,0,0-0.1,0.1-0.1l2-1.2l0.3-0.2c0.1,0,0.2,0,0.3,0l0,0l1.8,1l0,0C151.6,220.5,151.7,220.5,151.7,220.6
						C151.7,220.6,151.7,220.6,151.7,220.6z"/>
				</g>
				<path class="st1" d="M147.1,220.9L147.1,220.9v0.8c0,0,0,0.1,0.1,0.1l1.8,1c0,0,0.1,0,0.1,0V222c0,0-0.1,0-0.1,0L147.1,220.9
					C147.2,221,147.2,221,147.1,220.9z"/>
				<g class="st27">
					<path d="M147.1,220.9L147.1,220.9v0.8c0,0,0,0.1,0.1,0.1l1.8,1c0,0,0.1,0,0.1,0V222c0,0-0.1,0-0.1,0L147.1,220.9
						C147.2,221,147.2,221,147.1,220.9z"/>
				</g>
				<path class="st1" d="M149.3,222.1l2.4-1.4c0.1,0,0.1-0.1,0-0.2l-1.8-1c-0.1,0-0.2,0-0.3,0l-2.4,1.4c0,0-0.1,0-0.1,0.1
					s0,0.1,0.1,0.1l1.8,1C149.1,222.1,149.2,222.1,149.3,222.1z"/>
				<path class="st5" d="M159.8,265.6l-0.3,0.3l-0.1-1.3c1.5-1.5,2.1-3.2,1.7-4.7c-1-3.9-8.9-6.5-14.7-8.4c-3.3-1.1-6-1.9-7-2.9
					c-1.3-1.1-2-2.7-1.9-4.4c0.1-2.9,2.1-5.6,4.1-7.1l0.6,0.8c-2.1,1.5-3.4,3.8-3.7,6.4c-0.1,1.4,0.4,2.7,1.5,3.7
					c0.9,0.8,3.6,1.7,6.7,2.7c6.3,2.1,14.2,4.6,15.3,9.1C162.5,261.5,161.8,263.5,159.8,265.6z"/>
				<path class="st5" d="M142.5,237.9c0.1,0.6-0.4,1.1-1,1.2c-0.6,0.1-1.1-0.4-1.2-1c0-0.1,0-0.1,0-0.2c0.1-0.6,0.6-1,1.2-1
					C142.1,237,142.5,237.4,142.5,237.9z"/>
			</g>
			<path class="st20" d="M212,151.1c-1.1-1.6-2.5-3-4.1-4.2c-1.2-0.8-2.7-1.1-4.1-1c-0.7-0.1-1.5,0.2-2,0.8c-0.3,0.5-0.3,1.2,0,1.8
				c0.3,0.5,0.7,1,1.3,1.3c0.5,0.3,1.1,0.6,1.6,1c1,0.7,1.7,1.7,2.1,2.8c0.4,1.1,0.7,2.3,0.6,3.5c0.1,0.7-0.1,1.4-0.5,2
				c-0.6,0.7-1.7,0.9-2.5,0.3c-0.7-0.5-0.9-1.9-0.9-2.6c0-1-0.1-1.9-0.3-2.9c-0.2-1.1-1.2-1.8-2.2-1.6c-0.1,0-0.1,0-0.2,0
				c-1.1,0.4-1.9,1.3-2.1,2.4c-1.1,4.1,1,12.7-1.3,16.6s-14.6,19.3-14.6,19.3s-10.8-10.8-18.7-19.6c-6.6-7.4-11.3-13.6-18.9-10
				l4.7,22.9c0,0,21.1,19.3,26.4,23.2s8.3,4.4,12.4,0.2c3.4-3.4,15.5-23.8,20-31.4c2.5-3.6,5.1-5.6,5.7-8.8s-0.1-10.1-0.2-12
				C214.1,153.7,212.8,152.2,212,151.1z"/>
			<path class="st10" d="M142.8,157.4c9.9,0.2,11.6,0.1,18.3,7.6c7.4,8.4,16.5,19.2,16.5,19.2c-1,8.6-5.3,14.8-17.6,19.2
				c0,0-10-15.2-15.4-23S137.4,163.3,142.8,157.4z"/>
			<g id="freepik--Coin--inject-31">
				<path class="st1" d="M202.1,146.9c0,1,0.3,2,0.7,3l0.8,3.6l1.9-0.4l0,0c0.9-0.3,1.6-1.1,1.8-2c0.6-2.5,0-5.2-1.6-7.2
					c-0.6-0.7-1.5-1.1-2.4-1l0,0l-1.9,0.4L202.1,146.9z"/>
				<path class="st6" d="M202.1,146.9c0,1,0.3,2,0.7,3l0.8,3.6l1.9-0.4l0,0c0.9-0.3,1.6-1.1,1.8-2c0.6-2.5,0-5.2-1.6-7.2
					c-0.6-0.7-1.5-1.1-2.4-1l0,0l-1.9,0.4L202.1,146.9z"/>
				<path class="st1" d="M205.4,151.6c0.6-2.5,0-5.2-1.6-7.2c-1.6-1.7-3.5-1.3-4.2,0.9c-0.6,2.5,0,5.2,1.6,7.2
					C202.8,154.3,204.7,153.9,205.4,151.6z"/>
			</g>
			<g id="freepik--Head--inject-31">
				<path class="st28" d="M150.6,123.7l-0.9,10.5l5.5-1.6c0.6-0.2,0.9-0.8,0.7-1.4c0-0.1-0.1-0.2-0.2-0.3L150.6,123.7z"/>
				<path class="st20" d="M150.5,139.9c-1.5,6.5-4.2,8.4-8,8.4c-2.4-0.2-4.8-0.5-7.2-1.1l0.4,8.2v1.4c-9.9,1.5-17.7-1.9-17.7-3.9
					c0,0-1-19.8-2.3-28.4c-1-6.5-0.6-14.9,5.3-19c8.9-6.2,26.9-6.8,29,7.8C152,127.6,152.1,133,150.5,139.9z"/>
				<path class="st5" d="M110.4,109.9l-6-2.9c0.7-1.7,2.6-2.4,4.2-1.8c0.1,0,0.1,0,0.2,0.1C110.5,106.2,111.2,108.2,110.4,109.9z"/>
				<path class="st5" d="M147.1,126c0.1,1-0.7,1.8-1.7,1.9c0,0,0,0,0,0c-1,0-1.8-0.8-1.8-1.7c-0.1-1,0.6-1.8,1.6-1.9
					s1.8,0.6,1.9,1.6C147.1,125.9,147.1,125.9,147.1,126z"/>
				<path class="st5" d="M144.7,121.3L141,124c-0.7-1.1-0.5-2.5,0.6-3.3C142.6,120,144,120.2,144.7,121.3
					C144.7,121.2,144.7,121.2,144.7,121.3z"/>
				<path class="st29" d="M142.2,136.7l6.4,1.4c-0.4,1.8-2.2,2.9-4,2.5c-1.7-0.4-2.8-2.1-2.4-3.8
					C142.1,136.8,142.1,136.7,142.2,136.7z"/>
				<path class="st28" d="M142.5,137.8c-0.1,0-0.3,0.1-0.4,0.1c0.2,1.3,1.1,2.4,2.4,2.6c0.6,0.1,1.3,0.1,1.9-0.1
					c0-0.2,0-0.3-0.1-0.4C145.9,138.4,144.2,137.4,142.5,137.8z"/>
				<g id="freepik--Headphones--inject-31">
					<path class="st1" d="M134.4,156.2c-0.2-3.2,2.3-6,5.5-6.2c3.2-0.2,6,2.3,6.2,5.5c0.2,3.2-2.3,6-5.5,6.2c0,0,0,0,0,0
						C137.4,161.9,134.6,159.4,134.4,156.2z"/>
					<path class="st10" d="M137.4,156c-0.1-1.6,1.2-3,2.8-3.1c1.6-0.1,3,1.2,3.1,2.8c0.1,1.6-1.1,3-2.8,3.1
						C138.8,158.9,137.4,157.6,137.4,156z"/>
					<path class="st11" d="M117.8,149l-0.1-2.3c0,0-8,2.5-9.9,5.1c-0.5,0.6-0.7,1.3-0.7,2.1c0,0.5,0.2,1,0.4,1.4
						c0.1-0.4,0.3-0.7,0.5-1C110,151.8,117.8,149,117.8,149z"/>
					<path class="st23" d="M138.5,154.9c-5,1.7-17,4.8-23.7,4.1c-4-0.4-6.3-2-7.2-3.7c-0.2-0.4-0.4-0.9-0.4-1.4l0.3,2.7l0,0
						c0.2,2.2,2.7,4.5,7.6,5c6.7,0.6,19-2.6,24-4.3L138.5,154.9z"/>
					<path class="st5" d="M122.1,159.4l0.2,1.4c0.1,0.5,0.6,0.9,1.1,0.8c0,0,0,0,0,0c2.7-0.5,10.4-1.9,15.1-3.8
						c0.5-0.2,0.8-0.8,0.7-1.4l-0.3-1.2c-0.1-0.5-0.6-0.8-1.1-0.7c0,0-0.1,0-0.1,0c-4.9,1.5-9.9,2.7-14.9,3.6
						c-0.5,0.1-1,0.5-0.9,1.1C122.1,159.3,122.1,159.4,122.1,159.4z"/>
				</g>
				<path class="st5" d="M124.7,147c0.3-0.5,0.6-1.1,0.9-1.7c1.6-3.9,1.8-8.3,0.4-12.2c-2.2,1.7-5.5,0.2-6.7-1.9
					c-1.2-1.9-1.3-4.4-0.3-6.4c0.8-1.4,2.2-2.4,3.8-2.7c1.4-0.1,2.7,0.5,3.6,1.6c0.5,0.6,0.9,1.3,1.1,2c0.2,0.7,0.2,1.3,0.8,1.7
					c1,0.6,2-0.4,2.4-1.4c0.6-1.3,0.8-2.7,0.6-4.1c2.9,0.2,5.7-0.8,7.8-2.8c2.7-2.1,4.4-5.3,4.5-8.7c2,0.6,5.6,1.3,7.2,9.5
					c0.8-0.1,1.5-0.5,2-1c1.7-2,2.7-4.5,2.9-7.1c0.7,1.5,1.2,3,1.5,4.6c3.9-4.3,4.6-10.6,1.9-15.7c-2.9-5-8.3-8-14.1-7.8
					c-3.6,0.1-7,1.4-10.5,2c-3.9,0.7-7.9,0.2-11.8,1c-3.1,0.5-6,1.8-8.4,3.8c-1.5,1.2-2.7,2.8-3.5,4.6c-0.4,0.9-0.7,1.8-0.8,2.8
					c0,0.8-0.1,1.7-0.3,2.5c-0.3,0.6-1.2,0.9-1.8,1.3c-0.8,0.6-1.5,1.2-2.1,1.9c-1.2,1.5-2.1,3.2-2.6,5c-0.9,3.6-0.5,7.3,1,10.7
					c1.8,4,4.8,7.4,6.7,11.4c0.8,1.3,1,2.9,0.6,4.4c-0.2,0.7-0.7,1.4-0.4,2c0.3,0.5,0.8,0.7,1.4,0.6c0.5-0.1,1-0.3,1.5-0.6
					c-0.4,0.2,0.1,1.5,0.2,1.7c0.3,0.6,1,0.9,1.6,0.8c1.5-0.1,2.9-0.7,3.9-1.8c-0.1,0.6,0.1,1.2,0.5,1.6c0.5,0.4,1.1,0.6,1.8,0.5
					c0.9-0.2,1.7-0.7,2.3-1.4C124.4,147.4,124.6,147.2,124.7,147z"/>
				<path class="st28" d="M129.2,144.2c0,0,1.8,4.5,6.3,5.3l-0.1-2.3C133.1,146.5,131,145.5,129.2,144.2z"/>
			</g>
		</g>
	</g>
</g>
</svg>
