<svg id="Layer_1" data-name="Layer 1" xmlns="http://www.w3.org/2000/svg" viewBox="0 0 471 464.81"><defs><style>.cls-1{fill:#f5f5f5;}.cls-2{fill:#e0e0e0;}.cls-3{fill:#08d8c2;}.cls-34,.cls-4{opacity:0.3;}.cls-13,.cls-14,.cls-21,.cls-22,.cls-25,.cls-27,.cls-31,.cls-33,.cls-4,.cls-6,.cls-8{isolation:isolate;}.cls-13,.cls-27,.cls-31,.cls-5{fill:#fff;}.cls-35,.cls-6{opacity:0.1;}.cls-7,.cls-8{opacity:0.15;}.cls-9{fill:#ebebeb;}.cls-10{fill:#37474f;}.cls-11{fill:#455a64;}.cls-12,.cls-13,.cls-25{opacity:0.6;}.cls-14{opacity:0.05;}.cls-15{fill:#fafafa;}.cls-16{fill:#e6e6e6;}.cls-17{fill:#f0f0f0;}.cls-18{fill:#ffa8a7;}.cls-19,.cls-25{fill:#263238;}.cls-20,.cls-21{opacity:0.25;}.cls-22{opacity:0.2;}.cls-23{fill:#f28f8f;}.cls-24{fill:#b16668;}.cls-26{fill:#9a4a4d;}.cls-27{opacity:0.7;}.cls-28{fill:#ffbda7;}.cls-29{fill:#f0997a;}.cls-30,.cls-31{opacity:0.03;}.cls-32,.cls-33{opacity:0.4;}.cls-36{fill:#486562;}.cls-37{fill:#146a5f;}.cls-38{fill:#75bbb6;}</style></defs><title>sect-2-icon</title><path class="cls-1" d="M250,489.85c129.61,0,234.67-60.66,234.67-135.49S379.61,218.87,250,218.87,15.33,279.53,15.33,354.36,120.39,489.85,250,489.85Z" transform="translate(-15.33 -25.04)"/><path class="cls-2" d="M109,432.48c34.11,0,61.76-15.69,61.76-35.05S143.14,362.38,109,362.38s-61.76,15.69-61.76,35.05S74.92,432.48,109,432.48Z" transform="translate(-15.33 -25.04)"/><path class="cls-2" d="M396,430.1c32,0,57.92-14.72,57.92-32.88S428,364.34,396,364.34,338,379.06,338,397.22,364,430.1,396,430.1Z" transform="translate(-15.33 -25.04)"/><path class="cls-2" d="M259.33,411.37c34.11,0,61.76-15.69,61.76-35.05s-27.65-35.05-61.76-35.05S197.57,357,197.57,376.32,225.22,411.37,259.33,411.37Z" transform="translate(-15.33 -25.04)"/><path class="cls-3" d="M438.4,349.21l-11.85-6.27s-.9-18.12.51-32.47c2-20.18,17-43.61,32.53-37.9s-7.13,26.24-12.18,43.36S438.4,349.21,438.4,349.21Z" transform="translate(-15.33 -25.04)"/><path class="cls-4" d="M438.4,349.21l-11.85-6.27s-.9-18.12.51-32.47c2-20.18,17-43.61,32.53-37.9s-7.13,26.24-12.18,43.36S438.4,349.21,438.4,349.21Z" transform="translate(-15.33 -25.04)"/><path class="cls-5" d="M432.6,347.11a.46.46,0,0,0,.2-.05.66.66,0,0,0,.17-.12.54.54,0,0,0,.11-.18.64.64,0,0,0,0-.2c-1.52-44.82,20.79-67.37,21-67.6a.52.52,0,0,0-.74-.74c-.23.22-22.87,23.1-21.33,68.38a.46.46,0,0,0,0,.2.52.52,0,0,0,.12.17.58.58,0,0,0,.18.11A.76.76,0,0,0,432.6,347.11Z" transform="translate(-15.33 -25.04)"/><path class="cls-3" d="M444.48,352.79l-6.16-3.56a68.86,68.86,0,0,1,3.82-29.91c5.71-15.49,20.46-23.94,27.25-21.63,8.29,2.82,8.34,10.75,5.32,16C471.16,319.81,449,335.37,444.48,352.79Z" transform="translate(-15.33 -25.04)"/><path class="cls-6" d="M444.48,352.79l-6.16-3.56a68.86,68.86,0,0,1,3.82-29.91c5.71-15.49,20.46-23.94,27.25-21.63,8.29,2.82,8.34,10.75,5.32,16C471.16,319.81,449,335.37,444.48,352.79Z" transform="translate(-15.33 -25.04)"/><path class="cls-5" d="M441.23,351.44a.45.45,0,0,0,.2,0,.66.66,0,0,0,.17-.12.39.39,0,0,0,.11-.17.45.45,0,0,0,0-.2c-.12-28.35,26.5-47.5,26.76-47.69a.5.5,0,0,0,.14-.15.54.54,0,0,0,.08-.19.44.44,0,0,0,0-.2.46.46,0,0,0-.08-.19.5.5,0,0,0-.15-.14.64.64,0,0,0-.19-.08.59.59,0,0,0-.39.09c-.27.2-27.33,19.67-27.2,48.55a.45.45,0,0,0,0,.2.39.39,0,0,0,.11.17.52.52,0,0,0,.17.12A.45.45,0,0,0,441.23,351.44Z" transform="translate(-15.33 -25.04)"/><path class="cls-3" d="M65.18,340.82l7.7-4.4s3.69-20.36.93-37.86c-3.89-24.61-20.64-33.1-26.72-30.65s-7.52,9.73,3.47,23.95C57,300.25,65.38,318,65.18,340.82Z" transform="translate(-15.33 -25.04)"/><g class="cls-7"><path class="cls-8" d="M65.18,340.82l7.7-4.4s3.69-20.36.93-37.86c-3.89-24.61-20.64-33.1-26.72-30.65s-7.52,9.73,3.47,23.95C57,300.25,65.38,318,65.18,340.82Z" transform="translate(-15.33 -25.04)"/></g><path class="cls-5" d="M68,331h-.08a.48.48,0,0,1-.2-.07.44.44,0,0,1-.16-.14.54.54,0,0,1-.1-.2.5.5,0,0,1,0-.21c3.19-23-6.08-48.27-16.49-58.45a.49.49,0,0,1-.14-.18.79.79,0,0,1-.06-.22.57.57,0,0,1,0-.22.62.62,0,0,1,.12-.19.47.47,0,0,1,.19-.12.43.43,0,0,1,.22,0,.54.54,0,0,1,.22.05.62.62,0,0,1,.18.14c10.6,10.36,20,36,16.81,59.38a.52.52,0,0,1-.18.33A.54.54,0,0,1,68,331Z" transform="translate(-15.33 -25.04)"/><path class="cls-3" d="M43.8,353.16c-1.21.7-3.72-.83-4.68-1.47a11.6,11.6,0,0,1-3.87-4.44,10.9,10.9,0,0,1-1-6.53,25.87,25.87,0,0,1,.82-3.48c.33-1.12.65-2.25,1-3.37a8.42,8.42,0,0,0,.5-3.41c-.3-2.3-2.34-3.92-4.21-5.32-2.06-1.54-4.2-3.57-4.19-6.35A9.82,9.82,0,0,1,30.63,313c1.33-1.68,2.9-3.17,4.1-4.94a6.8,6.8,0,0,0,1.4-4.32,6.91,6.91,0,0,0-.94-2.7,37.29,37.29,0,0,1-2.95-5.41c-.68-1.94-.58-4.36.94-5.75,1.24-1.14,3.09-1.3,4.78-1.19a11,11,0,0,1,4.44,1.57c4.41,2.45,6.93,7.68,11.61,9.56a47.84,47.84,0,0,0,5.67,1.39,7,7,0,0,1,2.67,1.11,6.87,6.87,0,0,1,2,2.09c1.72,3.43-1.47,7.66-.26,11.3,1.06,3.22,4.2,4.46,6,7.36a7,7,0,0,1,.82,4.22,20.23,20.23,0,0,1-1.78,7.13,50.1,50.1,0,0,1-3.91,6.43C65.1,340.89,44,353.05,43.8,353.16Z" transform="translate(-15.33 -25.04)"/><path class="cls-5" d="M56.31,346.5a.54.54,0,0,1-.21-.05.66.66,0,0,1-.17-.12.52.52,0,0,1-.15-.4c.91-21.81-9.37-45.88-16.84-52.87a.57.57,0,0,1-.12-.18.57.57,0,0,1,0-.42.55.55,0,0,1,.3-.3.46.46,0,0,1,.21,0,.45.45,0,0,1,.2,0,.57.57,0,0,1,.18.12c7.62,7.13,18.11,31.6,17.19,53.71a.52.52,0,0,1-.19.37A.53.53,0,0,1,56.31,346.5Z" transform="translate(-15.33 -25.04)"/><path class="cls-5" d="M53,320.74h-.16A73,73,0,0,0,37,318.19a.55.55,0,0,1-.38-.18.54.54,0,0,1-.15-.4.49.49,0,0,1,0-.21.53.53,0,0,1,.32-.29.49.49,0,0,1,.21,0,75,75,0,0,1,16.1,2.6.52.52,0,0,1,.32.26.56.56,0,0,1,.05.42.55.55,0,0,1-.2.27A.56.56,0,0,1,53,320.74Z" transform="translate(-15.33 -25.04)"/><path class="cls-2" d="M362.4,56.61l-1.87,3.09-1.64,2.35,2.26,7L362,70.9c.71,1.42,4.35,4.37,5.26,5.62l-.35,2.09,4.68,4.55,1.84-4.38c1.08.67.62,2.61,1.65,2.88l4,4.87,4.37-.51-1.64-6.43a6.63,6.63,0,0,0,2.05-2l4.46,3.65L389.83,76l-4.16-4.71A21.89,21.89,0,0,0,385.4,67l3.78-1.17-2.18-7-4.24-.24a29.61,29.61,0,0,0-2.43-4l.89-5.3-4.68-4.55-1.84,4.38a11.86,11.86,0,0,0-3.17-1.41L369,41.31l-4.37.51,1.64,6.44a6.63,6.63,0,0,0-2,2l-4.46-3.66-1.49,5.27Zm5.14,1c1.15-4,2.63-3.65,6.22-.16s5.23,10,4.09,14-2.27,3.25-5.86-.24-5.59-9.6-4.45-13.64Z" transform="translate(-15.33 -25.04)"/><path class="cls-1" d="M369,41.31,363.05,44l2.52,6.33,5.92-2.63Z" transform="translate(-15.33 -25.04)"/><path class="cls-1" d="M353.81,49.26l4.46,3.65,5.92-2.63-4.46-3.66Z" transform="translate(-15.33 -25.04)"/><path class="cls-2" d="M353,64.68l3.78-1.16,5.92-2.63-3.78,1.16Z" transform="translate(-15.33 -25.04)"/><path class="cls-2" d="M383.51,86l-5.92,2.64L376,82.17l5.92-2.63Z" transform="translate(-15.33 -25.04)"/><path class="cls-2" d="M365.69,85.74l5.92-2.63,1.84-4.38-5.92,2.63Z" transform="translate(-15.33 -25.04)"/><path class="cls-9" d="M356.48,59.24a21.89,21.89,0,0,0,.27,4.28L353,64.68l2.26,6.95,4.24.23a29.61,29.61,0,0,0,2.43,4l-.89,5.3,4.69,4.55,1.83-4.38a11.58,11.58,0,0,0,3.17,1.42l2.53,6.33,4.36-.5L376,82.17a6.63,6.63,0,0,0,2.05-2l4.46,3.65L384,78.53l-4.16-4.71a21.89,21.89,0,0,0-.27-4.28l3.78-1.16L381,61.43l-4.24-.23a28.62,28.62,0,0,0-2.43-4l.89-5.3-4.68-4.56-1.84,4.39a11.58,11.58,0,0,0-3.17-1.42L363.05,44l-4.37.5,1.64,6.44a6.63,6.63,0,0,0-2.05,2l-4.46-3.65-1.49,5.26Zm5.15,1c1.14-4,5-4.48,8.57-1s5.59,9.6,4.45,13.64-5,4.49-8.58,1-5.59-9.63-4.44-13.68Z" transform="translate(-15.33 -25.04)"/><path class="cls-1" d="M370.58,47.31l5.92-2.63,4.68,4.55-5.92,2.64Z" transform="translate(-15.33 -25.04)"/><path class="cls-2" d="M381.18,49.23l-.89,5.3-5.92,2.64.89-5.3Z" transform="translate(-15.33 -25.04)"/><path class="cls-1" d="M376.8,61.2l5.92-2.64,4.24.24L381,61.43Z" transform="translate(-15.33 -25.04)"/><path class="cls-2" d="M387,58.8l2.26,6.94-5.92,2.64L381,61.43Z" transform="translate(-15.33 -25.04)"/><path class="cls-1" d="M379.79,73.82l5.92-2.63,4.16,4.71L384,78.53Z" transform="translate(-15.33 -25.04)"/><path class="cls-2" d="M382.46,83.8l5.92-2.63,1.49-5.27L384,78.53Z" transform="translate(-15.33 -25.04)"/><path class="cls-1" d="M363.05,44,369,41.31l-4.36.51-5.92,2.63Z" transform="translate(-15.33 -25.04)"/><path class="cls-2" d="M319.14,79.9a17.86,17.86,0,0,0,0,6.68l-3.27,2.27,4,9,3.71-.88a12.83,12.83,0,0,0,5.12,4.46l-.12,7.79,6.48,4.71,1.42-6.85a11.44,11.44,0,0,0,4.08.84l4.19,8,5.17-2.31-3.14-8.47a11.19,11.19,0,0,0,2.1-3.59l6,3.52.84-8-5.87-5.13A34.07,34.07,0,0,0,348.79,86l4.36-3-4-9L344,75.25a34.75,34.75,0,0,0-3.67-4.79l.12-7.79L334,58l-1.42,6.85A11.44,11.44,0,0,0,328.5,64l-4.19-8-5.17,2.31,3.15,8.47a11.11,11.11,0,0,0-2.11,3.59l-6-3.52-.84,8Zm6.38-.52c.64-6.11,4.08-8,9.05-4.38s8.56,11.55,7.92,17.66-4.16,7.93-9.13,4.32S324.88,85.49,325.52,79.38Z" transform="translate(-15.33 -25.04)"/><path class="cls-1" d="M318.4,58.58,324.28,56l4.19,8-5.88,2.61Z" transform="translate(-15.33 -25.04)"/><path class="cls-1" d="M308.23,69.42l5.88-2.61,6,3.52-5.89,2.61Z" transform="translate(-15.33 -25.04)"/><path class="cls-2" d="M329.19,116.49l5.88-2.61,1.42-6.85-5.88,2.62Z" transform="translate(-15.33 -25.04)"/><path class="cls-2" d="M349.93,113.58l-5.88,2.61-3.15-8.47,5.89-2.62Z" transform="translate(-15.33 -25.04)"/><path class="cls-9" d="M313.26,82.51a34.06,34.06,0,0,0,1.11,5.93l-4.36,3,4,9,5.16-1.22a34.16,34.16,0,0,0,3.67,4.79l-.12,7.8,6.48,4.7,1.42-6.84a11.44,11.44,0,0,0,4.08.84l4.19,8,5.17-2.3-3.15-8.47a11.11,11.11,0,0,0,2.11-3.59l6,3.52.84-8L344,94.56a34.06,34.06,0,0,0-1.11-5.93l4.35-3-4-9-5.16,1.22a34.16,34.16,0,0,0-3.67-4.79l.12-7.8-6.48-4.7-1.42,6.84a11.44,11.44,0,0,0-4.08-.84l-4.19-8-5.17,2.3,3.14,8.47a11.52,11.52,0,0,0-2.11,3.59l-6-3.52-.84,8Zm6.38-.51c.64-6.11,5.19-8.14,10.16-4.53s8.48,11.49,7.84,17.6-5.19,8.14-10.16,4.53S319,88.11,319.64,82Z" transform="translate(-15.33 -25.04)"/><path class="cls-1" d="M344,75.25l-5.88,2.61,5.15-1.21L349.16,74Z" transform="translate(-15.33 -25.04)"/><path class="cls-1" d="M349.17,74.05l-5.89,2.61,4,9L353.15,83Z" transform="translate(-15.33 -25.04)"/><path class="cls-2" d="M353.15,83l-5.89,2.62-4.35,3L348.79,86Z" transform="translate(-15.33 -25.04)"/><path class="cls-1" d="M349.9,91.94,344,94.56l5.87,5.13,5.88-2.62Z" transform="translate(-15.33 -25.04)"/><path class="cls-2" d="M355.77,97.07l-5.88,2.62-.84,8,5.88-2.62Z" transform="translate(-15.33 -25.04)"/><path class="cls-1" d="M328.09,60.58,334,58l6.48,4.71-5.88,2.61Z" transform="translate(-15.33 -25.04)"/><path class="cls-10" d="M263,75.47a3,3,0,0,1-.52,1.63,3,3,0,0,1-3,1.21,3,3,0,0,1-1.5-.83,2.95,2.95,0,0,1,.49-4.53,3,3,0,0,1,2.78-.25,2.85,2.85,0,0,1,1,.66,3,3,0,0,1,.64,1A3,3,0,0,1,263,75.47Z" transform="translate(-15.33 -25.04)"/><path class="cls-11" d="M256.53,75.62c-1.94-1.14-1.93-3,0-4.08a7.84,7.84,0,0,1,7.06,0c2,1.13,1.93,3,0,4.07a7.72,7.72,0,0,1-3.53.85A7.87,7.87,0,0,1,256.53,75.62Z" transform="translate(-15.33 -25.04)"/><path class="cls-10" d="M256.43,74.56c-2-1.18-2-3.06,0-4.21a8,8,0,0,1,3.65-.85,8.05,8.05,0,0,1,3.63.9c2,1.17,2,3,0,4.2a8,8,0,0,1-7.28,0Z" transform="translate(-15.33 -25.04)"/><path class="cls-11" d="M256.33,73.46c-2.07-1.21-2.06-3.15,0-4.33a8.28,8.28,0,0,1,7.51,0c2.06,1.21,2.05,3.15,0,4.33a8.28,8.28,0,0,1-7.51,0Z" transform="translate(-15.33 -25.04)"/><path class="cls-10" d="M256.22,72.33c-2.13-1.25-2.12-3.25,0-4.47a8.52,8.52,0,0,1,7.74,0c2.13,1.25,2.12,3.25,0,4.47a8.52,8.52,0,0,1-7.74,0Z" transform="translate(-15.33 -25.04)"/><path class="cls-11" d="M256.15,71.14c-2.18-1.27-2.16-3.31,0-4.55a8.77,8.77,0,0,1,7.9,0c2.17,1.27,2.16,3.31,0,4.56a8.73,8.73,0,0,1-7.9,0Z" transform="translate(-15.33 -25.04)"/><path class="cls-3" d="M260.3,36.86a13.82,13.82,0,0,0-5.39,1,14,14,0,0,0-8.73,13c-.06,11.14,9.12,13,9.09,17.53a2.32,2.32,0,0,0,.43,1.19,2.39,2.39,0,0,0,1,.81,7.56,7.56,0,0,0,6.85,0,2.35,2.35,0,0,0,1-.8,2.47,2.47,0,0,0,.44-1.2c0-4.49,9.23-6.29,9.29-17.42A14,14,0,0,0,260.3,36.86Z" transform="translate(-15.33 -25.04)"/><g class="cls-12"><path class="cls-13" d="M260.3,36.86a13.82,13.82,0,0,0-5.39,1,14,14,0,0,0-8.73,13c-.06,11.14,9.12,13,9.09,17.53a2.32,2.32,0,0,0,.43,1.19,2.39,2.39,0,0,0,1,.81,7.56,7.56,0,0,0,6.85,0,2.35,2.35,0,0,0,1-.8,2.47,2.47,0,0,0,.44-1.2c0-4.49,9.23-6.29,9.29-17.42A14,14,0,0,0,260.3,36.86Z" transform="translate(-15.33 -25.04)"/></g><path class="cls-3" d="M257.53,69.72c-1.42-.83-1.41-2.16,0-3a5.74,5.74,0,0,1,5.15,0c1.42.83,1.41,2.16,0,3a5.66,5.66,0,0,1-5.15,0Z" transform="translate(-15.33 -25.04)"/><path class="cls-5" d="M262,67.92a.48.48,0,0,1-.47-.47,34.24,34.24,0,0,1,1-8,17.51,17.51,0,0,1,.71-2.23,6.81,6.81,0,0,1-1.21-.6A8.11,8.11,0,0,1,260.19,55a8.26,8.26,0,0,1-1.87,1.56,6.2,6.2,0,0,1-1.22.58,19.28,19.28,0,0,1,.68,2.24,33.71,33.71,0,0,1,.94,8,.51.51,0,0,1-.15.33.47.47,0,0,1-.34.13.58.58,0,0,1-.18,0,.42.42,0,0,1-.15-.11.34.34,0,0,1-.1-.16.57.57,0,0,1,0-.18,33.88,33.88,0,0,0-.91-7.77,15.59,15.59,0,0,0-.7-2.23,3,3,0,0,1-1.42-.07,3.13,3.13,0,0,1-1.23-.72,1.53,1.53,0,0,1-.19-2,1.27,1.27,0,0,1,1.3-.53c.75.15,1.47.92,2.09,2.19a5.14,5.14,0,0,0,1.11-.53,7.64,7.64,0,0,0,1.79-1.51,3.58,3.58,0,0,1-.62-1.27,3.72,3.72,0,0,1-.06-1.41,1.33,1.33,0,0,1,.49-.68,1.29,1.29,0,0,1,.79-.26,1.36,1.36,0,0,1,.8.26,1.44,1.44,0,0,1,.48.68,3.53,3.53,0,0,1-.08,1.41,3.64,3.64,0,0,1-.63,1.26,7,7,0,0,0,1.77,1.54,5.35,5.35,0,0,0,1.1.54c.63-1.26,1.37-2,2.12-2.17a1.3,1.3,0,0,1,.73.08,1.28,1.28,0,0,1,.56.47,1.59,1.59,0,0,1,.27,1,1.53,1.53,0,0,1-.48,1,2.94,2.94,0,0,1-1.24.7,2.85,2.85,0,0,1-1.42.06,15.58,15.58,0,0,0-.73,2.22,33.83,33.83,0,0,0-1,7.76.52.52,0,0,1,0,.18.62.62,0,0,1-.1.16.57.57,0,0,1-.16.11.39.39,0,0,1-.18,0ZM254.36,55c-.08,0-.17,0-.28.18a.56.56,0,0,0,.13.75,2,2,0,0,0,.7.43,1.89,1.89,0,0,0,.82.09c-.5-.93-1-1.38-1.3-1.44Zm10.27,1.5a1.86,1.86,0,0,0,.81-.08,1.74,1.74,0,0,0,.71-.41c.09-.1.37-.44.14-.76s-.24-.19-.34-.17c-.32.09-.81.53-1.32,1.45Zm-4.42-4.94a.37.37,0,0,0-.23,0,.35.35,0,0,0-.14.2,2.32,2.32,0,0,0,.36,1.56,2.24,2.24,0,0,0,.37-1.55c0-.13-.12-.23-.36-.23Z" transform="translate(-15.33 -25.04)"/><path class="cls-2" d="M260.41,31.52a1,1,0,0,1-.24,0,.92.92,0,0,1-.92-.92V25.86a.89.89,0,0,1,.3-.59.94.94,0,0,1,1.23,0,.89.89,0,0,1,.3.59v4.78a.92.92,0,0,1-.19.55A.89.89,0,0,1,260.41,31.52Z" transform="translate(-15.33 -25.04)"/><path class="cls-2" d="M250.22,34.25a.93.93,0,0,1-.57,0,.86.86,0,0,1-.43-.37l-2.39-4.14a.89.89,0,0,1-.06-.68,1,1,0,0,1,.42-.53.92.92,0,0,1,.67-.1.9.9,0,0,1,.56.39l2.39,4.14a.93.93,0,0,1,.09.69.89.89,0,0,1-.42.56A1.14,1.14,0,0,1,250.22,34.25Z" transform="translate(-15.33 -25.04)"/><path class="cls-2" d="M242.76,41.72a1.1,1.1,0,0,1-.36,0,1,1,0,0,1-.34-.12l-4.14-2.39a.94.94,0,0,1-.43-.56.93.93,0,0,1,.09-.69.93.93,0,0,1,1.26-.34L243,40a.94.94,0,0,1,.43.56.93.93,0,0,1-.09.69.89.89,0,0,1-.24.3A.91.91,0,0,1,242.76,41.72Z" transform="translate(-15.33 -25.04)"/><path class="cls-2" d="M240,51.92h-5a1,1,0,0,1-.38,0,1,1,0,0,1-.33-.19,1,1,0,0,1-.23-.31.92.92,0,0,1,0-.75,1,1,0,0,1,.23-.31,1,1,0,0,1,.33-.19,1,1,0,0,1,.38,0h4.78a.93.93,0,0,1,.65.27.91.91,0,0,1,.27.64.94.94,0,0,1-.19.58A.93.93,0,0,1,240,51.92Z" transform="translate(-15.33 -25.04)"/><path class="cls-2" d="M282.22,64.48a.88.88,0,0,1-.36,0,.85.85,0,0,1-.34-.11L277.38,62a.89.89,0,0,1-.42-.56.93.93,0,0,1,.09-.69.87.87,0,0,1,.23-.27.84.84,0,0,1,.33-.16.82.82,0,0,1,.35,0,1,1,0,0,1,.34.12l4.14,2.38a.91.91,0,0,1-.22,1.68Z" transform="translate(-15.33 -25.04)"/><path class="cls-2" d="M238.37,64.48a1.1,1.1,0,0,0,.36,0,1.06,1.06,0,0,0,.34-.12L243.21,62a1,1,0,0,0,.27-.24.86.86,0,0,0,.15-.32,1,1,0,0,0,0-.35,1,1,0,0,0-.12-.34,1,1,0,0,0-.24-.27.86.86,0,0,0-.32-.15,1,1,0,0,0-.35,0,1,1,0,0,0-.34.12l-4.14,2.38a.93.93,0,0,0-.33,1.26A.89.89,0,0,0,238.37,64.48Z" transform="translate(-15.33 -25.04)"/><path class="cls-2" d="M285.59,51.9h-5a1,1,0,0,1-.38,0,1,1,0,0,1-.33-.19,1,1,0,0,1-.23-.31.92.92,0,0,1,0-.75,1,1,0,0,1,.23-.31,1,1,0,0,1,.33-.19,1,1,0,0,1,.38,0h4.78a.92.92,0,0,1,.91.91.87.87,0,0,1-.18.58A1,1,0,0,1,285.59,51.9Z" transform="translate(-15.33 -25.04)"/><path class="cls-2" d="M278.08,41.71a.92.92,0,0,1-.71-1.68l4.14-2.39a1,1,0,0,1,.34-.12,1,1,0,0,1,.35,0,.86.86,0,0,1,.32.15,1,1,0,0,1,.24.27,1,1,0,0,1,.12.34,1,1,0,0,1,0,.35.86.86,0,0,1-.15.32.88.88,0,0,1-.27.24l-4.14,2.39Z" transform="translate(-15.33 -25.04)"/><path class="cls-2" d="M270.61,34.24a1.1,1.1,0,0,1-.36,0,1,1,0,0,1-.34-.12.91.91,0,0,1-.34-1.25L272,28.76a.9.9,0,0,1,.56-.39.92.92,0,0,1,.67.1,1,1,0,0,1,.42.53.89.89,0,0,1-.06.68l-2.39,4.14a.81.81,0,0,1-.25.27A.74.74,0,0,1,270.61,34.24Z" transform="translate(-15.33 -25.04)"/><path class="cls-2" d="M192.69,77.43,181.4,114.14l-.77-.45v.9l-5.12-3L164.34,88.18a2,2,0,0,1,0-1.43A71.42,71.42,0,0,0,170,65.31a1.6,1.6,0,0,1,.25-.67,1.74,1.74,0,0,1,.5-.51l10.44-6a1.47,1.47,0,0,1,1.37,0l3.75,2.17a1.7,1.7,0,0,1,.5.5,1.67,1.67,0,0,1,.26.67c.7,6.54,2.7,11.38,5.41,14.64a1.6,1.6,0,0,1,.25,1.32Z" transform="translate(-15.33 -25.04)"/><path class="cls-14" d="M192.69,77.43,181.4,114.14l-.77-.45v.9l-5.12-3L164.34,88.18a2,2,0,0,1,0-1.43A71.42,71.42,0,0,0,170,65.31a1.6,1.6,0,0,1,.25-.67,1.74,1.74,0,0,1,.5-.51l10.44-6a1.47,1.47,0,0,1,1.37,0l3.75,2.17a1.7,1.7,0,0,1,.5.5,1.67,1.67,0,0,1,.26.67c.7,6.54,2.7,11.38,5.41,14.64a1.6,1.6,0,0,1,.25,1.32Z" transform="translate(-15.33 -25.04)"/><path class="cls-9" d="M192.69,77.43,181.4,114.14V83.47a5.44,5.44,0,0,0,1.82-3.94c0-1.62-1-2.37-2.2-1.66a5.25,5.25,0,0,0-1.6,1.84,5.14,5.14,0,0,0-.6,2.37c0,1.44.78,2.19,1.81,1.84v30.67L169.45,91.13a2,2,0,0,1,0-1.43,71.5,71.5,0,0,0,5.62-21.44,1.6,1.6,0,0,1,.25-.67,1.74,1.74,0,0,1,.5-.51l10.44-6a.46.46,0,0,1,.25-.1.43.43,0,0,1,.25.05.5.5,0,0,1,.2.18.58.58,0,0,1,.06.26c.7,6.54,2.7,11.38,5.41,14.64a1.63,1.63,0,0,1,.28.63A1.78,1.78,0,0,1,192.69,77.43Z" transform="translate(-15.33 -25.04)"/><path class="cls-1" d="M175.26,67.66a1.44,1.44,0,0,0-.21.6,71.8,71.8,0,0,1-5.62,21.44,2.11,2.11,0,0,0-.12.79l-5.12-3a2.06,2.06,0,0,1,.12-.78,71.42,71.42,0,0,0,5.62-21.44,1.64,1.64,0,0,1,.21-.61Z" transform="translate(-15.33 -25.04)"/><path class="cls-2" d="M187,61.33a.41.41,0,0,0-.1-.21.43.43,0,0,0-.19-.14.37.37,0,0,0-.23,0,.43.43,0,0,0-.22.09l-10.44,6a1.51,1.51,0,0,0-.54.58l-5.12-3a1.55,1.55,0,0,1,.54-.57l10.44-6a1.47,1.47,0,0,1,1.37,0l3.75,2.17A1.75,1.75,0,0,1,187,61.33Z" transform="translate(-15.33 -25.04)"/><path class="cls-9" d="M167.63,54.77l16.54-9.55a1.47,1.47,0,0,1,1.37,0l3.75,2.16a1.47,1.47,0,0,1,.48.51,1.42,1.42,0,0,1,.2.67v7.29a1.42,1.42,0,0,1-.2.67,1.47,1.47,0,0,1-.48.51l-16.54,9.55a1.45,1.45,0,0,1-1.36,0l-3.76-2.16a1.5,1.5,0,0,1-.48-.52,1.42,1.42,0,0,1-.2-.67V56a1.44,1.44,0,0,1,.19-.7A1.56,1.56,0,0,1,167.63,54.77Z" transform="translate(-15.33 -25.04)"/><path class="cls-15" d="M190,48.46c-.05-.36-.34-.49-.68-.29l-16.54,9.55a1.38,1.38,0,0,0-.48.51l-5.12-2.95a1.38,1.38,0,0,1,.48-.51l16.54-9.55a1.47,1.47,0,0,1,1.37,0l3.75,2.16a1.44,1.44,0,0,1,.45.47A1.46,1.46,0,0,1,190,48.46Z" transform="translate(-15.33 -25.04)"/><path class="cls-16" d="M172.64,66.64h-.38a1.4,1.4,0,0,1-.83-.16l-3.76-2.16a1.56,1.56,0,0,1-.48-.51,1.54,1.54,0,0,1-.2-.67V56a1.42,1.42,0,0,1,.2-.67l5.12,3a1.22,1.22,0,0,0-.2.67v7.29c0,.31.15.49.38.49h.09Z" transform="translate(-15.33 -25.04)"/><path class="cls-2" d="M180.63,114.59l-5.12-3L164.34,88.18a1.86,1.86,0,0,1-.15-.65l5.12,3a2.1,2.1,0,0,0,.14.65Z" transform="translate(-15.33 -25.04)"/><path class="cls-8" d="M181.4,83.47v30.67l-.77-.45V83.92c-1,.35-1.81-.4-1.81-1.84V82Z" transform="translate(-15.33 -25.04)"/><path class="cls-2" d="M205.05,74.65c0-.83-.59-1.17-1.31-.75a2.84,2.84,0,0,0-1.31,2.26c0,.67.39,1,.92.9-.74,15.41-11.52,33.56-24.68,41.16C172.14,122,166,122.61,161.42,120c-4.34-2.5-6.83-7.65-7.09-14.57a2.94,2.94,0,0,0,.93-2c0-.83-.59-1.17-1.31-.75a2.86,2.86,0,0,0-1.3,2.26c0,.71.42,1.06,1,.88.35,7,2.95,12.19,7.42,14.77a13.17,13.17,0,0,0,6.66,1.71A23,23,0,0,0,179,118.82c13.46-7.77,24.47-26.43,25-42.14A3,3,0,0,0,205.05,74.65Z" transform="translate(-15.33 -25.04)"/><path class="cls-2" d="M203.74,102.71a3,3,0,0,0-.81.79,3,3,0,0,0-.44,1l-47.3,27.3c-.17-.51-.65-.67-1.24-.33a2.86,2.86,0,0,0-1.3,2.26c0,.83.58,1.17,1.3.75a2.85,2.85,0,0,0,1.27-1.89l47.27-27.29c.15.55.65.73,1.25.38a2.84,2.84,0,0,0,.92-1,3,3,0,0,0,.39-1.29C205.05,102.63,204.46,102.29,203.74,102.71Z" transform="translate(-15.33 -25.04)"/><path class="cls-2" d="M155.78,104.14a1.84,1.84,0,0,1-.31,1,1.93,1.93,0,0,1-.83.69,1.81,1.81,0,0,1-1.08.1,1.84,1.84,0,0,1-1.46-1.45,1.81,1.81,0,0,1,.1-1.08,1.88,1.88,0,0,1,.69-.84,1.86,1.86,0,0,1,1-.31,1.89,1.89,0,0,1,1.31.54A1.86,1.86,0,0,1,155.78,104.14Z" transform="translate(-15.33 -25.04)"/><path class="cls-2" d="M155.71,133a1.86,1.86,0,0,1-.31,1,1.88,1.88,0,0,1-.84.69,1.78,1.78,0,0,1-1.07.1,1.86,1.86,0,0,1-1-.5,1.84,1.84,0,0,1-.51-1,1.78,1.78,0,0,1,.1-1.07,1.88,1.88,0,0,1,.69-.84,1.86,1.86,0,0,1,1-.31,1.85,1.85,0,0,1,1.31.54,1.77,1.77,0,0,1,.41.61A1.91,1.91,0,0,1,155.71,133Z" transform="translate(-15.33 -25.04)"/><path class="cls-2" d="M205.7,104.26a1.86,1.86,0,0,1-.31,1,1.88,1.88,0,0,1-.84.69,1.82,1.82,0,0,1-1.08.1,1.85,1.85,0,0,1-.95-.51,1.92,1.92,0,0,1-.51-.95,1.89,1.89,0,0,1,.11-1.08,1.93,1.93,0,0,1,.69-.83,1.84,1.84,0,0,1,1-.31,1.83,1.83,0,0,1,1.71,1.15A2,2,0,0,1,205.7,104.26Z" transform="translate(-15.33 -25.04)"/><path class="cls-2" d="M205.53,75.37a1.86,1.86,0,0,1-.31,1,1.88,1.88,0,0,1-.84.69,1.78,1.78,0,0,1-1.07.1,1.9,1.9,0,0,1-1-.5,1.94,1.94,0,0,1-.5-1,1.78,1.78,0,0,1,.1-1.07,1.88,1.88,0,0,1,.69-.84,1.86,1.86,0,0,1,1-.31,1.91,1.91,0,0,1,.71.14,1.79,1.79,0,0,1,1,1A1.91,1.91,0,0,1,205.53,75.37Z" transform="translate(-15.33 -25.04)"/><path class="cls-2" d="M150.24,36.46V51.87l-1.4.79V47.8c0-2.62-2.14-3.52-4.77-2l-6.54,3.78v23c0,3,1.86,4.43,4.15,3.11l4.07-2.35,4.45,2.57L128,88.75,125,87l-1.45.84V86.18l4.11-2.37c2.29-1.33,4.15-4.86,4.15-7.9v-23l-6.54,3.78c-2.63,1.52-4.77,4.87-4.77,7.49V69l-1.4.83V54.44Z" transform="translate(-15.33 -25.04)"/><path class="cls-2" d="M153.29,55.23l-4.45-2.57V45l4.45.85Z" transform="translate(-15.33 -25.04)"/><path class="cls-17" d="M154.69,39V54.44l-1.4.79V50.36c0-2.62-2.14-3.51-4.77-2L142,52.15v23c0,3,1.86,4.43,4.15,3.11l4.11-2.37v1.67L128,90.42V88.75l4.1-2.37c2.29-1.33,4.15-4.86,4.15-7.9v-23l-6.54,3.78c-2.63,1.52-4.76,4.87-4.76,7.49v4.86l-1.4.84V57Z" transform="translate(-15.33 -25.04)"/><path class="cls-15" d="M150.24,36.46,154.69,39,123.53,57l-4.45-2.57Z" transform="translate(-15.33 -25.04)"/><path class="cls-9" d="M119.08,54.44,123.53,57V72.43l-4.45-2.57Z" transform="translate(-15.33 -25.04)"/><path class="cls-9" d="M123.53,86.18,128,88.75v1.67l-4.46-2.57Z" transform="translate(-15.33 -25.04)"/><path class="cls-18" d="M351.08,205c-.63-4.38,8.66-28.37,13.76-39.63,4.47-9.88,7.86-9.31,15.58-9.74l.17,16.94-15.45,32.61" transform="translate(-15.33 -25.04)"/><path class="cls-3" d="M399.77,155.41l9.58.76c-2.17,12.84,6.23,25.08,6.23,25.08l-5.7,17.58c.15,2.33,6.91,10.43,9.93,20.78-7,9.42-35.57,12.73-46.83,4.46.06-5.78-.18-13.8.16-17.17l-1.91-16.5c-14.11-11.58,2.92-29.22,9.19-34.82h5.87Z" transform="translate(-15.33 -25.04)"/><path class="cls-13" d="M399.77,155.41l9.58.76c-2.17,12.84,6.23,25.08,6.23,25.08l-5.7,17.58c.15,2.33,6.91,10.43,9.93,20.78-7,9.42-35.57,12.73-46.83,4.46.06-5.78-.18-13.8.16-17.17l-1.91-16.5c-14.11-11.58,2.92-29.22,9.19-34.82h5.87Z" transform="translate(-15.33 -25.04)"/><path class="cls-18" d="M429.56,368.54s2.73-32,.64-47.14c-1.79-13-3.89-18.44-4.27-21.4,0,0-3.21-30.6-3.48-56.61-.12-12.34-1.2-25.89-10.45-40.13l-.33-.56c-.63,4.79-7.86,8.11-14.39,9.06-6.28.91-14.19-.09-23.68-3-1.68,12.39-3.28,36-4.85,61.63-.77,12.55-.22,23.07-.16,31.12.08,10.92,2.69,59.51,2.69,59.51v1.8c0,2-.43,3.39-1.72,6.6a38.67,38.67,0,0,1-6.83,11.31c-.91,1-7.2,6.48-8,7.65-2.7,3.16,2.89,4.93,7,4.38,4.39-.59,11.2-2.25,13.13-4.93,1.29-1.77,2.26-8,3.58-9.81,4.46-6.09,6.3-8.7,6.33-10.65.06-3.51-1.15-4.9-1.58-6.88.36-4.15,7.83-31.88,8-43.95.07-5.75-1.54-15.9-1.54-15.9l6-42.13c2,11.72,6,38.16,7.42,46.57,1.93,11.58,8.52,36.93,12.66,52.26,1.55,5.76,2.31,8.33,2.77,12.11l.13,1.35c.1,1.72.84,20,1.52,23.89,1.42,8.06,8.59,7,9.74.53,1-5.56-.25-22.74-.28-24.85Z" transform="translate(-15.33 -25.04)"/><path class="cls-10" d="M429.79,368.43c2,0,.69,7.86,1.21,12.9.56,5.4,2.33,9.34,2.84,13.77.58,5.06.13,7.18-1.69,11.33-1.41,3.24-8.5,7.67-11.19,3s-3.27-9.9-3-14.94c.32-5.21.63-9,.74-13,.09-3.49-2.6-11.69,0-12.19l.13,1.36c.94,1.88,9.92,3.18,11-.44Z" transform="translate(-15.33 -25.04)"/><path class="cls-19" d="M385.49,371.55c.62,2.52,0,9.44,0,9.44s-1.1,2.39-5,4l-1.75-9.62Z" transform="translate(-15.33 -25.04)"/><path d="M380.48,385l-8.58-2.81-2.07-7.62,9.64,4.88Z" transform="translate(-15.33 -25.04)"/><path class="cls-10" d="M371.56,362.74l-.05-1.8c-1.16.57-3.73,10-7.2,16.39-3.16,5.88-9.44,9.16-11.48,11.72-2.72,3.42,2.57,7.83,11.08,6,4.22-.9,10.61-3.6,12.34-6.45s2.32-8.08,3.74-10.17,4.78-4.51,5.5-6.89a13.1,13.1,0,0,0,0-6.58c-.67-2.17-1.25-4.79-2-4.56l-.05,1.65c-.57,1.16-2.62,2.51-6.92,2.75C374.47,364.92,372.49,364.6,371.56,362.74Z" transform="translate(-15.33 -25.04)"/><path class="cls-11" d="M373.14,206.9s2.6,4.2,19.6,3.61,18.91-7.89,18.91-7.89a94.65,94.65,0,0,1,8.16,13.52c3,6.51,4.44,16.3,4.9,31s2.35,53.35,2.35,53.35,2.42,8.93,3.18,13.78c0,0-6.23,8.06-23.86,5.31a90.94,90.94,0,0,1-4-14.4C401.47,299.11,396,260,396,260l-4.82,41.4s2.08,11.87.53,19.15c0,0-11.94,5.06-22.8-1,0,0-1.13-20.48-1.05-28.53.08-9.45.26-17.7,1.44-38.89C370.14,236.21,373.14,206.9,373.14,206.9Z" transform="translate(-15.33 -25.04)"/><path class="cls-10" d="M396,260l-4.64-26.71s-6,0-12.22-5.85c0,0,1.1,6,9.2,9.08L394,260.17l-2.12,35.19Z" transform="translate(-15.33 -25.04)"/><path class="cls-18" d="M409.35,156.17a11.39,11.39,0,0,1,12.38,6c2.26,4.53,17.32,30.57,20.62,37.81.9,2-2.72,13.52-8.88,10.33s-18.41-27.44-18.41-27.44S402.55,168.77,409.35,156.17Z" transform="translate(-15.33 -25.04)"/><g class="cls-20"><path class="cls-21" d="M423.06,167.32l0,0s0,0,0,0a1.07,1.07,0,0,0,.3,1,1.26,1.26,0,0,0,.38.27,1.14,1.14,0,0,0,.45.1.67.67,0,0,0,.2,0h.06a1.1,1.1,0,0,0,0-.54,1.41,1.41,0,0,0-.74-.81A1.15,1.15,0,0,0,423.06,167.32Zm.29.83a1.7,1.7,0,0,1-.16-.53v-.05l.16.11a1.39,1.39,0,0,1,.44.36,2.33,2.33,0,0,1,.26.38l.09.15a.88.88,0,0,1-.45-.11A.85.85,0,0,1,423.35,168.15Zm.06-.64a.72.72,0,0,1,.29.06.76.76,0,0,1,.25.18,1.07,1.07,0,0,1,.22.5A1.87,1.87,0,0,0,423.41,167.51Z" transform="translate(-15.33 -25.04)"/><path class="cls-21" d="M424.7,167.63a1.2,1.2,0,0,1-.37-.15l.25-.06-.09-.17h0l-.11-.2a1.07,1.07,0,0,0-.32.35.09.09,0,0,0,0,.07.12.12,0,0,0,.05.05.92.92,0,0,0,.31.28,1,1,0,0,0,.41.09C424.78,167.79,424.74,167.71,424.7,167.63Z" transform="translate(-15.33 -25.04)"/><path class="cls-21" d="M415.57,172.57v.06h.17a1.48,1.48,0,0,0,.64-.19,1.59,1.59,0,0,0,.49-.44.92.92,0,0,0,.19-.4.86.86,0,0,0-.05-.45.09.09,0,0,0,0-.07.07.07,0,0,0-.06,0h-.1a1.43,1.43,0,0,0-.6.17,1.38,1.38,0,0,0-.47.4,1,1,0,0,0-.22.42.94.94,0,0,0,0,.47Zm1.33-1.19a1.22,1.22,0,0,1-.35.78,1.24,1.24,0,0,1-.7.33,4.36,4.36,0,0,1,.41-.55,5.93,5.93,0,0,1,.53-.47Zm-.91.43a1.17,1.17,0,0,1,.75-.51,3.63,3.63,0,0,0-.93.86,1.48,1.48,0,0,1,.19-.35Z" transform="translate(-15.33 -25.04)"/><path class="cls-21" d="M422.7,164.25h0v.12a1,1,0,0,0,.36.62.39.39,0,0,1-.21,0,.37.37,0,0,1-.17-.13.39.39,0,0,1-.08-.2.31.31,0,0,1,0-.21.44.44,0,0,1,.08-.15Z" transform="translate(-15.33 -25.04)"/></g><path class="cls-3" d="M336.79,280.66l2.23-2.84,2.68-3.44L451.55,134.13c-.09,2.88,2.73,7.4,7.11,11.07,5.11,4.27,11.29,6.78,14.57,5.65L364.08,290.19l-5.14,6.56C362,292.32,340,276.26,336.79,280.66Z" transform="translate(-15.33 -25.04)"/><path class="cls-22" d="M336.79,280.66l2.23-2.84,2.68-3.44L451.55,134.13c-.09,2.88,2.73,7.4,7.11,11.07,5.11,4.27,11.29,6.78,14.57,5.65L364.08,290.19l-5.14,6.56C362,292.32,340,276.26,336.79,280.66Z" transform="translate(-15.33 -25.04)"/><path class="cls-9" d="M344.52,270.74l-4.93,6.38c-1.49,1.8,1.53,6,5.76,10,5.6,5.24,13.33,9.93,15.31,7.54l3.65-4.69,1.27-1.7c-2,2.38-9.71-2.31-15.32-7.54-4-3.78-7-7.85-5.87-9.75A.56.56,0,0,1,344.52,270.74Z" transform="translate(-15.33 -25.04)"/><path class="cls-3" d="M343.31,272.34c-3.48,4.18,17.59,21.68,21.06,17.51l5-6.38c-3.48,4.18-24.53-13.32-21.06-17.5Z" transform="translate(-15.33 -25.04)"/><path class="cls-13" d="M343.31,272.34c-3.48,4.18,17.59,21.68,21.06,17.51l5-6.38c-3.48,4.18-24.53-13.32-21.06-17.5Z" transform="translate(-15.33 -25.04)"/><path class="cls-9" d="M353,259.9l-4.9,6.29c-3.44,4.08,16.73,21.17,20.78,17.87a.73.73,0,0,0,.22-.21l4.89-6.37C370.43,281.56,349.49,264,353,259.9Z" transform="translate(-15.33 -25.04)"/><path class="cls-18" d="M481.22,121c-3.46-2.12-3.84-3.7-3.84-3.7l-25.82,16.88c-1.07,5.38,3.56,11.54,9.4,14.9l1-1.19Z" transform="translate(-15.33 -25.04)"/><path class="cls-15" d="M473.24,150.86l10.42-29.63Z" transform="translate(-15.33 -25.04)"/><path class="cls-2" d="M483.66,121.23l2.52-7.18Z" transform="translate(-15.33 -25.04)"/><path class="cls-11" d="M484.41,112.66l-7,4.59s.26,1.62,3.84,3.7l5-6.9a1.18,1.18,0,0,0-.38-1.34,1.06,1.06,0,0,0-.69-.25,1.17,1.17,0,0,0-.7.2Z" transform="translate(-15.33 -25.04)"/><path class="cls-23" d="M473.21,150.87l10.42-29.63a3.8,3.8,0,0,1-2.44-.28l-19.31,26.89L461,149C465,151.33,469.51,152.32,473.21,150.87Z" transform="translate(-15.33 -25.04)"/><path class="cls-10" d="M481.22,121a3,3,0,0,0,1.19.41,2.79,2.79,0,0,0,1.25-.13l2.52-7.18Z" transform="translate(-15.33 -25.04)"/><path class="cls-23" d="M360.66,294.63l-1,1.18-.07.09c-.37.45-.7.87-.72.88l-19.09,24.39-1.25,1.6c-1.33,1.09-3.35,1.56-5.91,1.21a18.9,18.9,0,0,1-7.66-3.11A20.74,20.74,0,0,1,317.3,312c-1.13-2.82-1-5.2.22-6.79l.15-.2,21.87-27.91s-1.77,4.35,8.16,12.09c.42.34.84.65,1.23,1,8.21,6.06,11.19,4.76,11.62,4.51Z" transform="translate(-15.33 -25.04)"/><path class="cls-6" d="M473.21,150.87,364.09,290.2l-4.45,5.7c-.37.45-.7.87-.72.88l-19.09,24.39-1.25,1.6c-1.33,1.09-3.35,1.56-5.91,1.21a18.9,18.9,0,0,1-7.66-3.11l28.69-36.75L461,149C465,151.33,469.51,152.31,473.21,150.87Z" transform="translate(-15.33 -25.04)"/><path class="cls-6" d="M387.87,215.44c.82-1.05,4.84-.16,6.41,1.18s5.53,3.81,8.81,3.29a68,68,0,0,1,11.57-1c3.36.15,5,.35,5,.35L428,208.57s-15,1.24-21.12,0S395.31,206,395.31,206Z" transform="translate(-15.33 -25.04)"/><path class="cls-6" d="M370.49,242.27a21.19,21.19,0,0,0,3.34,2.62,17.49,17.49,0,0,0,6.19,2.58,9,9,0,0,0,6.47-1.2,4,4,0,0,0,1.63-2,2.81,2.81,0,0,0-1-2.9c-1.23-1.08-2.63-2-3.93-3a30.2,30.2,0,0,1-3.67-3c-.27-.28-.55-.84-.12-1.1s1.4.2,2,.35a12,12,0,0,0,2.66.49,3.45,3.45,0,0,0,1.24-.12c.46-.14,1.24-.7,1.1-1.28-.07-.3-.37-.47-.64-.6a16.19,16.19,0,0,1-3.62-2c-.48-.42-1-.71-1.5-1.09a12.73,12.73,0,0,0-2.88-1.67l-9.22,11.77C369.14,240.87,369.79,241.58,370.49,242.27Z" transform="translate(-15.33 -25.04)"/><path class="cls-18" d="M442.35,200c3.18,6.64,5.32,12.12-2.69,14.12-6.08,1.52-21,3-30.39,3.11-1.47,0-4.55,1.42-7,1-7.12-1.26-10.94-5.62-13.61-3.81L386.61,217s-2.75-1.18-.25-6.54c2.13-4.55,5.55-7.1,9.25-7.1,3.47,0,10.2,3.53,12.56,3.58s13.64-2.71,20.65-4.15C438.14,200.92,442.35,200,442.35,200Z" transform="translate(-15.33 -25.04)"/><path class="cls-18" d="M387.14,240.15c-1.23-1.08-2.63-2-3.93-3a29.29,29.29,0,0,1-3.67-3c-.27-.28-.55-.83-.12-1.09s1.4.2,1.95.34a12,12,0,0,0,2.66.49,3.68,3.68,0,0,0,1.24-.11c.46-.15,1.24-.71,1.1-1.29-.07-.29-.37-.46-.64-.6a16,16,0,0,1-3.62-2c-.48-.42-1-.71-1.5-1.09a13.23,13.23,0,0,0-3.43-1.9c-1.1-.4-2.38-.51-3.33-1.24a7.25,7.25,0,0,1-2-2.83c-2.26-5.05-5.3-12-6.71-17.71L351.08,205a45.28,45.28,0,0,0,1.24,4.88c.94,2.52,2.82,6.85,4,9.28a100.09,100.09,0,0,0,6,11.24,59.64,59.64,0,0,0,8.17,10.6,22.08,22.08,0,0,0,3.34,2.61,17.49,17.49,0,0,0,6.19,2.58,8.86,8.86,0,0,0,6.47-1.2,4,4,0,0,0,1.63-2,2.76,2.76,0,0,0-.08-1.56A2.71,2.71,0,0,0,387.14,240.15Z" transform="translate(-15.33 -25.04)"/><path class="cls-11" d="M413.37,114.44l-5,4.09a2.79,2.79,0,0,1-.61-1.07,3,3,0,0,1-.14-1.22,3,3,0,0,1,.36-1.17,3.15,3.15,0,0,1,.81-.93,3.35,3.35,0,0,1,2.35-.76A3.3,3.3,0,0,1,413.37,114.44Z" transform="translate(-15.33 -25.04)"/><path class="cls-11" d="M400.3,151.1c0-3.13,7.31-7.84,11.08-14.45s1.9-17.44-3.28-19.11c0,0-.09-9.87-13.41-12.49s-17.5-5.57-19.86-6-2.84,8,.29,10.18a18.46,18.46,0,0,1-6-3.85c-1.94-1.87-2.71,7.89,1.47,11.31,0,0-3.46,2-3,7.17a8.64,8.64,0,0,0,2,5.12,8.54,8.54,0,0,0,4.67,2.88Z" transform="translate(-15.33 -25.04)"/><path class="cls-18" d="M377.58,114.09c-3.21,1.39-6.26,6.3-6.22,20,0,11.65,3.61,14.59,5.42,15.46s5.32.43,8.74-.1v6.69s-2.56,2.52-1.67,4.11,4.23,2.93,9.39,1.31c5.86-1.84,7.06-5.8,7.06-5.8l.25-14.59s2,2.07,5.43-1c2.86-2.5,3.89-6.8,1.75-9.16s-4.91-2.54-7.4.09l-.73-1.79c-2.13-.4-8.11.23-11.35-1.8C381.22,123.16,378.27,118.56,377.58,114.09Z" transform="translate(-15.33 -25.04)"/><path class="cls-3" d="M377.58,114.09a49.52,49.52,0,0,0,22.72,15.18s-6.37,2.74-14.49-2.58S377.58,114.09,377.58,114.09Z" transform="translate(-15.33 -25.04)"/><path class="cls-11" d="M400.3,129.27v6.47a3,3,0,0,1-1.22-.2,3.36,3.36,0,0,1-1-.68,3.06,3.06,0,0,1-.67-1,3,3,0,0,1-.2-1.22,3.34,3.34,0,0,1,3.12-3.34Z" transform="translate(-15.33 -25.04)"/><path class="cls-19" d="M377.28,130.18a1.52,1.52,0,0,1-.26.85,1.6,1.6,0,0,1-.69.57,1.56,1.56,0,0,1-1.68-.32,1.57,1.57,0,0,1-.37-1.66,1.54,1.54,0,0,1,.55-.71,1.49,1.49,0,0,1,.84-.29,1.61,1.61,0,0,1,1.12.45A1.56,1.56,0,0,1,377.28,130.18Z" transform="translate(-15.33 -25.04)"/><path class="cls-19" d="M389.6,130.87a1.8,1.8,0,0,1-.09.65,1.73,1.73,0,0,1-.87,1,1.77,1.77,0,0,1-.64.16,1.72,1.72,0,0,1-1-.22,1.7,1.7,0,0,1-.69-.74,1.73,1.73,0,0,1-.16-1,1.66,1.66,0,0,1,.42-.92,1.74,1.74,0,0,1,.87-.52,1.66,1.66,0,0,1,1,.05,1.7,1.7,0,0,1,.81.61A1.66,1.66,0,0,1,389.6,130.87Z" transform="translate(-15.33 -25.04)"/><path class="cls-23" d="M387.45,139.82l-5,1.55a2.61,2.61,0,0,0,.42.95,2.54,2.54,0,0,0,.76.7,2.6,2.6,0,0,0,1,.34,2.57,2.57,0,0,0,1-.08,2.89,2.89,0,0,0,1.81-3.46Z" transform="translate(-15.33 -25.04)"/><path class="cls-19" d="M373.19,127.3l4-1.58a2,2,0,0,0-.43-.72,2,2,0,0,0-2.33-.5,2.22,2.22,0,0,0-1.24,2.8Z" transform="translate(-15.33 -25.04)"/><path class="cls-23" d="M381.05,128.92l.2,9.54-5.13-1.14Z" transform="translate(-15.33 -25.04)"/><path class="cls-23" d="M385.52,149.49c3.61-.42,11.05-2.49,12.26-5.52a7.86,7.86,0,0,1-2.67,3.84c-2.25,1.93-9.59,3.93-9.59,3.93Z" transform="translate(-15.33 -25.04)"/><path class="cls-19" d="M282.33,111.33V111a11.59,11.59,0,0,0,1.77-12.91,11,11,0,0,0-11-6.38,20,20,0,0,0-11.65-3.54,23.17,23.17,0,0,0-23.19,23.18c0,2-.09,4.08,0,6.11.06,3.21-1,5-2.77,6.26-2.06,1.46-4.34,2.59-6.38,4.07a10.37,10.37,0,0,0-2.86,13c.67,1.2,1.43,2.36.78,3.76a5.1,5.1,0,0,1-1.7,1.9c-.7.51-1.44.94-2.11,1.49a8.28,8.28,0,0,0-2.66,7.87c.69,3.37,3.16,5.44,6.09,6.88a37.54,37.54,0,0,0,19.24,3.51c6.57-.49,11.85-2.58,17.71-5.61a37.54,37.54,0,0,0,14.06-12.71,23.43,23.43,0,0,0,4.1-8.87,55,55,0,0,0,.73-9.84c0-3.15-.11-10.83-.11-16.24Z" transform="translate(-15.33 -25.04)"/><path class="cls-24" d="M272.27,139.63c3.8.4,9.15.28,12.34,5.77s18.12,45.24,18.12,45.24H288.59l-16.41-33Z" transform="translate(-15.33 -25.04)"/><path class="cls-19" d="M231.77,362.62a53.46,53.46,0,0,0-.81,8.56c-.1,5.19-1.06,7-1.18,11.29-.15,4.87.69,6.69,2.67,9.43s7.16,5.21,9.35.59,1.91-7.66,1.21-12.43c-.72-4.94-.82-7.66-1.24-11.43-.37-3.32-.81-5.84-.81-5.84Z" transform="translate(-15.33 -25.04)"/><path class="cls-24" d="M246.51,321.8l-17.1-.31c.25,11.42,2.07,30.42,2.36,41.13.06,2-.05,15.67.71,19.82,1.14,6.23,8.54,5.39,8.93,1.66s-.47-19.67-.45-21.31c-.06-6.87,3.16-24.8,4.84-37.13C245.89,325.06,246.43,322.39,246.51,321.8Z" transform="translate(-15.33 -25.04)"/><path class="cls-19" d="M271.64,353.74s-.88.05-1,.77a36,36,0,0,1-.56,3.62,20.35,20.35,0,0,0-.61,6.77c.29,1.59,3.93,4,6.42,4.39s6,2.87,7.95,4.71a19.05,19.05,0,0,0,11.06,4.34c4.15,0,7.05-1.38,8.42-3.6s-1.25-2.5-6-5.58l-3.69-2.39c-7.52-4.91-10.27-7.55-12.4-12.46Z" transform="translate(-15.33 -25.04)"/><path class="cls-24" d="M281.27,351.07c-.12-3.54,1.69-29.58,1.69-29.58l-14.71,1.66C271.72,343.91,272,351,271.61,354a2.56,2.56,0,0,0-.09.87c0,4,4.56,6.21,8.11,8.89,1.41,1.07,5,4.34,9.23,5.78,2.74.93,7.79,1.28,8.44-.38-4.32-3.3-10.2-7.61-13.64-11.38C282,356,281.4,354.6,281.27,351.07Z" transform="translate(-15.33 -25.04)"/><path class="cls-10" d="M232.37,204.51c-5.23,22.93,1.29,77.79,1.29,77.79-.24,2.85-3.49,8.45-4.7,21-1.43,14.79,2.64,54.39,2.64,54.39s3.91,2.92,9.58.2c0,0,10.35-58.18,12.2-72.88,1.62-12.84,6.15-43.85,6.15-43.85l7.41,43.78a76.45,76.45,0,0,0-2.8,12.67c-.83,8.65,7.59,52.06,7.59,52.06s3.94,2.08,9.54-.19c0,0,5.41-55.75,6.19-66.17,1-13.95-1.64-57.54-3-77.86Z" transform="translate(-15.33 -25.04)"/><path class="cls-25" d="M259.53,241.12l1.9-13.06s11-1.48,16-6.17a18,18,0,0,1-13,8.21l-1.95,11.82,3.69,38.59Z" transform="translate(-15.33 -25.04)"/><path class="cls-17" d="M280.53,173.8c.67,6.21,4.27,33.56,4.27,33.56-20.5,10.94-49.27,3.61-53.16-.9,3.53-11.6,9.07-17.88,11.21-21.5l-3.74-15.66s10.36-12.67,3.34-28.23l8.74-.94,15.34-.5h5.74c2.45,2.29,8.36,7.77,10.85,14.16C284.73,157.92,286.29,161.58,280.53,173.8Z" transform="translate(-15.33 -25.04)"/><path class="cls-2" d="M241.19,177.48c.18.71,5.33,7.54,7.68,9s-4.17,3.57-5.09,7.28c-1.86,7.5,9.74,17.36,24.16,18.73-16.3,2.68-33.33-2.63-36.3-6.07,3.53-11.6,9.08-17.91,11.21-21.5Z" transform="translate(-15.33 -25.04)"/><path class="cls-24" d="M242.45,141.07c-10.4.38-11.74,5.34-13.85,11.28-2.87,8.3-8.25,28.84-10.19,38.29h15.7l5-21.34C248.54,160.6,245.82,145.46,242.45,141.07Z" transform="translate(-15.33 -25.04)"/><path class="cls-3" d="M279.81,123.77a4.89,4.89,0,0,1,2.7.81,4.85,4.85,0,0,1,2.08,5,4.85,4.85,0,0,1-6.63,3.55,4.86,4.86,0,0,1,1.85-9.35Zm0-1a5.91,5.91,0,0,0-3.26,1,5.86,5.86,0,0,0-.9,9A5.83,5.83,0,0,0,282,134a5.84,5.84,0,0,0,3.62-5.41,5.82,5.82,0,0,0-1.71-4.14,5.66,5.66,0,0,0-1.9-1.27A5.74,5.74,0,0,0,279.81,122.77Z" transform="translate(-15.33 -25.04)"/><path class="cls-24" d="M276.2,99.4c2.61,1.46,6.21,4.5,5.11,18-.86,10.56-4.88,14.45-6.73,15.31s-4.21,1-7.73.48l.1,6.32s6.81,7.23,5.95,9.23c-1,2.42-8.95,2.11-12.36.62a18.5,18.5,0,0,1-9.16-9.25V124.49s-2,2-5.59-.93c-2.94-2.46-4-6.7-1.81-9a4.82,4.82,0,0,1,2.09-1.25,4.7,4.7,0,0,1,2.44-.07,5.89,5.89,0,0,1,3.94,3.42,1.24,1.24,0,0,0,.29.46,1.19,1.19,0,0,0,.46.27.91.91,0,0,0,.4-.06.93.93,0,0,0,.32-.24,2,2,0,0,0,.39-.71c.84-2.21.58-4.58,1.19-6.84a13.22,13.22,0,0,1,2.49-4.79A16.52,16.52,0,0,1,268.74,99,22,22,0,0,1,276.2,99.4Z" transform="translate(-15.33 -25.04)"/><path class="cls-19" d="M278.05,99.31c.88,4.18-2,11.23-9.49,11,0,0,3.05-2.32,3.43-4.91a14.63,14.63,0,0,1-11.66,6c-6.38.27-8-1.17-8-1.17S258.54,89.83,278.05,99.31Z" transform="translate(-15.33 -25.04)"/><path class="cls-19" d="M265.19,113.77a1.54,1.54,0,0,1-.39,1.1,1.51,1.51,0,0,1-1,.53,1.4,1.4,0,0,1-.58-.06,1.48,1.48,0,0,1-.52-.29,1.6,1.6,0,0,1-.36-.46,1.42,1.42,0,0,1-.15-.57,1.56,1.56,0,0,1,1.44-1.63,1.42,1.42,0,0,1,.58.06,1.36,1.36,0,0,1,.51.29,1.44,1.44,0,0,1,.36.46A1.42,1.42,0,0,1,265.19,113.77Z" transform="translate(-15.33 -25.04)"/><path class="cls-26" d="M265.66,123.69l5.27,1.55a2.62,2.62,0,0,1-.45,1,2.79,2.79,0,0,1-.8.73,2.7,2.7,0,0,1-1,.36,2.81,2.81,0,0,1-1.08-.08,2.87,2.87,0,0,1-1.91-3.55Z" transform="translate(-15.33 -25.04)"/><path class="cls-19" d="M279,110.72l-3-1.66a1.76,1.76,0,0,1,.41-.53,1.44,1.44,0,0,1,.58-.32,1.64,1.64,0,0,1,.66-.08,1.6,1.6,0,0,1,.64.2,1.81,1.81,0,0,1,.82,1.06A1.85,1.85,0,0,1,279,110.72Z" transform="translate(-15.33 -25.04)"/><path class="cls-19" d="M277.54,113.51a1.52,1.52,0,0,1-.39,1.1,1.55,1.55,0,0,1-1,.53,1.4,1.4,0,0,1-.58-.06,1.49,1.49,0,0,1-.88-.75,1.42,1.42,0,0,1-.15-.57,1.56,1.56,0,0,1,1.44-1.63,1.4,1.4,0,0,1,.58.06,1.48,1.48,0,0,1,.52.29,1.6,1.6,0,0,1,.36.46A1.42,1.42,0,0,1,277.54,113.51Z" transform="translate(-15.33 -25.04)"/><path class="cls-26" d="M269.79,112.9l.42,8.7,4.54-1.52Z" transform="translate(-15.33 -25.04)"/><path class="cls-26" d="M266.85,133.21c-3.71-.7-11.41-3-12.66-6a8.73,8.73,0,0,0,2.88,4.3c2.31,1.9,9.82,3.9,9.82,3.9Z" transform="translate(-15.33 -25.04)"/><path class="cls-3" d="M251.38,132.81v1.13a5.85,5.85,0,0,1-7-9,5.9,5.9,0,0,1,2-1.61,5.81,5.81,0,0,1,2.53-.57.51.51,0,0,1,.5.5.51.51,0,0,1-.5.5,4.85,4.85,0,1,0,2.45,9Z" transform="translate(-15.33 -25.04)"/><path class="cls-3" d="M325.09,182.16H197a5,5,0,0,0-5,5v76.1a5,5,0,0,0,5,5H325.09a5,5,0,0,0,5-5v-76.1A5,5,0,0,0,325.09,182.16Z" transform="translate(-15.33 -25.04)"/><path class="cls-27" d="M319.53,187.61h-117a4.46,4.46,0,0,0-4.46,4.46v66.28a4.46,4.46,0,0,0,4.46,4.46h117a4.46,4.46,0,0,0,4.46-4.46V192.07A4.46,4.46,0,0,0,319.53,187.61Z" transform="translate(-15.33 -25.04)"/><path class="cls-3" d="M232.68,204.47a5.88,5.88,0,1,0-8.27.85A5.88,5.88,0,0,0,232.68,204.47Z" transform="translate(-15.33 -25.04)"/><path class="cls-24" d="M315.48,177.17c-6.61,1.08-8.51,5-8.51,5h5.41s.68,1.82-1.14,8.64c-.64,2.39,2.9,2.46,3,1.56.64,1.47,5.29,3.52,8.77,1.21,3.18-2.11,4.61-5.34,3.9-11.41C325.69,175.38,316.64,177,315.48,177.17Z" transform="translate(-15.33 -25.04)"/><path class="cls-24" d="M207.46,177.17c6.62,1.08,8.52,5,8.52,5h-5.41s-.68,1.82,1.14,8.64c.64,2.39-2.9,2.46-3,1.56-.64,1.47-5.28,3.52-8.76,1.21-3.19-2.11-4.61-5.34-3.9-11.41C197.26,175.38,206.3,177,207.46,177.17Z" transform="translate(-15.33 -25.04)"/><path class="cls-18" d="M69.71,389.45c3.5,1.88,7.76,1.73,11.92,0l1.72-22.66-13.64,1.8Z" transform="translate(-15.33 -25.04)"/><path class="cls-18" d="M111.53,375.9c3,6.39,8.28,4.62,14.29.53l-1.06-22.77H110.28Z" transform="translate(-15.33 -25.04)"/><path class="cls-19" d="M95.24,410.9c.38.36.26,2.83-.16,3.5s-3.07,2.94-7.79,3.28c-4.52.32-8.55-.29-11.2-2s-3.93-3.54-4.18-6.11,0-5.05-1.19-7-2.94-3.89-3.33-4.88c-.85-2.16,0-5.24,0-5.24Z" transform="translate(-15.33 -25.04)"/><path class="cls-10" d="M82.85,388.45a12.69,12.69,0,0,0,.55,2.86A26.28,26.28,0,0,0,86.17,397a22.29,22.29,0,0,0,1.88,2.65c1.36,1.63,3.06,3,4.51,4.52a9.22,9.22,0,0,1,2.78,5.54c.19,3.54-3.65,4.75-6.61,5.27a21.53,21.53,0,0,1-9.61-.48,8.85,8.85,0,0,1-6.48-7.06c-.16-1-.1-2-.22-3a13.85,13.85,0,0,0-2.75-6.2,18.33,18.33,0,0,1-2.11-3.37c-.93-2.19-.19-4.66.4-6.84.51-1.89,1.09-4,1.75-3.84a2.57,2.57,0,0,0,.16,1.13,4.75,4.75,0,0,1,.52,1.12,9.47,9.47,0,0,0,.54,1.46,3.82,3.82,0,0,0,1.57,1.73c0-1.34.09-2.67.13-4a1.89,1.89,0,0,1,.31-1.18,1.84,1.84,0,0,1,1.13-.49,25.11,25.11,0,0,1,7.58-.63,1.15,1.15,0,0,1,.52.06,1.08,1.08,0,0,1,.43.3,1,1,0,0,1,.24.47,1,1,0,0,1,0,.52A33.85,33.85,0,0,0,82.85,388.45Z" transform="translate(-15.33 -25.04)"/><path class="cls-1" d="M86.64,397.71c-1.32-1-4.27-1-5.89-.83a9.93,9.93,0,0,0-4.59,1.61,1,1,0,0,1-.69.21,1,1,0,0,1-.66-.31,1,1,0,0,1-.23-.36,1.16,1.16,0,0,1-.07-.42,1,1,0,0,1,.12-.41,1.22,1.22,0,0,1,.28-.32A9.94,9.94,0,0,1,80.08,395c4-.28,5.14.4,5.14.4S87,396.54,86.64,397.71Z" transform="translate(-15.33 -25.04)"/><path class="cls-1" d="M89.67,401.34c-1.65-1-4.9-.84-6.52-.67a9.24,9.24,0,0,0-4.46,1.7,1,1,0,0,1-.7.19,1.09,1.09,0,0,1-.66-.3,1,1,0,0,1-.23-.36,1,1,0,0,1-.06-.41,1,1,0,0,1,.39-.73,10.36,10.36,0,0,1,5.28-2.07c4-.28,5,.53,5,.53a3.24,3.24,0,0,1,2,2.12Z" transform="translate(-15.33 -25.04)"/><path class="cls-1" d="M78.49,391.16a10,10,0,0,1,5,.42c.7.4,1.16,1.5.71,1.78a9.31,9.31,0,0,0-4.43-.61,13.12,13.12,0,0,0-4.3,1.19c-.34.15-.74.36-1.09.55a1.09,1.09,0,0,1-.36.12,1,1,0,0,1-.38,0,.93.93,0,0,1-.34-.18,1.14,1.14,0,0,1-.23-.3.89.89,0,0,1,0-.64.85.85,0,0,1,.39-.5A12.73,12.73,0,0,1,78.49,391.16Z" transform="translate(-15.33 -25.04)"/><path class="cls-19" d="M149.54,390.47a4.32,4.32,0,0,1-.17,3.16c-.44.92-5.26,3.63-11.76,3.2a27,27,0,0,1-13.43-4.7c-2.48-1.64-5.06-1.95-8.28-2.13s-7.44-1.79-8.14-3.29.1-4.1.1-4.1Z" transform="translate(-15.33 -25.04)"/><path class="cls-10" d="M123.43,370.49l1.69-.61a1.39,1.39,0,0,1,1-.11c.42.15.58.64.69,1.07a16.18,16.18,0,0,0,.71,2.82,6.8,6.8,0,0,0,1.82,1.92,29.94,29.94,0,0,0,5.2,3.35c2.12,1.14,4.2,2,6.39,3s5.21,1.62,7,2.8c2.55,1.72,2.88,6,0,7.74-2.51,1.47-9.1,3.07-16,1.11-3.77-1.07-8-5.09-12.9-5.48-3.14-.25-9.09-1.13-11.11-3.52-.75-1.06.25-4.41,1.07-7.31.9-3.16,1.24-8.11,2.28-7.83.08,1.05,1,1.66,1.54,2.54a18.19,18.19,0,0,1,1.13,2.51,4.65,4.65,0,0,0,1.64,2.17,2.09,2.09,0,0,0,2.55-.15c.92-.95.37-2.63,1-3.78a4,4,0,0,1,2.22-1.45Z" transform="translate(-15.33 -25.04)"/><path class="cls-1" d="M131.56,377.22a2.82,2.82,0,0,0-1-1.07,2.89,2.89,0,0,0-1.36-.48c-1.43-.27-4,.78-5.53,2.08a1.25,1.25,0,0,0-.34.45,1.37,1.37,0,0,0-.09.57,1.13,1.13,0,0,0,.19.53,1.1,1.1,0,0,0,.41.39,1.26,1.26,0,0,0,.69.14,1.21,1.21,0,0,0,.65-.29A9,9,0,0,1,131.56,377.22Z" transform="translate(-15.33 -25.04)"/><path class="cls-1" d="M136,379.7a3.43,3.43,0,0,0-1.2-1,3.47,3.47,0,0,0-1.55-.37s-3.74.1-6,2.26a1.31,1.31,0,0,0-.33.44,1.1,1.1,0,0,0-.08.54,1.28,1.28,0,0,0,.17.51,1.1,1.1,0,0,0,1.07.51,1.1,1.1,0,0,0,.62-.28,9,9,0,0,1,7.3-2.57Z" transform="translate(-15.33 -25.04)"/><path class="cls-1" d="M140.89,381.94a3.58,3.58,0,0,0-1.29-.95,3.8,3.8,0,0,0-1.56-.33,10,10,0,0,0-5.8,2.29,1.31,1.31,0,0,0-.33.44,1.1,1.1,0,0,0-.08.54,1.14,1.14,0,0,0,.17.51,1.1,1.1,0,0,0,1.07.51,1.1,1.1,0,0,0,.62-.28,8.76,8.76,0,0,1,3.28-2.22A8.58,8.58,0,0,1,140.89,381.94Z" transform="translate(-15.33 -25.04)"/><path class="cls-11" d="M71.45,223.92c-.82,24.8-.76,79.74-.76,79.74-.26,3.08-1.51,9.42-2.54,21.77-1.34,16.06,1.56,51.39,1.56,51.39a16.38,16.38,0,0,0,13,.07s7.75-50.36,10.21-66.24c2.16-14,6.4-40.26,6.4-40.26l4.88,35.71a84.24,84.24,0,0,0,.5,20.38c1.14,7.31,6.2,37.36,6.2,37.36a25.62,25.62,0,0,0,14.36-.54s.48-52.07.61-58.84c.15-7.72-3.42-86.65-3.42-86.65Z" transform="translate(-15.33 -25.04)"/><path class="cls-19" d="M99.27,270.39l3.67-20.32s10.16-.89,15.78-6.56c0,0-1,5.56-13.78,8.89L101.27,273l2.88,33.14Z" transform="translate(-15.33 -25.04)"/><path class="cls-28" d="M158.4,165c-1.29,2.81-14.13,21.64-14.13,21.64-4-4.47-15.24-20.08-21.78-23.28-6.38-3.11-16.95-2.25-16.95-2.25l15.61,24.64s10.94,11,17.95,16.4c4.84,3.69,9.64,6.66,17.17-6.77,4.51-8,9.57-18.55,10.88-21.18a7.92,7.92,0,0,1,5.48-4.24c.7-.14,1.4-.3,2.09-.48,1.53-.42,3.31-1.1,3.82-2.77.18-.57.21-1.18.34-1.76.2-.89.6-1.72.8-2.6a3.51,3.51,0,0,0-.06-1.82c-.17-.51-.65-.94-.68-1.5a2,2,0,0,1,.23-.79,3.45,3.45,0,0,0,.16-1.8,3.33,3.33,0,0,0-.77-1.63,4,4,0,0,1-.63-.74c-.32-.59-.16-1.33-.31-2-.67-3-5.87-.8-7.49.07-.47.25-2.77,1.41-3.79,2a16.64,16.64,0,0,0-1.37-4.79c-1.27-3-4.61-3.63-4.45-1.72a37,37,0,0,1-.06,6.49,35.11,35.11,0,0,0-.25,4.1C160.22,160.53,159.87,161.79,158.4,165Z" transform="translate(-15.33 -25.04)"/><path class="cls-3" d="M109.77,160.61c9.56.46,11.67.6,17.78,6.14s16.55,19,16.55,19l8.18-11a10.76,10.76,0,0,0,4.49,4.94,15.65,15.65,0,0,0,6.84,1.7A187.5,187.5,0,0,1,155,198.45c-4.22,7.06-7.55,9.65-13.77,5.87s-27-24-27-24Z" transform="translate(-15.33 -25.04)"/><path class="cls-29" d="M167.86,154.81c-1.71.71-2.09,1.92-1.82,4.45.17,1.49,0,4.3-1.56,5.56a3.91,3.91,0,0,0,2-1.11c.7-.86.91-1,1.38-.56a2.62,2.62,0,0,0,1.18.55,2,2,0,0,0,0,2.34c.9,1.22,4.42.94,7.17-.8,0,0-4.55,1.87-5.77.48s1.1-3.47,2.9-4.14c0,0-4.42,1.48-5.25.06s1-2.71,3.55-3.62c0,0-3.68,1-4.43-.2C166.36,156.35,167.41,155.36,167.86,154.81Z" transform="translate(-15.33 -25.04)"/><path class="cls-15" d="M121.15,179.65c-1.1-7.94-2.14-18.61-14.45-19.1l-15.88.75c-3.91,1-19.11,2.82-19.11,2.82l-.29,34.45s-1,24.83-.67,38.13c11.37,7.21,36.11,9.54,51.65-2.25C122.86,223.48,122.23,187.51,121.15,179.65Z" transform="translate(-15.33 -25.04)"/><path class="cls-3" d="M122.22,115.34a3.38,3.38,0,0,0-.45-1.89,3.43,3.43,0,0,0-1.43-1.32,5.89,5.89,0,0,0-3.88-.38,4.68,4.68,0,0,0-2.88-4.65,5.39,5.39,0,0,0-5.9.9c.36-1.4-.93-2.8-2.34-3.08a7.62,7.62,0,0,0-4.2.77c-2,.8-4,1.69-6,2.41-3.57,1.26-7.38,2-10.6,4a6.49,6.49,0,0,0-2,1.76,5.71,5.71,0,0,0-.85,3.58,7.2,7.2,0,0,0,.19,1.22A3.18,3.18,0,0,0,81,118a2.89,2.89,0,0,0-1.18-.32,3,3,0,0,0-2.26.83,2.93,2.93,0,0,0-.69,1l3.83,1.9a5.51,5.51,0,0,0-2.84,1.65c-1.92,2.09-.6,8.42,2.07,14.56,0,0,2.79,11.26,3.82,13.1a5.08,5.08,0,0,0,3,2.29l-.37-6.87L115,143.62l-2.86-2a15.73,15.73,0,0,0,9-14.73,15.46,15.46,0,0,0-2-7.24C120.62,118.46,122,116.93,122.22,115.34Z" transform="translate(-15.33 -25.04)"/><path class="cls-4" d="M122.22,115.34a3.38,3.38,0,0,0-.45-1.89,3.43,3.43,0,0,0-1.43-1.32,5.89,5.89,0,0,0-3.88-.38,4.68,4.68,0,0,0-2.88-4.65,5.39,5.39,0,0,0-5.9.9c.36-1.4-.93-2.8-2.34-3.08a7.62,7.62,0,0,0-4.2.77c-2,.8-4,1.69-6,2.41-3.57,1.26-7.38,2-10.6,4a6.49,6.49,0,0,0-2,1.76,5.71,5.71,0,0,0-.85,3.58,7.2,7.2,0,0,0,.19,1.22A3.18,3.18,0,0,0,81,118a2.89,2.89,0,0,0-1.18-.32,3,3,0,0,0-2.26.83,2.93,2.93,0,0,0-.69,1l3.83,1.9a5.51,5.51,0,0,0-2.84,1.65c-1.92,2.09-.6,8.42,2.07,14.56,0,0,2.79,11.26,3.82,13.1a5.08,5.08,0,0,0,3,2.29l-.37-6.87L115,143.62l-2.86-2a15.73,15.73,0,0,0,9-14.73,15.46,15.46,0,0,0-2-7.24C120.62,118.46,122,116.93,122.22,115.34Z" transform="translate(-15.33 -25.04)"/><path class="cls-28" d="M99,123.7c-2.63-.31-5.24-.74-7.85-1.15a1,1,0,0,0-.35,0,.93.93,0,0,0-.33.12.86.86,0,0,0-.23.39c-1.71,5-1.67,10.43-3,15.54-.12.46-.41,1.25-1,1.32-1,.12-1.7-.78-2.13-1.57l-1-1.75a4.45,4.45,0,0,0-.72-.9c-1.22-1.13-4.84-2.51-6.52,1.34s1.91,9.07,4.83,9.89c5,1.4,5.67-1.82,5.67-1.82l1,17.95c4.44,4.65,19.08,3,16.18-1l-.19-5.47a31.45,31.45,0,0,0,6.72.13c3.65-.69,5.86-3.65,6.84-7.65,1.58-6.42,2.09-11.59.17-24.06a15.58,15.58,0,0,0-.9-3.36C111.06,124.44,104.82,124.39,99,123.7Z" transform="translate(-15.33 -25.04)"/><path class="cls-29" d="M103.35,156.56s-8.23-1.38-11.14-2.81A9.4,9.4,0,0,1,88.14,150a12.87,12.87,0,0,0,2.39,4.54c2.18,2.61,12.89,4.23,12.89,4.23Z" transform="translate(-15.33 -25.04)"/><path class="cls-19" d="M100.87,136.27a1.49,1.49,0,0,1-.26.84,1.55,1.55,0,0,1-.68.56,1.47,1.47,0,0,1-.88.09,1.52,1.52,0,0,1-.78-.41,1.46,1.46,0,0,1-.42-.77,1.53,1.53,0,0,1,1.44-1.85,1.6,1.6,0,0,1,1.11.45A1.58,1.58,0,0,1,100.87,136.27Z" transform="translate(-15.33 -25.04)"/><path class="cls-19" d="M99.73,129l-3.68,1.59a2.13,2.13,0,0,1,0-1.57,2.1,2.1,0,0,1,1.08-1.13,2,2,0,0,1,1.53,0A2,2,0,0,1,99.73,129Z" transform="translate(-15.33 -25.04)"/><path class="cls-29" d="M100.87,146.66l4.67,1.58a2.4,2.4,0,0,1-1.2,1.47,2.32,2.32,0,0,1-.93.27,2.41,2.41,0,0,1-1-.11,2.57,2.57,0,0,1-1.58-3.21Z" transform="translate(-15.33 -25.04)"/><path class="cls-19" d="M116.79,130.47l-3.67-1.4a2,2,0,0,1,1-1.08,2.05,2.05,0,0,1,.74-.17,2.11,2.11,0,0,1,.74.14,2,2,0,0,1,1.1,1A2,2,0,0,1,116.79,130.47Z" transform="translate(-15.33 -25.04)"/><path class="cls-19" d="M92.22,131.79l-12.83,2.68a4.65,4.65,0,0,1,2.07.51,4.53,4.53,0,0,1,1.64,1.37l9.07-1.73Z" transform="translate(-15.33 -25.04)"/><path class="cls-19" d="M115.27,136.31a1.54,1.54,0,0,1-.09.6,1.48,1.48,0,0,1-.31.53,1.6,1.6,0,0,1-.49.36,1.47,1.47,0,0,1-.59.15,1.59,1.59,0,0,1-1.59-1.55,1.69,1.69,0,0,1,.06-.63,1.53,1.53,0,0,1,.31-.54,1.55,1.55,0,0,1,.5-.38,1.66,1.66,0,0,1,.62-.15,1.48,1.48,0,0,1,.62.11,1.64,1.64,0,0,1,.52.35,1.55,1.55,0,0,1,.34.53A1.47,1.47,0,0,1,115.27,136.31Z" transform="translate(-15.33 -25.04)"/><path class="cls-10" d="M121.82,131.23l-.83-.09c-2.71-.25-6.26-.27-8.41.43-2.69.88-3.65,1.83-5.14,1.86s-2.57-.89-5.41-1.66c-2.27-.62-6.06-.46-9-.11l-.91.12a1.51,1.51,0,0,0-1,1.53,3.25,3.25,0,0,0,.83,1.75,2.29,2.29,0,0,1,.28.71c.28,1.22.43,3.56,1,4.85a6,6,0,0,0,1.11,1.73,4.63,4.63,0,0,0,.58.5l.33.23a5.36,5.36,0,0,0,1,.47h.17l.27.08.28.06a5.19,5.19,0,0,0,.88.13h.86a6.45,6.45,0,0,0,3.69-.89,6.37,6.37,0,0,0,2.52-2.84c1-1.86.76-4.47,2.46-4.5h.31c1.25.28,1,2.67,1.81,4.38a6.56,6.56,0,0,0,1.17,1.86,3.83,3.83,0,0,0,.28.29l.15.13.16.13.15.11.15.11.13.08.08,0a5.1,5.1,0,0,0,1.46.57h.14a6.74,6.74,0,0,0,1.79.15,5.37,5.37,0,0,0,5.26-3.47,31.57,31.57,0,0,0,1.15-4.89,1.47,1.47,0,0,1,.32-.65,3.4,3.4,0,0,0,.81-1.81A1.31,1.31,0,0,0,121.82,131.23ZM104,138.45a5.72,5.72,0,0,1-1.32,2.59,5.38,5.38,0,0,1-1.84,1.2,5.3,5.3,0,0,1-2.16.34,4.2,4.2,0,0,1-2.15-.4,4.31,4.31,0,0,1-1.68-1.4l-.12-.18-.11-.18-.09-.18-.07-.15L94.4,140v-.11l-.07-.18a4.76,4.76,0,0,1-.19-.53L94,138.8a2.64,2.64,0,0,0-.12-.52v-.19c-.26-1.29-.55-3.82.09-4.4s2.34-1.21,5.07-1h.3a10.49,10.49,0,0,1,1.25.2l.48.11a10.58,10.58,0,0,1,1.21.38l.37.15.41.19h.08l.14.09a2.36,2.36,0,0,1,.81.66C104.55,135.33,104.35,137,104,138.45Zm16-.85c-.23,1-.73,3.2-2.67,4.18a4.77,4.77,0,0,1-2,.5,4.3,4.3,0,0,1-4.07-1.86l-.07-.12-.08-.13v-.08a1.24,1.24,0,0,1-.1-.2l-.11-.23v-.36a7.81,7.81,0,0,1-.25-1c-.25-1.43-.37-3.1.16-3.9s2.57-1.71,4.53-2a9,9,0,0,1,1.26-.12h1.45l.63.1h.25l.15,0h.18l.3.12a2.14,2.14,0,0,1,.67.43C120.7,133.77,120.32,136.31,120,137.6Z" transform="translate(-15.33 -25.04)"/><path class="cls-29" d="M106.93,135.76l.26,9.7,5.42-1.56-5-8.22A1.44,1.44,0,0,0,106.93,135.76Z" transform="translate(-15.33 -25.04)"/><path class="cls-3" d="M123.08,189.53c-.42-10.06-1.21-18.94-5-23.66s-5.76-5.62-14.64-5.48v.6a3.3,3.3,0,0,1,2.51,1.47,52.26,52.26,0,0,1,6.83,15.17c2.58,9.78,3,31.6,3.15,43.36s0,21.23,0,21.23,6-1.39,7.79-4.36C123.79,237.86,123.51,199.59,123.08,189.53Z" transform="translate(-15.33 -25.04)"/><path class="cls-6" d="M123.08,189.53c-.42-10.06-1.21-18.94-5-23.66s-5.76-5.62-14.64-5.48v.6a3.3,3.3,0,0,1,2.51,1.47,52.26,52.26,0,0,1,6.83,15.17c2.58,9.78,3,31.6,3.15,43.36s0,21.23,0,21.23,6-1.39,7.79-4.36C123.79,237.86,123.51,199.59,123.08,189.53Z" transform="translate(-15.33 -25.04)"/><path class="cls-13" d="M123.08,189.53c-.42-10.06-1.21-18.94-5-23.66s-5.76-5.62-14.64-5.48v.6a3.3,3.3,0,0,1,2.51,1.47,52.26,52.26,0,0,1,6.83,15.17c2.58,9.78,3,31.6,3.15,43.36s0,21.23,0,21.23,6-1.39,7.79-4.36C123.79,237.86,123.51,199.59,123.08,189.53Z" transform="translate(-15.33 -25.04)"/><path class="cls-3" d="M92.38,173.52c-1.26-5.36-3.88-8.9-5-11.63L71.74,164c-4.09,1.89-4.92,5.88-4.52,10.37l2.91,33-.81,31.2c6.34,9.86,25.26,8,25.26,8s.54-14-.07-41.16C94.17,190.18,94,180.35,92.38,173.52Z" transform="translate(-15.33 -25.04)"/><path class="cls-13" d="M92.38,173.52c-1.26-5.36-3.88-8.9-5-11.63L71.74,164c-4.09,1.89-4.92,5.88-4.52,10.37l2.91,33-.81,31.2c6.34,9.86,25.26,8,25.26,8s.54-14-.07-41.16C94.17,190.18,94,180.35,92.38,173.52Z" transform="translate(-15.33 -25.04)"/><path class="cls-11" d="M92.9,176.16c-.73-3.45-1.12-9.84-1.72-11.13s-3.91-3.85-4-5.58l-.06-1.12a5.56,5.56,0,0,0-2.77,1.43c-1,.92-4.11,3.06-4.11,3.06a14.12,14.12,0,0,0,2.31,5.92c1.81,2.62,4.35,4.33,4.75,3.68s.32-1.63,1-3.16c.84-1.91,1-2.71,1.92-.83C90.88,169.94,92.9,176.16,92.9,176.16Z" transform="translate(-15.33 -25.04)"/><path class="cls-11" d="M111.67,174.29c.9,2.9-1.31-10-2.84-12.33s-5.47-3.17-5.47-3.17l.17,2.79a4.21,4.21,0,0,1,2.51,1.75A50.26,50.26,0,0,1,111.67,174.29Z" transform="translate(-15.33 -25.04)"/><path class="cls-11" d="M78.3,186.26l13.23-1.12s.4,8.4.4,10.6c0,1.38-2.2,3.66-3.84,5.17a3.54,3.54,0,0,1-1.86.88,3.47,3.47,0,0,1-2-.34c-2-1-4.6-2.6-4.85-4.21C79,194.64,78.3,186.26,78.3,186.26Z" transform="translate(-15.33 -25.04)"/><path class="cls-11" d="M117.37,183.59h5.71s.7,6.82.7,10.5c0,2.65-.24,4.32-.72,4.32-1,0-4.39-2.3-4.73-4.93C118.06,191.31,117.37,183.59,117.37,183.59Z" transform="translate(-15.33 -25.04)"/><path class="cls-3" d="M93.3,178.91a232.87,232.87,0,0,0-25.33,4l.08.93a233.41,233.41,0,0,1,25.36-4C93.38,179.52,93.34,179.21,93.3,178.91Z" transform="translate(-15.33 -25.04)"/><path class="cls-3" d="M122.29,178.7c-2.77-.33-5.91-.61-9.36-.78.07.3.15.62.22.94,3.41.18,6.52.46,9.25.79C122.36,179.33,122.33,179,122.29,178.7Z" transform="translate(-15.33 -25.04)"/><path class="cls-28" d="M71.71,164.12c-7.37.6-11.49,4.43-13.8,12.47-2.49,8.61-9.44,32.8-11,41.43-1,5.3-2.51,8.66,2,12.15,5.76,4.47,22.63,16.86,32.81,22.19S108,257.79,108,257.79L96.76,251l-3-3.94L64.94,220.84l9-31.07S79.88,170.52,71.71,164.12Z" transform="translate(-15.33 -25.04)"/><path class="cls-3" d="M72.77,163.83c-5,.2-10.79-.05-14.85,10.23s-9.13,31.21-11.16,39.83-3.18,12.69,0,15.48,16.13,11.08,16.13,11.08,4.46-9.77,9.64-12.71l-7.14-7.19,9.33-31.46S80.77,172.39,72.77,163.83Z" transform="translate(-15.33 -25.04)"/><path class="cls-3" d="M86.58,242.08v1A3,3,0,0,0,88,245.72l27.83,16.84a2.93,2.93,0,0,0,1.47.43,3,3,0,0,0,1.49-.36l52.36-28.71a3,3,0,0,0,1.1-1.06,3.07,3.07,0,0,0,.44-1.47v-.72L117.32,261Z" transform="translate(-15.33 -25.04)"/><g class="cls-20"><path class="cls-21" d="M86.58,242.08v1A3,3,0,0,0,88,245.72l27.83,16.84a2.93,2.93,0,0,0,1.47.43,3,3,0,0,0,1.49-.36l52.36-28.71a3,3,0,0,0,1.1-1.06,3.07,3.07,0,0,0,.44-1.47v-.72L117.32,261Z" transform="translate(-15.33 -25.04)"/></g><path class="cls-3" d="M172.67,230.67l-30.26-18.38a1.82,1.82,0,0,0-1.77,0l-53.86,29.5a.4.4,0,0,0-.15.14.43.43,0,0,0,0,.4.4.4,0,0,0,.15.14L117.32,261Z" transform="translate(-15.33 -25.04)"/><g class="cls-7"><path class="cls-8" d="M172.67,230.67l-30.26-18.38a1.82,1.82,0,0,0-1.77,0l-53.86,29.5a.4.4,0,0,0-.15.14.43.43,0,0,0,0,.4.4.4,0,0,0,.15.14L117.32,261Z" transform="translate(-15.33 -25.04)"/></g><path class="cls-11" d="M117.57,258.14l-16.32-9.9,48.48-26.58,16.42,9.86Z" transform="translate(-15.33 -25.04)"/><path class="cls-10" d="M109.55,231.71l.3.18,8,4.85,14.6-8,.3-.16-8.3-5Z" transform="translate(-15.33 -25.04)"/><path class="cls-11" d="M109.85,231.89l8,4.85,14.6-8-8-4.86Z" transform="translate(-15.33 -25.04)"/><path class="cls-3" d="M117.32,261v2a3,3,0,0,0,1.49-.36l52.36-28.71a3,3,0,0,0,1.54-2.53v-.72Z" transform="translate(-15.33 -25.04)"/><g class="cls-30"><path class="cls-31" d="M117.32,261v2a3,3,0,0,0,1.49-.36l52.36-28.71a3,3,0,0,0,1.54-2.53v-.72Z" transform="translate(-15.33 -25.04)"/></g><g class="cls-32"><path class="cls-33" d="M117.32,261v2a3,3,0,0,0,1.49-.36l52.36-28.71a3,3,0,0,0,1.54-2.53v-.72Z" transform="translate(-15.33 -25.04)"/></g><path class="cls-3" d="M118.14,261.48a3.3,3.3,0,0,0,1.52.25,3.36,3.36,0,0,0,1.48-.42l52.14-28.59a3.53,3.53,0,0,0,1.75-2.41l6.38-33.48a2.76,2.76,0,0,0,.06-.57,3.49,3.49,0,0,0-.25-1.36,3.56,3.56,0,0,0-.75-1.16l-54.18,29.72a2.65,2.65,0,0,0-.85.75,2.58,2.58,0,0,0-.45,1Z" transform="translate(-15.33 -25.04)"/><g class="cls-34"><path class="cls-4" d="M118.14,261.48a3.3,3.3,0,0,0,1.52.25,3.36,3.36,0,0,0,1.48-.42l52.14-28.59a3.53,3.53,0,0,0,1.75-2.41l6.38-33.48a2.76,2.76,0,0,0,.06-.57,3.49,3.49,0,0,0-.25-1.36,3.56,3.56,0,0,0-.75-1.16l-54.18,29.72a2.65,2.65,0,0,0-.85.75,2.58,2.58,0,0,0-.45,1Z" transform="translate(-15.33 -25.04)"/></g><path class="cls-3" d="M117.32,261l.34.21c.16.09.32.18.48.25L125,225.24a2.58,2.58,0,0,1,.45-1,2.65,2.65,0,0,1,.85-.75l54.18-29.72a4.2,4.2,0,0,0-.7-.56L125.52,223a2.65,2.65,0,0,0-.85.75,2.58,2.58,0,0,0-.45,1Z" transform="translate(-15.33 -25.04)"/><g class="cls-35"><path class="cls-6" d="M117.32,261l.34.21c.16.09.32.18.48.25L125,225.24a2.58,2.58,0,0,1,.45-1,2.65,2.65,0,0,1,.85-.75l54.18-29.72a4.2,4.2,0,0,0-.7-.56L125.52,223a2.65,2.65,0,0,0-.85.75,2.58,2.58,0,0,0-.45,1Z" transform="translate(-15.33 -25.04)"/></g><path class="cls-6" d="M125.54,224.14l-.81-.5a2.6,2.6,0,0,0-.51,1.09L117.32,261l.34.21c.16.09.32.18.48.25L125,225.24A2.7,2.7,0,0,1,125.54,224.14Z" transform="translate(-15.33 -25.04)"/><path class="cls-11" d="M147.82,231.09c.42-2.24,2.81-5.18,5.33-6.56s4.22-.68,3.79,1.56-2.81,5.18-5.33,6.56S147.39,233.33,147.82,231.09Z" transform="translate(-15.33 -25.04)"/><path class="cls-28" d="M84.91,239c3,2.58,7.5.5,11.37,1s7.18,1.41,10.28,1.32,4.64.54,2.47,3-8.42,1.06-10.1,1.81a3.54,3.54,0,0,0-1.22,1.12,3.63,3.63,0,0,0,.44,4.62c1.82,2.12-10.39-2-12-4.49S82.69,239.33,84.91,239Z" transform="translate(-15.33 -25.04)"/><path class="cls-3" d="M451.53,197.69a.6.6,0,0,1-.26-.36.61.61,0,0,1,.05-.44l.27-.53a3.09,3.09,0,0,0-.9-4l-.48-.36a.58.58,0,0,1-.17-.37.53.53,0,0,1,.09-.39.6.6,0,0,1,.32-.25.64.64,0,0,1,.41,0l.53.27a3.09,3.09,0,0,0,4-.9l.36-.48a.64.64,0,0,1,.38-.24.68.68,0,0,1,.44.09.6.6,0,0,1,.22.8l-.28.53a3.09,3.09,0,0,0,.9,4l.48.36a.58.58,0,0,1,.17.37.54.54,0,0,1-.09.39.6.6,0,0,1-.32.25.64.64,0,0,1-.41,0l-.53-.27a3.09,3.09,0,0,0-4,.9l-.36.48a.64.64,0,0,1-.38.24A.68.68,0,0,1,451.53,197.69Zm1.16-4.82a4.28,4.28,0,0,1,.5,2.19,4.28,4.28,0,0,1,2.19-.5,4.38,4.38,0,0,1-.5-2.19A4.28,4.28,0,0,1,452.69,192.87Z" transform="translate(-15.33 -25.04)"/><path class="cls-3" d="M468.77,197.24a3.89,3.89,0,0,1-1.5-1.73,3.93,3.93,0,0,1-.29-2.27,3.89,3.89,0,0,1,1-2,4,4,0,0,1,2-1.14A3.94,3.94,0,0,1,474.2,196a4,4,0,0,1-5.43,1.24Zm3.54-5.64a2.63,2.63,0,0,0-1.52-.42,2.69,2.69,0,0,0-1.5.5,2.68,2.68,0,0,0-1.09,2.82,2.74,2.74,0,0,0,.78,1.37,2.78,2.78,0,0,0,1.42.71,2.72,2.72,0,0,0,1.91-5Z" transform="translate(-15.33 -25.04)"/><path class="cls-3" d="M465.76,208.17a.63.63,0,0,1-.28-.38.65.65,0,0,1,.08-.47l1.1-1.73a.69.69,0,0,1,.16-.18.85.85,0,0,1,.22-.09.65.65,0,0,1,.24,0,.85.85,0,0,1,.22.09.52.52,0,0,1,.17.16.63.63,0,0,1,.11.46.58.58,0,0,1-.08.22L466.6,208a.46.46,0,0,1-.17.17.56.56,0,0,1-.21.09.49.49,0,0,1-.24,0A.6.6,0,0,1,465.76,208.17Z" transform="translate(-15.33 -25.04)"/><path class="cls-3" d="M464.07,208.56l-1.74-1.1a.58.58,0,0,1-.17-.37.53.53,0,0,1,.09-.39.6.6,0,0,1,.32-.25.64.64,0,0,1,.41,0l1.74,1.1a.58.58,0,0,1,.17.37.53.53,0,0,1-.09.39.6.6,0,0,1-.32.25A.64.64,0,0,1,464.07,208.56Z" transform="translate(-15.33 -25.04)"/><path class="cls-3" d="M463.29,212.08a.61.61,0,0,1-.19-.84l1.09-1.74a.58.58,0,0,1,.17-.18.54.54,0,0,1,.22-.09.64.64,0,0,1,.24,0,.85.85,0,0,1,.22.09.52.52,0,0,1,.17.16.49.49,0,0,1,.1.22.65.65,0,0,1,0,.24.85.85,0,0,1-.09.22l-1.09,1.74a.69.69,0,0,1-.16.18.68.68,0,0,1-.22.09.7.7,0,0,1-.25,0A.85.85,0,0,1,463.29,212.08Z" transform="translate(-15.33 -25.04)"/><path class="cls-3" d="M468,211l-1.74-1.09a.62.62,0,0,1-.19-.85.69.69,0,0,1,.16-.18.68.68,0,0,1,.22-.09.7.7,0,0,1,.25,0,.85.85,0,0,1,.22.09l1.73,1.09a.58.58,0,0,1,.27.38.6.6,0,0,1-.46.74A.67.67,0,0,1,468,211Z" transform="translate(-15.33 -25.04)"/><path class="cls-3" d="M33.19,203.11a.63.63,0,0,1-.21.4.58.58,0,0,1-.42.14H32a3.1,3.1,0,0,0-3.2,2.52l-.11.58a.66.66,0,0,1-.25.36.62.62,0,0,1-.42.1.64.64,0,0,1-.39-.2.59.59,0,0,1-.16-.4V206a3.1,3.1,0,0,0-2.52-3.2l-.58-.12a.6.6,0,0,1-.49-.67.63.63,0,0,1,.21-.4.6.6,0,0,1,.43-.14h.59a3.1,3.1,0,0,0,3.2-2.52l.12-.58a.6.6,0,0,1,.24-.38.56.56,0,0,1,.43-.12.61.61,0,0,1,.4.21.62.62,0,0,1,.14.43v.6a3.1,3.1,0,0,0,2.52,3.2l.58.12a.6.6,0,0,1,.49.67Zm-4.85,1a4.32,4.32,0,0,1,1.77-1.4A4.2,4.2,0,0,1,28.72,201,4.32,4.32,0,0,1,27,202.4a4.29,4.29,0,0,1,1.39,1.74Z" transform="translate(-15.33 -25.04)"/><path class="cls-3" d="M25.39,187.74A3.94,3.94,0,0,1,20.23,191a3.91,3.91,0,0,1-2.68-3.47,3.87,3.87,0,0,1,.51-2.23A4,4,0,0,1,22,183.36a3.92,3.92,0,0,1,3.39,4.38Zm-6.6-.79a2.69,2.69,0,0,0,.28,1.55,2.72,2.72,0,0,0,1.09,1.14,2.63,2.63,0,0,0,1.53.33,2.7,2.7,0,0,0,1.47-.57,2.74,2.74,0,0,0,.9-1.29,2.83,2.83,0,0,0,0-1.58,2.71,2.71,0,0,0-3.36-1.86,2.61,2.61,0,0,0-.95.49,2.69,2.69,0,0,0-.68.82,2.63,2.63,0,0,0-.31,1Z" transform="translate(-15.33 -25.04)"/><path class="cls-3" d="M36.56,185.77a.62.62,0,0,1-.07.23.55.55,0,0,1-.16.18.53.53,0,0,1-.21.11.65.65,0,0,1-.24,0l-2-.25a.6.6,0,0,1-.53-.68.56.56,0,0,1,.23-.41.61.61,0,0,1,.45-.13l2,.25a.6.6,0,0,1,.53.68Z" transform="translate(-15.33 -25.04)"/><path class="cls-3" d="M37.63,187.13l-.24,2a.63.63,0,0,1-.08.23.52.52,0,0,1-.15.18.65.65,0,0,1-.22.11.44.44,0,0,1-.23,0,.56.56,0,0,1-.41-.23.53.53,0,0,1-.11-.21.65.65,0,0,1,0-.24l.24-2a.61.61,0,0,1,.23-.41.64.64,0,0,1,.46-.13.63.63,0,0,1,.23.08.59.59,0,0,1,.29.37A.65.65,0,0,1,37.63,187.13Z" transform="translate(-15.33 -25.04)"/><path class="cls-3" d="M41.15,186.32a.61.61,0,0,1-.23.41.66.66,0,0,1-.45.12l-2-.24a.6.6,0,0,1-.53-.68.56.56,0,0,1,.23-.41.57.57,0,0,1,.45-.13l2,.24a.62.62,0,0,1,.41.24A.61.61,0,0,1,41.15,186.32Z" transform="translate(-15.33 -25.04)"/><path class="cls-3" d="M38.18,182.54l-.24,2a.61.61,0,0,1-.23.41.57.57,0,0,1-.45.12.59.59,0,0,1-.41-.23.61.61,0,0,1-.13-.45l.24-2a.61.61,0,0,1,.23-.41.67.67,0,0,1,.46-.13.64.64,0,0,1,.4.24A.6.6,0,0,1,38.18,182.54Z" transform="translate(-15.33 -25.04)"/><path class="cls-3" d="M429.93,88.78a.62.62,0,0,1-.73-.42l-.17-.57a3.16,3.16,0,0,0-1.33-1.72,3.12,3.12,0,0,0-2.13-.44l-.59.09a.65.65,0,0,1-.24,0,.85.85,0,0,1-.22-.09.52.52,0,0,1-.17-.16.62.62,0,0,1-.1-.22.65.65,0,0,1,0-.24.85.85,0,0,1,.09-.22.52.52,0,0,1,.16-.17.62.62,0,0,1,.22-.1l.57-.18a3.11,3.11,0,0,0,2.16-3.45l-.09-.59a.65.65,0,0,1,0-.24.83.83,0,0,1,.08-.22.73.73,0,0,1,.17-.18.81.81,0,0,1,.21-.1.65.65,0,0,1,.24,0,.63.63,0,0,1,.23.08.85.85,0,0,1,.17.16.62.62,0,0,1,.1.22l.18.57a3.11,3.11,0,0,0,3.45,2.16l.59-.09a.58.58,0,0,1,.46.08.56.56,0,0,1,.27.38.58.58,0,0,1-.07.46.66.66,0,0,1-.38.27l-.57.18a3.11,3.11,0,0,0-2.16,3.46l.09.58a.63.63,0,0,1-.1.44A.65.65,0,0,1,429.93,88.78Zm-2.61-4.23a4.41,4.41,0,0,1,1.91,1.2,4.3,4.3,0,0,1,1.19-1.91,4.32,4.32,0,0,1-1.91-1.2A4.3,4.3,0,0,1,427.32,84.55Z" transform="translate(-15.33 -25.04)"/><path class="cls-3" d="M425.82,104a3.94,3.94,0,0,1-4.78-3.76,3.93,3.93,0,0,1,2.34-3.69,3.94,3.94,0,0,1,5.44,2.72,3.85,3.85,0,0,1,0,1.55,4,4,0,0,1-.55,1.44,4.08,4.08,0,0,1-1.07,1.12A3.92,3.92,0,0,1,425.82,104Zm-1.49-6.48a2.73,2.73,0,0,0-2.06,2.2,2.73,2.73,0,0,0,.21,1.57,2.71,2.71,0,0,0,4.06,1.06,2.74,2.74,0,0,0-2.21-4.88Z" transform="translate(-15.33 -25.04)"/><path class="cls-3" d="M410.07,90.15a.57.57,0,0,1-.46-.08.6.6,0,0,1-.28-.38l-.46-2a.57.57,0,0,1,0-.26.51.51,0,0,1,.07-.24.55.55,0,0,1,.17-.2.7.7,0,0,1,.23-.11.77.77,0,0,1,.26,0,.66.66,0,0,1,.24.11.77.77,0,0,1,.18.18.73.73,0,0,1,.08.25l.46,2a.57.57,0,0,1-.08.46A.6.6,0,0,1,410.07,90.15Z" transform="translate(-15.33 -25.04)"/><path class="cls-3" d="M409.15,91.62l-2,.46a.57.57,0,0,1-.26,0,.59.59,0,0,1-.25-.07.61.61,0,0,1-.19-.17.7.7,0,0,1-.11-.23.77.77,0,0,1,0-.26.87.87,0,0,1,.1-.24.7.7,0,0,1,.2-.18.62.62,0,0,1,.24-.08l2-.46a.61.61,0,0,1,.43.11.7.7,0,0,1,.25.36.66.66,0,0,1-.06.44A.64.64,0,0,1,409.15,91.62Z" transform="translate(-15.33 -25.04)"/><path class="cls-3" d="M411.11,94.65a.57.57,0,0,1-.46-.08.6.6,0,0,1-.28-.38l-.46-2a.65.65,0,0,1,0-.24.58.58,0,0,1,.08-.22.73.73,0,0,1,.17-.18.85.85,0,0,1,.22-.09.65.65,0,0,1,.24,0,.63.63,0,0,1,.23.08.69.69,0,0,1,.17.17.62.62,0,0,1,.1.22l.46,2a.65.65,0,0,1,0,.24.85.85,0,0,1-.09.22.52.52,0,0,1-.16.17A.62.62,0,0,1,411.11,94.65Z" transform="translate(-15.33 -25.04)"/><path class="cls-3" d="M413.65,90.58l-2,.46a.57.57,0,0,1-.46-.08.6.6,0,0,1-.28-.38.57.57,0,0,1,.08-.46.6.6,0,0,1,.38-.28l2-.46a.57.57,0,0,1,.46.08.6.6,0,0,1,.28.38.57.57,0,0,1-.08.46A.6.6,0,0,1,413.65,90.58Z" transform="translate(-15.33 -25.04)"/><path class="cls-3" d="M69.3,85.64a.65.65,0,0,1-.42.16.67.67,0,0,1-.42-.16L68,85.22A3.11,3.11,0,0,0,64,85l-.48.35a.6.6,0,0,1-.43.12.57.57,0,0,1-.4-.2.62.62,0,0,1,0-.83l.42-.43a3.13,3.13,0,0,0,.25-4.07l-.36-.5a.6.6,0,0,1-.12-.43.62.62,0,0,1,.2-.4.58.58,0,0,1,.41-.17.59.59,0,0,1,.42.17l.43.41a3.11,3.11,0,0,0,4.07.26l.47-.36a.61.61,0,0,1,.83.09.59.59,0,0,1,.17.42.58.58,0,0,1-.17.41l-.41.43a3.09,3.09,0,0,0-.3,4.08l.36.48a.64.64,0,0,1,.13.42A.58.58,0,0,1,69.3,85.64ZM65,83.19a4.2,4.2,0,0,1,2.25.14,4.41,4.41,0,0,1,.14-2.25,4.41,4.41,0,0,1-2.25-.14A4.2,4.2,0,0,1,65,83.19Z" transform="translate(-15.33 -25.04)"/><path class="cls-3" d="M89.35,93.47a4,4,0,0,1-2.18,1A4,4,0,1,1,90,88.37a4,4,0,0,1-.64,5.1Zm-4.58-4.82a2.35,2.35,0,0,0-.3.33,2.7,2.7,0,0,0,1.73,4.31,2.77,2.77,0,0,0,1.31-.11,2.71,2.71,0,0,0,1.15-4.35,2.78,2.78,0,0,0-1.08-.75,2.69,2.69,0,0,0-2.81.57Z" transform="translate(-15.33 -25.04)"/><path class="cls-3" d="M68.17,104.08l-1.51,1.39a.65.65,0,0,1-.21.16.7.7,0,0,1-.25.05.53.53,0,0,1-.25-.05.48.48,0,0,1-.22-.15.8.8,0,0,1-.13-.22.76.76,0,0,1,0-.26.46.46,0,0,1,.08-.25.61.61,0,0,1,.17-.19l1.51-1.39a.53.53,0,0,1,.2-.13.55.55,0,0,1,.46,0,.53.53,0,0,1,.2.13.6.6,0,0,1,.14.21.56.56,0,0,1,0,.25.54.54,0,0,1-.06.25A.53.53,0,0,1,68.17,104.08Z" transform="translate(-15.33 -25.04)"/><path class="cls-3" d="M71.28,105.67a.62.62,0,0,1-.87,0L69,104.13a.62.62,0,0,1,0-.87.53.53,0,0,1,.2-.13.47.47,0,0,1,.24,0,.46.46,0,0,1,.23,0,.53.53,0,0,1,.2.13l1.38,1.51a.53.53,0,0,1,.16.2.65.65,0,0,1,.06.24.53.53,0,0,1,0,.25A.6.6,0,0,1,71.28,105.67Z" transform="translate(-15.33 -25.04)"/><path class="cls-3" d="M71.57,101l-1.51,1.39a.62.62,0,0,1-.87,0A.63.63,0,0,1,69,102a.64.64,0,0,1,.17-.44l1.51-1.38a.63.63,0,0,1,.2-.13.67.67,0,0,1,.24,0,.6.6,0,0,1,.23.06.66.66,0,0,1,.2.14.56.56,0,0,1,.12.2.59.59,0,0,1,0,.23.59.59,0,0,1,0,.23.56.56,0,0,1-.14.2Z" transform="translate(-15.33 -25.04)"/><path class="cls-3" d="M68.16,102.26a.62.62,0,0,1-.87,0l-1.39-1.51a.65.65,0,0,1-.16-.21.7.7,0,0,1,0-.25.51.51,0,0,1,0-.25.48.48,0,0,1,.15-.22.61.61,0,0,1,.22-.13.76.76,0,0,1,.26,0,.46.46,0,0,1,.25.08.61.61,0,0,1,.19.17l1.39,1.51a.6.6,0,0,1,.14.42A.62.62,0,0,1,68.16,102.26Z" transform="translate(-15.33 -25.04)"/><path class="cls-36" d="M238.87,223.18H241v12.67h-2.12Z" transform="translate(-15.33 -25.04)"/><path class="cls-37" d="M239.93,238.56a8.15,8.15,0,0,1,5.2,1.81h.12v-3.62a1,1,0,0,1,1.06-.9h2.31c.71,0,1.07-.74.57-1.17l-2.09-1.78a2.4,2.4,0,0,0-2.36-.38c-1.8.7-2.8,2.42-4.81,2.42h-3.19c-1.18,0-1.18.81-1.18,1.81v1.37l-.84,2.25A8.2,8.2,0,0,1,239.93,238.56Z" transform="translate(-15.33 -25.04)"/><path class="cls-37" d="M248.08,242.83c-1.07-3.05-4.42-5.17-8.15-5.17h-1.06a2,2,0,0,1-2.13-1.81v-.91h-3.19a3,3,0,0,0-3.19,2.72,1.07,1.07,0,0,0,2.12,0,1,1,0,0,1,1.07-.91h1.06v2.53a7.31,7.31,0,0,0-2.83,3.55.88.88,0,0,0,.71,1.12,1.09,1.09,0,0,0,1.31-.57,5.24,5.24,0,0,1,1.82-2.55c4.1-2.81,9.22-.93,10.42,2.52a1.06,1.06,0,0,0,1,.64,1,1,0,0,0,.3,0A.88.88,0,0,0,248.08,242.83Z" transform="translate(-15.33 -25.04)"/><path class="cls-36" d="M282.47,223.18h2.13v12.67h-2.13Z" transform="translate(-15.33 -25.04)"/><path class="cls-37" d="M283.53,238.56a8.2,8.2,0,0,1,5.21,1.81h.11v-3.62a1,1,0,0,1,1.06-.9h2.31c.72,0,1.08-.74.57-1.17l-2.09-1.78a2.39,2.39,0,0,0-2.35-.38c-1.81.7-2.81,2.42-4.82,2.42h-3.19c-1.17,0-1.07.81-1.07,1.81V239l-.94,1.36A8.15,8.15,0,0,1,283.53,238.56Z" transform="translate(-15.33 -25.04)"/><path class="cls-37" d="M291.68,242.83c-1.06-3.05-4.41-5.17-8.15-5.17h-1.06a2,2,0,0,1-2.13-1.81v-.91h-3.19a3,3,0,0,0-3.19,2.72,1.08,1.08,0,0,0,2.13,0,1,1,0,0,1,1.06-.91h1.06v2.53a7.31,7.31,0,0,0-2.83,3.55.88.88,0,0,0,.72,1.12,1.1,1.1,0,0,0,1.31-.57,5.22,5.22,0,0,1,1.81-2.55c4.1-2.81,9.22-.93,10.42,2.52a1.06,1.06,0,0,0,1,.64,1.1,1.1,0,0,0,.31,0A.88.88,0,0,0,291.68,242.83Z" transform="translate(-15.33 -25.04)"/><path class="cls-38" d="M261.2,233.14h2.13v14.47H261.2Z" transform="translate(-15.33 -25.04)"/><path class="cls-5" d="M262.26,197.85a119.2,119.2,0,0,1-26.59,20.81v1.81h46.8l-4.12-1.81Z" transform="translate(-15.33 -25.04)"/><path class="cls-3" d="M262.26,197.85c6.26,13.58,12.76,20.81,12.76,20.81v1.81h13.83v-1.81A119.2,119.2,0,0,1,262.26,197.85Z" transform="translate(-15.33 -25.04)"/><path class="cls-3" d="M262.26,197.85c-6.26,13.58-12.76,20.81-12.76,20.81v1.81h12.76Z" transform="translate(-15.33 -25.04)"/><path class="cls-38" d="M288.85,246.71H246.31a1,1,0,0,0-1.06.9v4.53l44.66-2.72v-1.81A1,1,0,0,0,288.85,246.71Z" transform="translate(-15.33 -25.04)"/><path class="cls-38" d="M246.31,247.61v-.9H235.67a1,1,0,0,0-1.06.9v4.53h55.3v-2.72H248.44A2,2,0,0,1,246.31,247.61Z" transform="translate(-15.33 -25.04)"/><path class="cls-38" d="M262.26,199.66a1.83,1.83,0,1,0-2.13-1.81A2,2,0,0,0,262.26,199.66Z" transform="translate(-15.33 -25.04)"/><path class="cls-36" d="M261.2,223.18h2.13v8.15H261.2Z" transform="translate(-15.33 -25.04)"/><path class="cls-37" d="M262.26,234a8.14,8.14,0,0,1,5.21,1.81h.11v-3.62a1,1,0,0,1,1.06-.9H271c.72,0,1.08-.74.57-1.18l-2.09-1.77a2.36,2.36,0,0,0-2.35-.38c-1.81.7-2.81,2.42-4.82,2.42h-3.19c-1.17,0-1.05,1.17-1.05,2.17v1.6l-1,1.66A8.1,8.1,0,0,1,262.26,234Z" transform="translate(-15.33 -25.04)"/><path class="cls-36" d="M292,253H232.48a.92.92,0,1,1,0-1.81H292a.92.92,0,1,1,0,1.81Z" transform="translate(-15.33 -25.04)"/><path class="cls-38" d="M289.91,218.66h-43.6a1,1,0,0,0-1.06.9v2.72a1,1,0,0,0,1.06.9h43.6a1,1,0,0,0,1.07-.9v-2.72A1,1,0,0,0,289.91,218.66Z" transform="translate(-15.33 -25.04)"/><path class="cls-38" d="M248.44,222.28a2,2,0,0,1-2.13-1.81v-1.81h-11.7a1,1,0,0,0-1.06.9v3.62a1,1,0,0,0,1.06.91h55.3a1,1,0,0,0,1.07-.91v-.9Z" transform="translate(-15.33 -25.04)"/><path class="cls-37" d="M270.41,238.31c-1.06-3.05-4.41-5.17-8.15-5.17H261.2a2,2,0,0,1-2.13-1.81v-.91h-3.19a3,3,0,0,0-3.19,2.72,1.08,1.08,0,0,0,2.13,0,1,1,0,0,1,1.06-.91h1.06v2.53a7.26,7.26,0,0,0-2.83,3.55.89.89,0,0,0,.72,1.12,1.12,1.12,0,0,0,1.31-.57,5.17,5.17,0,0,1,1.81-2.55c4.1-2.81,9.22-.93,10.42,2.51a1.05,1.05,0,0,0,1,.65,1.1,1.1,0,0,0,.31,0A.89.89,0,0,0,270.41,238.31Z" transform="translate(-15.33 -25.04)"/></svg>